<?xml version="1.0" encoding="utf-8" standalone="no"?>
<!DOCTYPE svg PUBLIC "-//W3C//DTD SVG 1.1//EN"
  "http://www.w3.org/Graphics/SVG/1.1/DTD/svg11.dtd">
<svg xmlns:xlink="http://www.w3.org/1999/xlink" width="374.4pt" height="172.8pt" viewBox="0 0 374.4 172.8" xmlns="http://www.w3.org/2000/svg" version="1.1">
 <metadata>
  <rdf:RDF xmlns:dc="http://purl.org/dc/elements/1.1/" xmlns:cc="http://creativecommons.org/ns#" xmlns:rdf="http://www.w3.org/1999/02/22-rdf-syntax-ns#">
   <cc:Work>
    <dc:type rdf:resource="http://purl.org/dc/dcmitype/StillImage"/>
    <dc:date>2026-09-09T17:50:14.411260</dc:date>
    <dc:format>image/svg+xml</dc:format>
    <dc:creator>
     <cc:Agent>
      <dc:title>Matplotlib v3.9.4, https://matplotlib.org/</dc:title>
     </cc:Agent>
    </dc:creator>
   </cc:Work>
  </rdf:RDF>
 </metadata>
 <defs>
  <style type="text/css">*{stroke-linejoin: round; stroke-linecap: round}</style>
 </defs>
 <g id="figure_1">
  <g id="patch_1">
   <path d="M 0 172.8 
L 374.4 172.8 
L 374.4 0 
L 0 0 
z
" style="fill: #ffffff"/>
  </g>
  <g id="axes_1">
   <g id="patch_2">
    <path d="M 25.4592 36.284544 
C 27.937529 36.284544 30.314686 35.299893 32.06713 33.54745 
C 33.819573 31.795006 34.804224 29.417849 34.804224 26.93952 
C 34.804224 24.461191 33.819573 22.084034 32.06713 20.33159 
C 30.314686 18.579147 27.937529 17.594496 25.4592 17.594496 
C 22.980871 17.594496 20.603714 18.579147 18.85127 20.33159 
C 17.098827 22.084034 16.114176 24.461191 16.114176 26.93952 
C 16.114176 29.417849 17.098827 31.795006 18.85127 33.54745 
C 20.603714 35.299893 22.980871 36.284544 25.4592 36.284544 
z
" clip-path="url(#p457bd88407)" style="fill: #24564b"/>
   </g>
   <g id="line2d_1">
    <path d="M 50.61888 46.224 
L 359.72352 46.224 
" clip-path="url(#p457bd88407)" style="fill: none; stroke: #bfc9c0; stroke-width: 0.7; stroke-linecap: square"/>
   </g>
   <g id="patch_3">
    <path d="M 25.4592 74.853504 
C 27.937529 74.853504 30.314686 73.868853 32.06713 72.11641 
C 33.819573 70.363966 34.804224 67.986809 34.804224 65.50848 
C 34.804224 63.030151 33.819573 60.652994 32.06713 58.90055 
C 30.314686 57.148107 27.937529 56.163456 25.4592 56.163456 
C 22.980871 56.163456 20.603714 57.148107 18.85127 58.90055 
C 17.098827 60.652994 16.114176 63.030151 16.114176 65.50848 
C 16.114176 67.986809 17.098827 70.363966 18.85127 72.11641 
C 20.603714 73.868853 22.980871 74.853504 25.4592 74.853504 
z
" clip-path="url(#p457bd88407)" style="fill: #24564b"/>
   </g>
   <g id="line2d_2">
    <path d="M 50.61888 84.79296 
L 359.72352 84.79296 
" clip-path="url(#p457bd88407)" style="fill: none; stroke: #bfc9c0; stroke-width: 0.7; stroke-linecap: square"/>
   </g>
   <g id="patch_4">
    <path d="M 25.4592 113.422464 
C 27.937529 113.422464 30.314686 112.437813 32.06713 110.68537 
C 33.819573 108.932926 34.804224 106.555769 34.804224 104.07744 
C 34.804224 101.599111 33.819573 99.221954 32.06713 97.46951 
C 30.314686 95.717067 27.937529 94.732416 25.4592 94.732416 
C 22.980871 94.732416 20.603714 95.717067 18.85127 97.46951 
C 17.098827 99.221954 16.114176 101.599111 16.114176 104.07744 
C 16.114176 106.555769 17.098827 108.932926 18.85127 110.68537 
C 20.603714 112.437813 22.980871 113.422464 25.4592 113.422464 
z
" clip-path="url(#p457bd88407)" style="fill: #24564b"/>
   </g>
   <g id="line2d_3">
    <path d="M 50.61888 123.36192 
L 359.72352 123.36192 
" clip-path="url(#p457bd88407)" style="fill: none; stroke: #bfc9c0; stroke-width: 0.7; stroke-linecap: square"/>
   </g>
   <g id="patch_5">
    <path d="M 25.4592 151.991424 
C 27.937529 151.991424 30.314686 151.006773 32.06713 149.25433 
C 33.819573 147.501886 34.804224 145.124729 34.804224 142.6464 
C 34.804224 140.168071 33.819573 137.790914 32.06713 136.03847 
C 30.314686 134.286027 27.937529 133.301376 25.4592 133.301376 
C 22.980871 133.301376 20.603714 134.286027 18.85127 136.03847 
C 17.098827 137.790914 16.114176 140.168071 16.114176 142.6464 
C 16.114176 145.124729 17.098827 147.501886 18.85127 149.25433 
C 20.603714 151.006773 22.980871 151.991424 25.4592 151.991424 
z
" clip-path="url(#p457bd88407)" style="fill: #24564b"/>
   </g>
   <g id="patch_6">
    <path d="M 25.4592 41.795224 
Q 25.4592 46.223083 25.4592 49.644712 
" clip-path="url(#p457bd88407)" style="fill: none; stroke: #24564b; stroke-width: 0.9; stroke-linecap: round"/>
    <path d="M 27.2592 46.044712 
L 25.4592 49.644712 
L 23.6592 46.044712 
z
" clip-path="url(#p457bd88407)" style="fill: #24564b; stroke: #24564b; stroke-width: 0.9; stroke-linecap: round"/>
   </g>
   <g id="patch_7">
    <path d="M 25.4592 80.364184 
Q 25.4592 84.792043 25.4592 88.213672 
" clip-path="url(#p457bd88407)" style="fill: none; stroke: #24564b; stroke-width: 0.9; stroke-linecap: round"/>
    <path d="M 27.2592 84.613672 
L 25.4592 88.213672 
L 23.6592 84.613672 
z
" clip-path="url(#p457bd88407)" style="fill: #24564b; stroke: #24564b; stroke-width: 0.9; stroke-linecap: round"/>
   </g>
   <g id="patch_8">
    <path d="M 25.4592 118.933144 
Q 25.4592 123.361003 25.4592 126.782632 
" clip-path="url(#p457bd88407)" style="fill: none; stroke: #24564b; stroke-width: 0.9; stroke-linecap: round"/>
    <path d="M 27.2592 123.182632 
L 25.4592 126.782632 
L 23.6592 123.182632 
z
" clip-path="url(#p457bd88407)" style="fill: #24564b; stroke: #24564b; stroke-width: 0.9; stroke-linecap: round"/>
   </g>
   <g id="text_1">
    <!-- 1 -->
    <g style="fill: #ffffff" transform="translate(23.30295 28.97952) scale(0.08 -0.08)">
     <defs>
      <path id="NotoSansSC-31" d="M 3085 0 
L 550 0 
L 550 448 
L 1562 448 
L 1562 3930 
L 525 3622 
L 525 4109 
L 2074 4582 
L 2074 448 
L 3085 448 
L 3085 0 
z
" transform="scale(0.015625)"/>
     </defs>
     <use xlink:href="#NotoSansSC-31"/>
    </g>
   </g>
   <g id="text_2">
    <!-- 定位近期记录 -->
    <g style="fill: #252c29" transform="translate(50.61888 29.61702) scale(0.105 -0.105)">
     <defs>
      <path id="NotoSansSC-5b9a" d="M 1382 2778 
L 1382 3213 
L 5082 3213 
L 5082 2778 
L 3546 2778 
L 3546 1805 
L 5408 1805 
L 5408 1370 
L 3546 1370 
L 3546 237 
Q 3731 211 3930 198 
Q 4422 160 5037 160 
Q 5651 160 6150 192 
Q 6010 -58 5965 -346 
Q 4851 -339 4019 -282 
Q 2374 -198 1702 781 
Q 1331 77 710 -480 
Q 486 -294 205 -224 
Q 1370 710 1677 2214 
L 2150 2042 
Q 2054 1613 1914 1248 
Q 2349 576 3053 352 
L 3053 2778 
L 1382 2778 
z
M 640 3066 
L 640 4518 
L 3098 4518 
Q 2861 4928 2630 5222 
L 3168 5370 
Q 3507 4870 3706 4518 
L 5747 4518 
L 5747 3072 
L 5248 3072 
L 5248 4083 
L 1139 4083 
L 1139 3066 
L 640 3066 
z
" transform="scale(0.015625)"/>
      <path id="NotoSansSC-4f4d" d="M 1171 -512 
L 1171 3053 
Q 838 2579 557 2323 
Q 403 2522 134 2630 
Q 1210 3718 1722 5331 
L 2182 5114 
Q 1990 4506 1651 3853 
L 1651 -512 
L 1171 -512 
z
M 1997 -230 
L 1997 211 
L 4000 211 
Q 4461 1478 4838 3174 
L 5357 3021 
Q 4934 1389 4506 211 
L 6106 211 
L 6106 -230 
L 1997 -230 
z
M 2259 3578 
L 2259 4019 
L 5894 4019 
L 5894 3578 
L 2259 3578 
z
M 3194 691 
Q 2931 1939 2560 2957 
L 3059 3014 
Q 3418 2029 3674 851 
L 3194 691 
z
M 4038 4032 
Q 3770 4602 3366 5235 
L 3872 5350 
Q 4198 4896 4493 4269 
L 4038 4032 
z
" transform="scale(0.015625)"/>
      <path id="NotoSansSC-8fd1" d="M 4378 467 
L 4378 2880 
L 3130 2880 
L 3130 2726 
Q 3136 1485 2592 640 
Q 2362 774 2099 813 
Q 2669 1600 2650 2726 
L 2650 4826 
Q 4294 4845 5267 5101 
L 5574 4678 
Q 4474 4442 3130 4403 
L 3130 3322 
L 5907 3322 
L 5907 2880 
L 4858 2880 
L 4858 467 
L 4378 467 
z
M 730 -390 
L 346 -64 
Q 826 461 1216 806 
L 1216 2682 
L 371 2682 
L 371 3130 
L 1696 3130 
L 1696 787 
Q 2394 179 3693 173 
Q 4813 128 6182 237 
Q 6035 -26 6022 -307 
Q 5504 -326 4864 -333 
Q 4237 -333 3757 -314 
Q 2214 -301 1446 410 
Q 1133 122 730 -390 
z
M 1587 3725 
Q 1165 4333 685 4806 
L 1139 5050 
Q 1568 4634 1997 4026 
L 1587 3725 
z
" transform="scale(0.015625)"/>
      <path id="NotoSansSC-671f" d="M 3443 -525 
Q 3200 -365 2963 -314 
Q 3443 211 3597 794 
Q 3763 1363 3757 2560 
L 3757 5024 
L 5850 5024 
L 5850 378 
Q 5843 -416 5114 -422 
Q 4915 -422 4659 -397 
Q 4653 -160 4538 77 
Q 4890 32 5037 32 
Q 5395 26 5389 410 
L 5389 1530 
L 4173 1530 
Q 4090 262 3443 -525 
z
M 506 4179 
L 506 4582 
L 1011 4582 
L 1011 5299 
L 1459 5299 
L 1459 4582 
L 2560 4582 
L 2560 5299 
L 3008 5299 
L 3008 4582 
L 3456 4582 
L 3456 4179 
L 3008 4179 
L 3008 1510 
L 3507 1510 
L 3507 1107 
L 282 1107 
L 282 1510 
L 1011 1510 
L 1011 4179 
L 506 4179 
z
M 4211 2522 
Q 4211 2214 4198 1952 
L 5389 1952 
L 5389 3066 
L 4211 3066 
L 4211 2522 
z
M 4211 4589 
L 4211 3482 
L 5389 3482 
L 5389 4589 
L 4211 4589 
z
M 1459 2157 
L 1459 1510 
L 2560 1510 
L 2560 2157 
L 1459 2157 
z
M 1459 3168 
L 1459 2528 
L 2560 2528 
L 2560 3168 
L 1459 3168 
z
M 1459 4179 
L 1459 3539 
L 2560 3539 
L 2560 4179 
L 1459 4179 
z
M 742 -358 
Q 550 -192 314 -109 
Q 998 397 1395 1011 
L 1798 794 
Q 1382 160 742 -358 
z
M 3008 13 
Q 2611 422 2202 742 
L 2534 1005 
Q 2893 730 3245 371 
L 3008 13 
z
" transform="scale(0.015625)"/>
      <path id="NotoSansSC-8bb0" d="M 3706 -326 
Q 2822 -333 2829 506 
L 2829 2938 
L 5094 2938 
L 5094 4461 
L 2688 4461 
L 2688 4915 
L 5587 4915 
L 5587 2483 
L 3328 2483 
L 3328 570 
Q 3322 141 3744 147 
L 4890 147 
Q 5216 141 5344 256 
Q 5491 365 5581 698 
Q 5645 922 5677 1133 
Q 5875 922 6093 813 
Q 6042 595 5978 390 
Q 5786 -365 4960 -326 
L 3706 -326 
z
M 1914 3776 
Q 1306 4371 736 4813 
L 1120 5114 
Q 1670 4704 2195 4173 
L 1914 3776 
z
M 1325 -403 
L 1043 -6 
Q 1242 198 1229 595 
L 1229 2848 
L 275 2848 
L 275 3290 
L 1709 3290 
L 1709 531 
L 2374 1030 
L 2650 710 
L 1645 -83 
Q 1459 -218 1325 -403 
z
" transform="scale(0.015625)"/>
      <path id="NotoSansSC-5f55" d="M 1325 3597 
L 1325 4013 
L 4499 4013 
L 4499 4602 
L 1126 4602 
L 1126 5030 
L 4986 5030 
L 4986 3002 
L 6003 3002 
L 6003 2573 
L 3520 2573 
L 3520 2451 
Q 3750 1952 4090 1542 
Q 4736 1965 5293 2496 
L 5651 2221 
Q 5043 1670 4358 1248 
Q 5082 538 6138 198 
Q 5907 45 5754 -230 
Q 4218 397 3520 1677 
L 3520 250 
Q 3526 -467 2778 -467 
Q 2509 -467 2272 -429 
Q 2266 -192 2144 45 
Q 2470 -6 2701 -6 
Q 3053 -26 3034 339 
L 3034 2573 
L 390 2573 
L 390 3002 
L 4499 3002 
L 4499 3597 
L 1325 3597 
z
M 736 -192 
L 365 173 
Q 1651 838 2694 1632 
L 2982 1350 
Q 1920 467 736 -192 
z
M 1978 1402 
Q 1446 1862 883 2208 
L 1235 2496 
Q 1747 2189 2214 1786 
L 1978 1402 
z
" transform="scale(0.015625)"/>
     </defs>
     <use xlink:href="#NotoSansSC-5b9a"/>
     <use xlink:href="#NotoSansSC-4f4d" x="99.999985"/>
     <use xlink:href="#NotoSansSC-8fd1" x="199.999969"/>
     <use xlink:href="#NotoSansSC-671f" x="299.999954"/>
     <use xlink:href="#NotoSansSC-8bb0" x="399.999939"/>
     <use xlink:href="#NotoSansSC-5f55" x="499.999924"/>
    </g>
   </g>
   <g id="text_3">
    <!-- 有具体编号 -->
    <g style="fill: #58615c" transform="translate(183.60576 29.36202) scale(0.095 -0.095)">
     <defs>
      <path id="NotoSansSC-6709" d="M 1709 -512 
L 1709 2560 
Q 1216 2067 627 1709 
Q 435 1907 179 2042 
Q 1568 2893 2227 4064 
L 499 4064 
L 499 4506 
L 2451 4506 
Q 2637 4909 2739 5344 
L 3238 5171 
Q 3149 4832 3014 4506 
L 6003 4506 
L 6003 4064 
L 2810 4064 
Q 2618 3693 2394 3373 
L 5261 3373 
L 5261 269 
Q 5254 -454 4512 -461 
Q 4339 -461 4058 -435 
Q 4032 -147 3930 38 
Q 4250 0 4390 0 
Q 4755 -6 4749 346 
L 4749 806 
L 2208 806 
L 2208 -512 
L 1709 -512 
z
M 2208 1882 
L 2208 1210 
L 4749 1210 
L 4749 1882 
L 2208 1882 
z
M 2208 2944 
L 2208 2285 
L 4749 2285 
L 4749 2944 
L 2208 2944 
z
" transform="scale(0.015625)"/>
      <path id="NotoSansSC-5177" d="M 282 800 
L 282 1222 
L 1402 1222 
L 1402 5069 
L 4986 5069 
L 4986 1222 
L 6106 1222 
L 6106 800 
L 282 800 
z
M 1894 1798 
L 1894 1222 
L 4493 1222 
L 4493 1798 
L 1894 1798 
z
M 1894 4659 
L 1894 4090 
L 4493 4090 
L 4493 4659 
L 1894 4659 
z
M 1894 3706 
L 1894 3136 
L 4493 3136 
L 4493 3706 
L 1894 3706 
z
M 1894 2752 
L 1894 2182 
L 4493 2182 
L 4493 2752 
L 1894 2752 
z
M 5562 -525 
Q 4672 6 3712 448 
L 4058 787 
Q 4960 390 5754 -83 
L 5562 -525 
z
M 954 -518 
Q 774 -307 544 -160 
Q 1587 198 2285 755 
L 2675 461 
Q 1946 -134 954 -518 
z
" transform="scale(0.015625)"/>
      <path id="NotoSansSC-4f53" d="M 1114 -512 
L 1114 3053 
Q 819 2650 493 2330 
Q 301 2541 77 2637 
Q 1222 3770 1754 5318 
L 2195 5088 
Q 1933 4378 1587 3782 
L 1587 864 
Q 2893 1990 3424 3597 
L 2035 3597 
L 2035 4038 
L 3648 4038 
L 3648 5306 
L 4128 5306 
L 4128 4038 
L 5856 4038 
L 5856 3597 
L 4346 3597 
Q 4960 1837 6272 934 
Q 6080 813 5875 518 
Q 4646 1498 4109 3251 
L 4128 3136 
L 4128 1050 
L 5210 1050 
L 5210 621 
L 4128 621 
L 4128 -512 
L 3648 -512 
L 3648 621 
L 2579 621 
L 2579 1050 
L 3648 1050 
L 3648 3136 
L 3661 3232 
Q 3162 1562 1920 480 
Q 1760 672 1587 781 
L 1587 -512 
L 1114 -512 
z
" transform="scale(0.015625)"/>
      <path id="NotoSansSC-7f16" d="M 467 19 
L 211 448 
L 2138 1043 
L 2278 749 
Q 2534 1523 2534 2701 
L 2534 4621 
L 4064 4621 
Q 3763 4966 3526 5184 
L 3974 5325 
Q 4288 5062 4621 4621 
L 5760 4621 
L 5760 3136 
L 2989 3136 
L 2989 2611 
L 5894 2611 
L 5894 186 
Q 5901 -486 5274 -480 
Q 5107 -480 4954 -461 
Q 4928 -218 4838 -38 
Q 5050 -70 5210 -70 
Q 5485 -83 5472 243 
L 5472 1011 
L 5005 1011 
L 5005 13 
L 4646 13 
L 4646 1011 
L 4198 1011 
L 4198 -83 
L 3840 -83 
L 3840 1011 
L 3386 1011 
L 3386 -512 
L 2982 -512 
L 2982 2419 
L 2944 2106 
Q 2829 602 2259 -326 
Q 2061 -211 1824 -192 
Q 2099 224 2246 653 
L 467 19 
z
M 410 2842 
L 211 3206 
Q 410 3302 525 3507 
Q 1043 4358 1414 5286 
L 1856 5114 
Q 1427 4128 941 3347 
L 1568 3379 
Q 1754 3699 2016 4198 
L 2419 4000 
Q 1843 2906 1190 1984 
L 2150 2131 
L 2259 1734 
L 1056 1536 
Q 781 1485 621 1408 
L 403 1811 
Q 595 1894 742 2099 
Q 947 2362 1306 2950 
L 813 2918 
Q 582 2893 410 2842 
z
M 2989 4224 
L 2989 3526 
L 5312 3526 
L 5312 4224 
L 2989 4224 
z
M 5472 2221 
L 5005 2221 
L 5005 1389 
L 5472 1389 
L 5472 2221 
z
M 3386 2221 
L 3386 1389 
L 3840 1389 
L 3840 2221 
L 3386 2221 
z
M 4198 2221 
L 4198 1389 
L 4646 1389 
L 4646 2221 
L 4198 2221 
z
" transform="scale(0.015625)"/>
      <path id="NotoSansSC-53f7" d="M 1331 3322 
L 1331 5018 
L 5056 5018 
L 5056 3322 
L 1331 3322 
z
M 326 2323 
L 326 2752 
L 6061 2752 
L 6061 2323 
L 2266 2323 
L 2067 1709 
L 5203 1709 
L 5018 461 
Q 4902 -493 3923 -461 
Q 3482 -454 3091 -384 
Q 3066 -96 2944 102 
Q 3520 26 3898 19 
Q 4448 0 4512 518 
L 4627 1286 
L 1414 1286 
L 1760 2323 
L 326 2323 
z
M 1830 3738 
L 4563 3738 
L 4563 4602 
L 1830 4602 
L 1830 3738 
z
" transform="scale(0.015625)"/>
     </defs>
     <use xlink:href="#NotoSansSC-6709"/>
     <use xlink:href="#NotoSansSC-5177" x="99.999985"/>
     <use xlink:href="#NotoSansSC-4f53" x="199.999969"/>
     <use xlink:href="#NotoSansSC-7f16" x="299.999954"/>
     <use xlink:href="#NotoSansSC-53f7" x="399.999939"/>
    </g>
   </g>
   <g id="text_4">
    <!-- 2 -->
    <g style="fill: #ffffff" transform="translate(23.30295 67.54848) scale(0.08 -0.08)">
     <defs>
      <path id="NotoSansSC-32" d="M 3002 0 
L 301 0 
L 301 454 
L 1606 1766 
Q 2106 2266 2320 2598 
Q 2534 2931 2534 3309 
Q 2534 3699 2313 3910 
Q 2093 4122 1683 4122 
Q 1082 4122 531 3610 
L 531 4147 
Q 1056 4557 1754 4557 
Q 2355 4557 2697 4230 
Q 3040 3904 3040 3360 
Q 3040 2931 2803 2518 
Q 2566 2106 1952 1498 
L 915 474 
L 915 461 
L 3002 461 
L 3002 0 
z
" transform="scale(0.015625)"/>
     </defs>
     <use xlink:href="#NotoSansSC-32"/>
    </g>
   </g>
   <g id="text_5">
    <!-- 固定起止 -->
    <g style="fill: #252c29" transform="translate(50.61888 68.18598) scale(0.105 -0.105)">
     <defs>
      <path id="NotoSansSC-56fa" d="M 742 -512 
L 742 4998 
L 5658 4998 
L 5658 -512 
L 5165 -512 
L 5165 -154 
L 1235 -154 
L 1235 -512 
L 742 -512 
z
M 1235 4563 
L 1235 288 
L 5165 288 
L 5165 4563 
L 1235 4563 
z
M 1562 3283 
L 1562 3699 
L 2963 3699 
L 2963 4397 
L 3424 4397 
L 3424 3699 
L 4838 3699 
L 4838 3283 
L 3424 3283 
L 3424 2547 
L 4410 2547 
L 4410 870 
L 1984 870 
L 1984 2547 
L 2963 2547 
L 2963 3283 
L 1562 3283 
z
M 2458 1280 
L 3942 1280 
L 3942 2144 
L 2458 2144 
L 2458 1280 
z
" transform="scale(0.015625)"/>
      <path id="NotoSansSC-8d77" d="M 678 4026 
L 678 4448 
L 1779 4448 
L 1779 5299 
L 2246 5299 
L 2246 4448 
L 3162 4448 
L 3162 4026 
L 2246 4026 
L 2246 3194 
L 3296 3194 
L 3296 2771 
L 2317 2771 
L 2317 1856 
L 3181 1856 
L 3181 1440 
L 2317 1440 
L 2317 448 
Q 2912 186 3853 147 
Q 5126 83 6234 192 
Q 6093 -32 6054 -326 
Q 4947 -346 4000 -320 
Q 1997 -301 1139 845 
Q 954 134 576 -416 
Q 410 -269 160 -205 
Q 851 774 902 2291 
L 1331 2214 
Q 1312 1734 1242 1318 
Q 1530 947 1862 710 
L 1862 2771 
L 454 2771 
L 454 3194 
L 1779 3194 
L 1779 4026 
L 678 4026 
z
M 4352 685 
Q 3597 672 3610 1434 
L 3610 3206 
L 5158 3206 
L 5158 4442 
L 3533 4442 
L 3533 4851 
L 5613 4851 
L 5613 2803 
L 4064 2803 
L 4064 1504 
Q 4064 1114 4435 1114 
L 5030 1114 
Q 5427 1088 5510 1504 
Q 5549 1651 5600 1894 
Q 5734 1741 5965 1626 
Q 5926 1434 5875 1248 
Q 5709 666 5101 685 
L 4352 685 
z
" transform="scale(0.015625)"/>
      <path id="NotoSansSC-6b62" d="M 294 -262 
L 294 211 
L 1370 211 
L 1370 3942 
L 1875 3942 
L 1875 211 
L 3277 211 
L 3277 5286 
L 3795 5286 
L 3795 3200 
L 5632 3200 
L 5632 2733 
L 3795 2733 
L 3795 211 
L 6099 211 
L 6099 -262 
L 294 -262 
z
" transform="scale(0.015625)"/>
     </defs>
     <use xlink:href="#NotoSansSC-56fa"/>
     <use xlink:href="#NotoSansSC-5b9a" x="99.999985"/>
     <use xlink:href="#NotoSansSC-8d77" x="199.999969"/>
     <use xlink:href="#NotoSansSC-6b62" x="299.999954"/>
    </g>
   </g>
   <g id="text_6">
    <!-- 知道何时算结束 -->
    <g style="fill: #58615c" transform="translate(183.60576 67.93098) scale(0.095 -0.095)">
     <defs>
      <path id="NotoSansSC-77e5" d="M 3654 -186 
L 3654 4698 
L 5805 4698 
L 5805 -186 
L 5325 -186 
L 5325 269 
L 4134 269 
L 4134 -186 
L 3654 -186 
z
M 800 3046 
Q 582 3174 307 3219 
Q 1056 4083 1344 5376 
L 1811 5216 
Q 1722 4851 1587 4486 
L 3264 4486 
L 3264 4045 
L 2323 4045 
Q 2323 3974 2317 3814 
Q 2310 3123 2298 2822 
Q 2298 2797 2291 2746 
Q 2291 2688 2285 2662 
L 3354 2662 
L 3354 2221 
L 2246 2221 
Q 2202 1869 2150 1677 
L 2176 1696 
Q 2886 1037 3424 422 
L 3117 26 
Q 2554 698 2016 1216 
Q 1658 192 768 -486 
Q 525 -275 288 -205 
Q 1562 659 1766 2221 
L 378 2221 
L 378 2662 
L 1818 2662 
Q 1818 2752 1824 2835 
Q 1830 3021 1837 3693 
Q 1843 3930 1843 4045 
L 1402 4045 
Q 1133 3443 800 3046 
z
M 4134 4256 
L 4134 710 
L 5325 710 
L 5325 4256 
L 4134 4256 
z
" transform="scale(0.015625)"/>
      <path id="NotoSansSC-9053" d="M 1933 3974 
L 1933 4371 
L 3200 4371 
Q 2835 4755 2445 5101 
L 2835 5312 
Q 3238 4966 3597 4557 
L 3392 4371 
L 4134 4371 
Q 4595 4896 4826 5318 
L 5267 5152 
Q 5037 4794 4685 4371 
L 5875 4371 
L 5875 3974 
L 4141 3974 
Q 4019 3686 3891 3482 
L 5357 3482 
L 5357 602 
L 2464 602 
L 2464 3482 
L 3405 3482 
Q 3526 3674 3661 3974 
L 1933 3974 
z
M 710 -403 
L 346 -58 
Q 800 461 1197 806 
L 1197 2752 
L 358 2752 
L 358 3194 
L 1658 3194 
L 1658 806 
Q 2272 154 3744 147 
Q 4358 128 5037 141 
Q 5709 160 6157 205 
Q 6061 13 6022 -307 
Q 5510 -326 4896 -326 
Q 4320 -326 3910 -314 
Q 2163 -314 1421 416 
Q 1056 64 710 -403 
z
M 2918 2291 
L 2918 1805 
L 4909 1805 
L 4909 2291 
L 2918 2291 
z
M 2918 3117 
L 2918 2637 
L 4909 2637 
L 4909 3117 
L 2918 3117 
z
M 2918 973 
L 4909 973 
L 4909 1453 
L 2918 1453 
L 2918 973 
z
M 1472 3763 
Q 1050 4294 518 4781 
L 909 5037 
Q 1414 4576 1798 4096 
L 1472 3763 
z
" transform="scale(0.015625)"/>
      <path id="NotoSansSC-4f55" d="M 2368 1094 
L 2368 3456 
L 4294 3456 
L 4294 1094 
L 2368 1094 
z
M 2150 4301 
L 2150 4736 
L 6150 4736 
L 6150 4301 
L 5498 4301 
L 5498 429 
Q 5491 -422 4634 -429 
Q 4339 -429 4038 -390 
Q 4026 -128 3923 122 
Q 4211 58 4570 58 
Q 5024 45 5011 518 
L 5011 4301 
L 2150 4301 
z
M 1133 -518 
L 1133 3066 
Q 813 2554 518 2221 
Q 314 2426 96 2534 
Q 1107 3661 1587 5344 
L 2054 5158 
Q 1869 4570 1619 4000 
L 1619 -518 
L 1133 -518 
z
M 2810 1523 
L 3840 1523 
L 3840 3027 
L 2810 3027 
L 2810 1523 
z
" transform="scale(0.015625)"/>
      <path id="NotoSansSC-65f6" d="M 634 -90 
L 634 4851 
L 2669 4851 
L 2669 58 
L 2208 58 
L 2208 512 
L 1094 512 
L 1094 -90 
L 634 -90 
z
M 2938 3533 
L 2938 3981 
L 4819 3981 
L 4819 5293 
L 5306 5293 
L 5306 3981 
L 6131 3981 
L 6131 3533 
L 5306 3533 
L 5306 371 
Q 5299 -422 4461 -429 
Q 4256 -429 3898 -378 
Q 3891 -134 3776 115 
Q 4186 58 4378 58 
Q 4832 38 4819 493 
L 4819 3533 
L 2938 3533 
z
M 1094 2483 
L 1094 954 
L 2208 954 
L 2208 2483 
L 1094 2483 
z
M 1094 4422 
L 1094 2899 
L 2208 2899 
L 2208 4422 
L 1094 4422 
z
M 3898 1350 
Q 3571 1965 3091 2650 
L 3507 2816 
Q 3866 2330 4269 1613 
L 3898 1350 
z
" transform="scale(0.015625)"/>
      <path id="NotoSansSC-7b97" d="M 1248 1363 
L 1248 3616 
L 5165 3616 
L 5165 1363 
L 4506 1363 
L 4506 941 
L 6099 941 
L 6099 557 
L 4506 557 
L 4506 -499 
L 4019 -499 
L 4019 557 
L 2426 557 
Q 2202 -205 992 -525 
Q 858 -307 640 -160 
Q 1696 90 1907 557 
L 294 557 
L 294 941 
L 2022 941 
Q 2035 1050 2035 1178 
L 2035 1363 
L 1248 1363 
z
M 704 3603 
Q 506 3744 250 3821 
Q 1075 4454 1510 5344 
L 1946 5190 
Q 1862 5018 1760 4845 
L 3264 4845 
L 3264 4474 
L 1510 4474 
Q 1114 3936 704 3603 
z
M 3386 3712 
Q 3194 3846 2931 3891 
Q 3629 4518 3910 5338 
L 4326 5190 
Q 4269 5024 4186 4851 
L 5914 4851 
L 5914 4474 
L 3981 4474 
Q 3712 4026 3386 3712 
z
M 1722 1709 
L 4691 1709 
L 4691 2029 
L 1722 2029 
L 1722 1709 
z
M 1722 3270 
L 1722 2957 
L 4691 2957 
L 4691 3270 
L 1722 3270 
z
M 1722 2650 
L 1722 2336 
L 4691 2336 
L 4691 2650 
L 1722 2650 
z
M 2515 1171 
Q 2515 1050 2502 941 
L 4019 941 
L 4019 1363 
L 2515 1363 
L 2515 1171 
z
M 4851 3642 
Q 4557 3962 4230 4218 
L 4582 4416 
Q 4909 4166 5165 3891 
L 4851 3642 
z
M 2285 3629 
Q 2035 3910 1690 4198 
L 2042 4397 
Q 2368 4128 2586 3885 
L 2285 3629 
z
" transform="scale(0.015625)"/>
      <path id="NotoSansSC-7ed3" d="M 2835 -512 
L 2835 1978 
L 5670 1978 
L 5670 -512 
L 5203 -512 
L 5203 -96 
L 3309 -96 
L 3309 -512 
L 2835 -512 
z
M 2541 3949 
L 2541 4378 
L 4013 4378 
L 4013 5312 
L 4486 5312 
L 4486 4378 
L 5971 4378 
L 5971 3949 
L 4486 3949 
L 4486 3053 
L 5818 3053 
L 5818 2630 
L 2701 2630 
L 2701 3053 
L 4013 3053 
L 4013 3949 
L 2541 3949 
z
M 646 1312 
L 448 1728 
Q 691 1811 902 2093 
Q 1229 2522 1478 2886 
L 826 2854 
Q 640 2842 474 2790 
L 288 3162 
Q 467 3245 634 3482 
Q 1222 4429 1594 5286 
L 2029 5094 
Q 1555 4083 998 3270 
L 1747 3296 
Q 1990 3680 2182 4058 
L 2586 3872 
Q 1907 2656 1267 1875 
L 2266 1978 
L 2355 1568 
L 1094 1414 
Q 883 1389 646 1312 
z
M 3309 1562 
L 3309 320 
L 5203 320 
L 5203 1562 
L 3309 1562 
z
M 576 -224 
L 320 198 
L 2362 902 
L 2541 544 
L 576 -224 
z
" transform="scale(0.015625)"/>
      <path id="NotoSansSC-675f" d="M 2938 -512 
L 2938 1670 
Q 2048 538 614 -90 
Q 448 147 211 301 
Q 1651 832 2554 1805 
L 1094 1805 
L 1094 3552 
L 2938 3552 
L 2938 4147 
L 544 4147 
L 544 4595 
L 2938 4595 
L 2938 5312 
L 3443 5312 
L 3443 4595 
L 5850 4595 
L 5850 4147 
L 3443 4147 
L 3443 3552 
L 5286 3552 
L 5286 1805 
L 3821 1805 
Q 4685 902 6182 365 
Q 5939 198 5779 -64 
Q 4333 550 3443 1677 
L 3443 -512 
L 2938 -512 
z
M 4806 3123 
L 3443 3123 
L 3443 2253 
Q 3443 2246 3456 2234 
L 4806 2234 
L 4806 3123 
z
M 1581 2234 
L 2918 2234 
Q 2925 2234 2925 2240 
Q 2931 2246 2931 2246 
L 2938 2234 
L 2938 3123 
L 1581 3123 
L 1581 2234 
z
" transform="scale(0.015625)"/>
     </defs>
     <use xlink:href="#NotoSansSC-77e5"/>
     <use xlink:href="#NotoSansSC-9053" x="99.999985"/>
     <use xlink:href="#NotoSansSC-4f55" x="199.999969"/>
     <use xlink:href="#NotoSansSC-65f6" x="299.999954"/>
     <use xlink:href="#NotoSansSC-7b97" x="399.999939"/>
     <use xlink:href="#NotoSansSC-7ed3" x="499.999924"/>
     <use xlink:href="#NotoSansSC-675f" x="599.999908"/>
    </g>
   </g>
   <g id="text_7">
    <!-- 3 -->
    <g style="fill: #ffffff" transform="translate(23.30295 106.11744) scale(0.08 -0.08)">
     <defs>
      <path id="NotoSansSC-33" d="M 410 166 
L 410 717 
Q 870 358 1446 358 
Q 1914 358 2195 592 
Q 2477 826 2477 1222 
Q 2477 2099 1229 2099 
L 858 2099 
L 858 2534 
L 1210 2534 
Q 2317 2534 2317 3360 
Q 2317 4122 1472 4122 
Q 998 4122 582 3802 
L 582 4301 
Q 1011 4557 1600 4557 
Q 2163 4557 2502 4256 
Q 2842 3955 2842 3488 
Q 2842 2605 1946 2349 
L 1946 2336 
Q 2426 2291 2714 2000 
Q 3002 1709 3002 1267 
Q 3002 666 2566 294 
Q 2131 -77 1427 -77 
Q 787 -77 410 166 
z
" transform="scale(0.015625)"/>
     </defs>
     <use xlink:href="#NotoSansSC-33"/>
    </g>
   </g>
   <g id="text_8">
    <!-- 找到参与者 -->
    <g style="fill: #252c29" transform="translate(50.61888 106.75494) scale(0.105 -0.105)">
     <defs>
      <path id="NotoSansSC-627e" d="M 2675 2970 
L 2586 3405 
L 3642 3533 
Q 3584 4333 3584 5280 
L 4083 5318 
Q 4077 4384 4134 3597 
L 5875 3814 
L 5965 3379 
L 4179 3155 
Q 4269 2330 4410 1702 
Q 5018 2195 5389 2765 
L 5728 2438 
Q 5254 1760 4544 1216 
Q 4698 723 4883 435 
Q 5107 83 5318 90 
Q 5491 77 5600 397 
Q 5677 602 5747 979 
Q 5933 730 6131 653 
Q 6074 390 5978 128 
Q 5773 -435 5344 -429 
Q 4858 -422 4512 96 
Q 4294 422 4122 922 
Q 3456 493 2688 211 
Q 2541 448 2317 589 
Q 3258 928 3981 1395 
Q 3789 2112 3686 3091 
L 2675 2970 
z
M 422 3552 
L 422 3987 
L 1389 3987 
L 1389 5312 
L 1856 5312 
L 1856 3987 
L 2650 3987 
L 2650 3552 
L 1856 3552 
L 1856 2368 
L 2566 2688 
L 2765 2336 
L 1856 1894 
L 1856 288 
Q 1862 -461 1190 -454 
Q 1011 -454 704 -403 
Q 698 -186 576 64 
Q 941 6 1094 6 
Q 1402 -6 1389 352 
L 1389 1670 
L 518 1254 
L 230 1645 
L 1389 2163 
L 1389 3552 
L 422 3552 
z
M 5229 3962 
Q 4832 4480 4410 4877 
L 4806 5101 
Q 5229 4698 5568 4269 
L 5229 3962 
z
" transform="scale(0.015625)"/>
      <path id="NotoSansSC-5230" d="M 480 4499 
L 480 4922 
L 3571 4922 
L 3571 4499 
L 2182 4499 
L 2234 4480 
Q 1792 3731 1280 3110 
L 2790 3206 
Q 2547 3546 2298 3853 
L 2707 4019 
Q 3117 3533 3622 2771 
L 3283 2470 
Q 3168 2643 3053 2829 
L 1158 2701 
Q 877 2682 678 2630 
L 493 3034 
Q 736 3117 922 3347 
Q 1338 3859 1709 4499 
L 480 4499 
z
M 608 1440 
L 608 1875 
L 1818 1875 
L 1818 2547 
L 2291 2547 
L 2291 1875 
L 3450 1875 
L 3450 1440 
L 2291 1440 
L 2291 525 
L 3533 749 
L 3674 365 
L 512 -288 
L 320 166 
L 1818 435 
L 1818 1440 
L 608 1440 
z
M 4966 -435 
Q 4710 -435 4422 -403 
Q 4410 -134 4294 102 
Q 4653 45 4896 45 
Q 5293 38 5286 454 
L 5286 5312 
L 5766 5312 
L 5766 378 
Q 5760 -429 4966 -435 
z
M 4032 1088 
L 4032 4525 
L 4499 4525 
L 4499 1088 
L 4032 1088 
z
" transform="scale(0.015625)"/>
      <path id="NotoSansSC-53c2" d="M 1370 3693 
L 1165 4083 
Q 1427 4141 1645 4333 
Q 2259 4819 2739 5382 
L 3181 5184 
Q 2611 4570 2086 4160 
L 4307 4237 
Q 3898 4602 3642 4787 
L 3994 5030 
Q 4627 4570 5325 3878 
L 5062 3526 
Q 4979 3610 4755 3827 
Q 4915 3674 4710 3866 
L 3219 3808 
Q 3123 3539 2982 3296 
L 5901 3296 
L 5901 2886 
L 4192 2886 
Q 4928 2150 6246 1811 
Q 6016 1632 5869 1382 
Q 4448 1914 3642 2886 
L 2726 2886 
Q 2016 1901 582 1306 
Q 448 1478 186 1638 
Q 1421 2074 2144 2886 
L 442 2886 
L 442 3296 
L 2458 3296 
Q 2605 3526 2714 3789 
L 1907 3763 
Q 1587 3750 1370 3693 
z
M 1376 -531 
Q 1242 -301 1043 -128 
Q 3437 64 4806 1318 
L 5229 1082 
Q 3840 -262 1376 -531 
z
M 1766 467 
Q 1645 640 1446 794 
Q 3110 1133 4058 1946 
L 4429 1709 
Q 3341 787 1766 467 
z
M 1715 1331 
Q 1594 1510 1408 1638 
Q 2733 1984 3405 2566 
L 3744 2310 
Q 2950 1664 1715 1331 
z
" transform="scale(0.015625)"/>
      <path id="NotoSansSC-4e0e" d="M 4448 -461 
Q 4179 -461 3782 -410 
Q 3750 -96 3654 102 
Q 4090 26 4390 26 
Q 4992 13 5011 653 
L 5107 2451 
L 1370 2451 
L 1613 5306 
L 2125 5274 
L 2054 4448 
L 5779 4448 
L 5779 4000 
L 2016 4000 
L 1920 2906 
L 5645 2906 
L 5517 582 
Q 5459 -461 4448 -461 
z
M 416 979 
L 416 1434 
L 4538 1434 
L 4538 979 
L 416 979 
z
" transform="scale(0.015625)"/>
      <path id="NotoSansSC-8005" d="M 1075 4192 
L 1075 4614 
L 2682 4614 
L 2682 5312 
L 3181 5312 
L 3181 4614 
L 4646 4614 
L 4646 4198 
Q 4973 4544 5222 4922 
L 5651 4659 
Q 5190 4032 4512 3405 
L 6099 3405 
L 6099 2976 
L 4006 2976 
Q 3571 2624 3098 2330 
L 5152 2330 
L 5152 -512 
L 4659 -512 
L 4659 -205 
L 2118 -205 
L 2118 -512 
L 1626 -512 
L 1626 1478 
Q 973 1165 499 1011 
Q 365 1235 115 1389 
Q 806 1613 1626 2016 
L 1626 2330 
L 2202 2330 
Q 2733 2630 3226 2976 
L 410 2976 
L 410 3405 
L 2682 3405 
L 2682 4192 
L 1075 4192 
z
M 2118 870 
L 2118 198 
L 4659 198 
L 4659 870 
L 2118 870 
z
M 2317 1926 
Q 2221 1869 2118 1811 
L 2118 1261 
L 4659 1261 
L 4659 1926 
L 2317 1926 
z
M 3789 3405 
Q 4256 3782 4640 4192 
L 3181 4192 
L 3181 3405 
L 3789 3405 
z
" transform="scale(0.015625)"/>
     </defs>
     <use xlink:href="#NotoSansSC-627e"/>
     <use xlink:href="#NotoSansSC-5230" x="99.999985"/>
     <use xlink:href="#NotoSansSC-53c2" x="199.999969"/>
     <use xlink:href="#NotoSansSC-4e0e" x="299.999954"/>
     <use xlink:href="#NotoSansSC-8005" x="399.999939"/>
    </g>
   </g>
   <g id="text_9">
    <!-- 核对各次交接 -->
    <g style="fill: #58615c" transform="translate(183.60576 106.49994) scale(0.095 -0.095)">
     <defs>
      <path id="NotoSansSC-6838" d="M 2560 3974 
L 2560 4397 
L 4371 4397 
Q 3981 4851 3597 5190 
L 4064 5344 
Q 4506 4966 4794 4602 
L 4448 4397 
L 6074 4397 
L 6074 3974 
L 4422 3974 
Q 4006 3328 3488 2778 
L 4634 2803 
Q 4922 3168 5114 3552 
L 5498 3290 
Q 4518 1658 2694 787 
Q 2528 979 2285 1094 
Q 3469 1606 4275 2406 
L 3322 2368 
Q 3110 2355 2880 2310 
L 2694 2726 
Q 2899 2778 3162 3046 
Q 3571 3475 3891 3974 
L 2560 3974 
z
M 371 3526 
L 371 3949 
L 1274 3949 
L 1274 5299 
L 1728 5299 
L 1728 3949 
L 2445 3949 
L 2445 3526 
L 1728 3526 
L 1728 2842 
L 1933 2931 
Q 2349 2419 2605 2003 
L 2298 1715 
Q 2010 2195 1728 2586 
L 1728 -506 
L 1274 -506 
L 1274 2509 
Q 954 1683 525 1120 
Q 314 1299 128 1363 
Q 934 2323 1222 3526 
L 371 3526 
z
M 5869 -506 
Q 5376 32 4678 672 
Q 3834 -58 2682 -531 
Q 2509 -307 2304 -186 
Q 4480 653 5613 2464 
L 5965 2182 
Q 5536 1504 5005 979 
Q 5690 403 6150 -102 
L 5869 -506 
z
" transform="scale(0.015625)"/>
      <path id="NotoSansSC-5bf9" d="M 2765 269 
Q 2310 902 1926 1395 
Q 1440 493 653 -205 
Q 442 -26 173 58 
Q 1062 742 1594 1805 
Q 1043 2496 474 3117 
L 870 3366 
Q 1293 2906 1811 2285 
Q 2163 3187 2234 4192 
L 486 4192 
L 486 4646 
L 2714 4646 
L 2714 4237 
Q 2598 2906 2157 1869 
Q 2650 1254 3072 659 
L 2765 269 
z
M 2912 3526 
L 2912 3981 
L 4819 3981 
L 4819 5293 
L 5312 5293 
L 5312 3981 
L 6144 3981 
L 6144 3526 
L 5312 3526 
L 5312 339 
Q 5299 -454 4480 -461 
Q 4224 -461 3917 -429 
Q 3917 -154 3782 77 
Q 4173 26 4390 19 
Q 4832 6 4819 448 
L 4819 3526 
L 2912 3526 
z
M 3904 1357 
Q 3539 1990 3059 2656 
L 3488 2835 
Q 3891 2310 4275 1645 
L 3904 1357 
z
" transform="scale(0.015625)"/>
      <path id="NotoSansSC-5404" d="M 474 1747 
Q 352 2010 173 2163 
Q 1722 2426 2829 3008 
Q 2304 3360 1843 3821 
Q 1478 3418 1082 3117 
Q 890 3302 653 3405 
Q 1792 4237 2381 5382 
L 2810 5158 
Q 2694 4947 2554 4730 
L 5024 4730 
L 5024 4365 
Q 4557 3616 3693 3021 
Q 4742 2509 6208 2342 
Q 5997 2144 5901 1850 
Q 4346 2125 3251 2746 
Q 2074 2067 474 1747 
z
M 1408 -506 
L 1408 1882 
L 5005 1882 
L 5005 -506 
L 4525 -506 
L 4525 -154 
L 1894 -154 
L 1894 -506 
L 1408 -506 
z
M 1894 1459 
L 1894 275 
L 4525 275 
L 4525 1459 
L 1894 1459 
z
M 2259 4314 
Q 2240 4288 2208 4243 
Q 2189 4218 2112 4128 
Q 2643 3610 3245 3258 
Q 3936 3699 4435 4314 
L 2259 4314 
z
" transform="scale(0.015625)"/>
      <path id="NotoSansSC-6b21" d="M 5792 -416 
Q 4410 224 3904 1587 
Q 3450 122 1914 -512 
Q 1715 -262 1498 -141 
Q 3347 582 3565 2330 
Q 3616 2752 3603 3354 
L 4102 3309 
Q 4102 2867 4064 2470 
Q 4461 691 6208 6 
Q 5939 -173 5792 -416 
z
M 5325 2714 
Q 5082 2778 4832 2758 
L 5261 3904 
L 3187 3904 
Q 2893 3174 2515 2650 
Q 2259 2784 2016 2803 
Q 2854 3955 3098 5363 
L 3584 5210 
Q 3488 4768 3341 4333 
L 5792 4333 
L 5792 3949 
L 5325 2714 
z
M 704 211 
L 275 557 
Q 1075 1434 1645 2400 
L 2003 2106 
Q 1427 1037 704 211 
z
M 1619 3270 
Q 1082 3859 410 4416 
L 826 4698 
Q 1472 4173 1933 3661 
L 1619 3270 
z
" transform="scale(0.015625)"/>
      <path id="NotoSansSC-4ea4" d="M 5728 -467 
Q 4237 -128 3238 666 
Q 2298 -141 736 -525 
Q 582 -282 326 -109 
Q 1990 275 2867 992 
Q 2234 1606 1805 2470 
L 2234 2701 
Q 2605 1888 3219 1325 
Q 3757 1907 4051 2784 
L 4499 2566 
Q 4173 1658 3597 1018 
Q 4582 288 6131 38 
Q 5856 -166 5728 -467 
z
M 550 3878 
L 550 4333 
L 3232 4333 
Q 3014 4634 2464 5178 
L 2989 5344 
Q 3462 4890 3699 4563 
L 3264 4333 
L 5875 4333 
L 5875 3878 
L 550 3878 
z
M 1037 2035 
Q 838 2240 602 2342 
Q 1530 2918 2163 3750 
L 2573 3494 
Q 1920 2624 1037 2035 
z
M 5376 2074 
Q 4525 2912 3770 3456 
L 4160 3744 
Q 4928 3194 5651 2502 
L 5376 2074 
z
" transform="scale(0.015625)"/>
      <path id="NotoSansSC-63a5" d="M 2285 1568 
L 2285 1984 
L 3386 1984 
Q 3616 2394 3744 2694 
L 4166 2515 
Q 4051 2253 3898 1984 
L 6106 1984 
L 6106 1568 
L 5331 1568 
Q 5133 928 4736 493 
Q 5402 205 5875 -38 
L 5754 -499 
Q 5005 -115 4365 173 
Q 3680 -320 2387 -518 
Q 2278 -262 2093 -102 
Q 3206 26 3859 390 
Q 3213 672 2662 877 
Q 2918 1197 3142 1568 
L 2285 1568 
z
M 339 3622 
L 339 4032 
L 1139 4032 
L 1139 5306 
L 1594 5306 
L 1594 4032 
L 2272 4032 
L 2272 3622 
L 1594 3622 
L 1594 2502 
L 2163 2797 
L 2374 2477 
L 1594 2029 
L 1594 243 
Q 1606 -442 915 -429 
Q 742 -429 474 -403 
Q 467 -179 352 64 
Q 646 26 826 26 
Q 1146 19 1139 320 
L 1139 1766 
L 474 1389 
L 173 1766 
L 1139 2266 
L 1139 3622 
L 339 3622 
z
M 2368 2765 
L 2368 3187 
L 3533 3187 
Q 3264 3565 2938 3930 
L 3360 4102 
Q 3706 3731 3923 3398 
L 3654 3187 
L 4314 3187 
Q 4755 3731 5011 4179 
L 5427 3987 
Q 5190 3597 4870 3187 
L 6003 3187 
L 6003 2765 
L 2368 2765 
z
M 2490 4198 
L 2490 4614 
L 4051 4614 
Q 3827 4947 3603 5216 
L 4070 5338 
Q 4346 5005 4570 4614 
L 5856 4614 
L 5856 4198 
L 2490 4198 
z
M 3328 1056 
Q 3910 845 4269 691 
Q 4646 1037 4851 1568 
L 3661 1568 
Q 3475 1267 3328 1056 
z
" transform="scale(0.015625)"/>
     </defs>
     <use xlink:href="#NotoSansSC-6838"/>
     <use xlink:href="#NotoSansSC-5bf9" x="99.999985"/>
     <use xlink:href="#NotoSansSC-5404" x="199.999969"/>
     <use xlink:href="#NotoSansSC-6b21" x="299.999954"/>
     <use xlink:href="#NotoSansSC-4ea4" x="399.999939"/>
     <use xlink:href="#NotoSansSC-63a5" x="499.999924"/>
    </g>
   </g>
   <g id="text_10">
    <!-- 4 -->
    <g style="fill: #ffffff" transform="translate(23.30295 144.6864) scale(0.08 -0.08)">
     <defs>
      <path id="NotoSansSC-34" d="M 3232 1190 
L 2656 1190 
L 2656 0 
L 2150 0 
L 2150 1190 
L 45 1190 
L 45 1523 
L 2035 4480 
L 2656 4480 
L 2656 1606 
L 3232 1606 
L 3232 1190 
z
M 2150 1606 
L 2150 3546 
Q 2150 3750 2163 4006 
L 2150 4006 
Q 2106 3891 1978 3661 
L 602 1606 
L 2150 1606 
z
" transform="scale(0.015625)"/>
     </defs>
     <use xlink:href="#NotoSansSC-34"/>
    </g>
   </g>
   <g id="text_11">
    <!-- 补充异常样本 -->
    <g style="fill: #252c29" transform="translate(50.61888 145.3239) scale(0.105 -0.105)">
     <defs>
      <path id="NotoSansSC-8865" d="M 1523 -512 
L 1523 2010 
Q 1050 1549 595 1229 
Q 435 1402 166 1517 
Q 1562 2458 2202 3603 
L 448 3603 
L 448 4045 
L 2752 4045 
L 2752 3680 
Q 2470 3130 2010 2554 
L 2010 2432 
Q 2099 2368 2291 2221 
Q 2355 2176 2387 2150 
Q 2726 2534 2950 2925 
L 3277 2701 
Q 3040 2310 2682 1907 
Q 2931 1709 3258 1408 
L 3008 1050 
Q 2483 1549 2010 1933 
L 2010 -512 
L 1523 -512 
z
M 5875 1478 
Q 5338 2118 4384 3027 
L 4384 -512 
L 3878 -512 
L 3878 5306 
L 4384 5306 
L 4384 3219 
L 4678 3392 
Q 5677 2509 6208 1856 
L 5875 1478 
z
M 1984 4154 
Q 1594 4659 1114 5094 
L 1562 5325 
Q 2042 4883 2368 4467 
L 1984 4154 
z
" transform="scale(0.015625)"/>
      <path id="NotoSansSC-5145" d="M 461 4045 
L 461 4493 
L 3162 4493 
Q 2835 4851 2464 5190 
L 2970 5357 
Q 3373 5024 3706 4621 
L 3501 4493 
L 5926 4493 
L 5926 4045 
L 3238 4045 
Q 2643 3341 1901 2662 
L 4435 2746 
Q 4115 3046 3674 3411 
L 4064 3667 
Q 4794 3072 5568 2291 
L 5274 1907 
Q 5082 2112 4870 2323 
L 4109 2298 
L 4109 486 
Q 4115 128 4442 122 
L 5133 122 
Q 5478 109 5568 512 
Q 5619 755 5651 973 
Q 5856 774 6080 698 
Q 6042 493 5997 326 
Q 5837 -371 5197 -346 
L 4371 -346 
Q 3622 -339 3622 435 
L 3622 2278 
L 2752 2253 
L 2746 1914 
Q 2707 45 659 -493 
Q 550 -262 320 -64 
Q 2240 371 2266 1946 
L 2272 2234 
L 1664 2214 
Q 1318 2208 1114 2144 
L 909 2573 
Q 1197 2630 1446 2848 
Q 1965 3309 2618 4045 
L 461 4045 
z
" transform="scale(0.015625)"/>
      <path id="NotoSansSC-5f02" d="M 1907 2298 
Q 1094 2278 1120 2995 
L 1120 5030 
L 5101 5030 
L 5101 3450 
L 1619 3450 
L 1619 3040 
Q 1600 2720 1958 2733 
L 4941 2733 
Q 5338 2714 5427 3098 
Q 5498 3322 5542 3565 
Q 5741 3379 5952 3283 
Q 5907 3104 5843 2906 
Q 5664 2266 4998 2298 
L 1907 2298 
z
M 294 1056 
L 294 1485 
L 1971 1485 
L 1971 2093 
L 2477 2093 
L 2477 1485 
L 4154 1485 
L 4154 2093 
L 4653 2093 
L 4653 1485 
L 6099 1485 
L 6099 1056 
L 4653 1056 
L 4653 -480 
L 4154 -480 
L 4154 1056 
L 2451 1056 
Q 2259 -77 934 -589 
Q 768 -358 518 -224 
Q 1779 211 1933 1056 
L 294 1056 
z
M 1619 4608 
L 1619 3872 
L 4602 3872 
L 4602 4608 
L 1619 4608 
z
" transform="scale(0.015625)"/>
      <path id="NotoSansSC-5e38" d="M 1574 1997 
L 1574 3354 
L 4813 3354 
L 4813 1997 
L 3437 1997 
L 3437 1485 
L 5382 1485 
L 5382 621 
Q 5376 -83 4653 -90 
Q 4435 -90 4237 -45 
Q 4218 198 4122 390 
Q 4397 333 4570 333 
Q 4909 326 4902 653 
L 4902 1088 
L 3437 1088 
L 3437 -512 
L 2938 -512 
L 2938 1088 
L 1517 1088 
L 1517 -83 
L 1037 -83 
L 1037 1485 
L 2938 1485 
L 2938 1997 
L 1574 1997 
z
M 512 3021 
L 512 4211 
L 2944 4211 
L 2944 5325 
L 3437 5325 
L 3437 4211 
L 5869 4211 
L 5869 3021 
L 5382 3021 
L 5382 3834 
L 1005 3834 
L 1005 3021 
L 512 3021 
z
M 2067 2368 
L 4314 2368 
L 4314 2976 
L 2067 2976 
L 2067 2368 
z
M 4352 4230 
Q 4192 4390 3987 4480 
Q 4422 4755 4909 5254 
L 5267 4992 
Q 4864 4570 4352 4230 
z
M 2042 4237 
Q 1562 4685 1069 4992 
L 1453 5242 
Q 1894 4973 2336 4557 
L 2042 4237 
z
" transform="scale(0.015625)"/>
      <path id="NotoSansSC-6837" d="M 2752 3667 
L 2752 4096 
L 3731 4096 
Q 3450 4525 2957 5120 
L 3373 5293 
Q 3686 4941 4090 4365 
L 3744 4096 
L 4429 4096 
Q 4954 4762 5216 5312 
L 5651 5133 
Q 5453 4742 4947 4096 
L 5914 4096 
L 5914 3667 
L 4570 3667 
L 4570 2771 
L 5702 2771 
L 5702 2336 
L 4570 2336 
L 4570 1376 
L 6144 1376 
L 6144 947 
L 4570 947 
L 4570 -512 
L 4096 -512 
L 4096 947 
L 2528 947 
L 2528 1376 
L 4096 1376 
L 4096 2336 
L 2970 2336 
L 2970 2771 
L 4096 2771 
L 4096 3667 
L 2752 3667 
z
M 384 3462 
L 384 3891 
L 1363 3891 
L 1363 5299 
L 1830 5299 
L 1830 3891 
L 2592 3891 
L 2592 3462 
L 1830 3462 
L 1830 2822 
L 2016 2906 
Q 2451 2362 2701 1952 
L 2394 1658 
Q 2138 2067 1830 2490 
L 1830 -512 
L 1363 -512 
L 1363 2470 
Q 1024 1517 582 998 
Q 390 1184 166 1248 
Q 1005 2182 1312 3462 
L 384 3462 
z
" transform="scale(0.015625)"/>
      <path id="NotoSansSC-672c" d="M 582 3674 
L 582 4134 
L 2938 4134 
L 2938 5312 
L 3443 5312 
L 3443 4134 
L 5811 4134 
L 5811 3674 
L 3706 3674 
Q 4486 1734 6176 826 
Q 5901 678 5696 448 
Q 4134 1446 3424 3405 
L 3443 3264 
L 3443 1114 
L 4698 1114 
L 4698 672 
L 3443 672 
L 3443 -512 
L 2938 -512 
L 2938 672 
L 1664 672 
L 1664 1114 
L 2938 1114 
L 2938 3264 
L 2950 3373 
Q 2182 1421 646 410 
Q 493 582 198 717 
Q 1843 1760 2682 3674 
L 582 3674 
z
" transform="scale(0.015625)"/>
     </defs>
     <use xlink:href="#NotoSansSC-8865"/>
     <use xlink:href="#NotoSansSC-5145" x="99.999985"/>
     <use xlink:href="#NotoSansSC-5f02" x="199.999969"/>
     <use xlink:href="#NotoSansSC-5e38" x="299.999954"/>
     <use xlink:href="#NotoSansSC-6837" x="399.999939"/>
     <use xlink:href="#NotoSansSC-672c" x="499.999924"/>
    </g>
   </g>
   <g id="text_12">
    <!-- 寻找会改变路径的条件 -->
    <g style="fill: #58615c" transform="translate(183.60576 145.0689) scale(0.095 -0.095)">
     <defs>
      <path id="NotoSansSC-5bfb" d="M 1184 3558 
L 1184 3974 
L 4774 3974 
L 4774 4589 
L 992 4589 
L 992 5011 
L 5267 5011 
L 5267 2509 
L 4659 2509 
L 4659 1875 
L 6106 1875 
L 6106 1434 
L 4659 1434 
L 4659 288 
Q 4672 -486 3942 -474 
Q 3622 -474 3354 -435 
Q 3322 -173 3206 51 
Q 3629 -13 3808 -13 
Q 4166 -26 4154 339 
L 4154 1434 
L 288 1434 
L 288 1875 
L 4154 1875 
L 4154 2509 
L 979 2509 
L 979 2931 
L 4774 2931 
L 4774 3558 
L 1184 3558 
z
M 2394 160 
Q 1965 621 1408 1062 
L 1824 1318 
Q 2317 954 2752 506 
L 2394 160 
z
" transform="scale(0.015625)"/>
      <path id="NotoSansSC-4f1a" d="M 659 1510 
L 659 1952 
L 5702 1952 
L 5702 1510 
L 2938 1510 
L 3117 1408 
Q 2624 742 2029 166 
L 4352 301 
Q 4134 557 3706 992 
L 4122 1216 
Q 4864 499 5459 -250 
L 5082 -563 
Q 4922 -352 4717 -115 
L 1779 -301 
Q 1478 -320 1216 -390 
L 1030 45 
Q 1312 122 1581 365 
Q 2086 838 2579 1510 
L 659 1510 
z
M 5882 2720 
Q 4288 3283 3187 4608 
Q 2099 3277 550 2624 
Q 378 2854 141 3002 
Q 2221 3846 3123 5408 
L 3565 5190 
Q 3552 5165 3526 5120 
Q 3482 5030 3450 4979 
Q 4646 3610 6278 3174 
Q 6029 2995 5882 2720 
z
M 1734 2707 
L 1734 3142 
L 4634 3142 
L 4634 2707 
L 1734 2707 
z
" transform="scale(0.015625)"/>
      <path id="NotoSansSC-6539" d="M 3078 1984 
Q 2874 2157 2637 2208 
Q 3520 3475 3814 5350 
L 4288 5184 
Q 4192 4646 4038 4102 
L 5990 4102 
L 5990 3661 
L 5421 3661 
Q 5299 1984 4666 1056 
Q 5312 326 6278 -51 
Q 6054 -192 5856 -474 
Q 4934 26 4365 672 
Q 3770 -13 2624 -531 
Q 2451 -294 2182 -179 
Q 3424 314 4058 1056 
Q 3629 1651 3354 2432 
Q 3219 2189 3078 1984 
z
M 749 -346 
L 480 77 
Q 646 243 634 576 
L 634 2938 
L 2246 2938 
L 2246 4390 
L 544 4390 
L 544 4832 
L 2720 4832 
L 2720 2496 
L 1101 2496 
L 1101 480 
L 2688 1306 
L 2957 960 
L 1235 6 
Q 986 -122 749 -346 
z
M 3891 3661 
Q 3750 3258 3622 2970 
Q 3917 2067 4352 1453 
Q 4877 2278 4960 3661 
L 3891 3661 
z
" transform="scale(0.015625)"/>
      <path id="NotoSansSC-53d8" d="M 5696 -499 
Q 4205 -275 3194 262 
Q 2170 -301 698 -544 
Q 557 -275 346 -122 
Q 1747 96 2707 550 
Q 1990 1037 1510 1702 
L 1766 1850 
L 1120 1850 
L 1120 2291 
L 4973 2291 
L 4973 1920 
Q 4480 1107 3654 538 
Q 4627 90 6029 -58 
Q 5818 -243 5696 -499 
z
M 480 4122 
L 480 4570 
L 3110 4570 
Q 2835 4902 2496 5203 
L 2970 5434 
Q 3315 5114 3610 4749 
L 3379 4570 
L 5888 4570 
L 5888 4122 
L 4173 4122 
L 4173 2554 
L 3686 2554 
L 3686 4122 
L 2707 4122 
L 2707 2554 
L 2214 2554 
L 2214 4122 
L 480 4122 
z
M 4339 1850 
L 1990 1850 
Q 2477 1216 3174 794 
Q 3904 1235 4339 1850 
z
M 602 2285 
L 326 2669 
Q 1062 3194 1594 3802 
L 1901 3469 
Q 1306 2790 602 2285 
z
M 5792 2362 
Q 5120 3021 4467 3507 
L 4838 3782 
Q 5408 3373 6048 2765 
L 5792 2362 
z
" transform="scale(0.015625)"/>
      <path id="NotoSansSC-8def" d="M 2995 3283 
Q 2816 3456 2630 3533 
L 2630 3046 
L 1965 3046 
L 1965 2157 
L 2630 2157 
L 2630 1754 
L 1965 1754 
L 1965 634 
L 2669 826 
L 2835 448 
L 384 -282 
L 173 141 
L 634 269 
L 634 2426 
L 1056 2426 
L 1056 384 
L 1523 512 
L 1523 3046 
L 672 3046 
L 672 4947 
L 2630 4947 
L 2630 3565 
Q 3341 4288 3750 5338 
L 4166 5126 
Q 4096 4915 3981 4685 
L 5677 4685 
L 5677 4333 
Q 5312 3590 4704 3008 
Q 5376 2566 6272 2323 
Q 6080 2150 5952 1894 
Q 5030 2202 4346 2701 
Q 3718 2221 2893 1894 
Q 2771 2106 2554 2240 
Q 3302 2496 3981 2995 
Q 3635 3302 3360 3686 
Q 3149 3424 2995 3283 
z
M 3072 -512 
L 3072 1850 
L 5555 1850 
L 5555 -512 
L 5088 -512 
L 5088 -128 
L 3546 -128 
L 3546 -512 
L 3072 -512 
z
M 3546 1434 
L 3546 288 
L 5088 288 
L 5088 1434 
L 3546 1434 
z
M 1107 3443 
L 2189 3443 
L 2189 4544 
L 1107 4544 
L 1107 3443 
z
M 5126 4269 
L 3757 4269 
Q 3686 4154 3610 4038 
Q 3955 3584 4339 3277 
Q 4883 3763 5126 4269 
z
" transform="scale(0.015625)"/>
      <path id="NotoSansSC-5f84" d="M 2579 1523 
L 2579 1952 
L 5747 1952 
L 5747 1523 
L 4403 1523 
L 4403 141 
L 6106 141 
L 6106 -301 
L 2234 -301 
L 2234 141 
L 3917 141 
L 3917 1523 
L 2579 1523 
z
M 6022 2291 
Q 5299 2758 4294 3283 
Q 3469 2662 2470 2291 
Q 2336 2490 2112 2624 
Q 4077 3366 4909 4525 
L 2598 4525 
L 2598 4954 
L 5498 4954 
L 5498 4576 
Q 5178 4051 4659 3578 
Q 5562 3123 6189 2733 
L 6022 2291 
z
M 1210 -512 
L 1210 2086 
Q 909 1779 563 1504 
Q 365 1722 147 1824 
Q 1254 2675 1933 3846 
L 2285 3520 
Q 2042 3085 1690 2643 
L 1690 -512 
L 1210 -512 
z
M 698 3405 
Q 506 3578 243 3674 
Q 1222 4461 1722 5344 
L 2112 5050 
Q 1530 4109 698 3405 
z
" transform="scale(0.015625)"/>
      <path id="NotoSansSC-7684" d="M 4864 -448 
Q 4627 -448 4352 -422 
Q 4333 -160 4205 77 
Q 4557 13 4794 13 
Q 5299 13 5318 589 
L 5408 3878 
L 3987 3878 
Q 3693 3283 3354 2848 
Q 3155 2976 2893 3014 
L 2893 -301 
L 2432 -301 
L 2432 198 
L 1165 198 
L 1165 -429 
L 698 -429 
L 698 4243 
L 1344 4243 
Q 1677 4858 1811 5325 
L 2266 5165 
Q 2093 4672 1869 4243 
L 2893 4243 
L 2893 3021 
Q 3642 3968 4045 5344 
L 4493 5158 
Q 4358 4736 4192 4320 
L 5888 4320 
L 5792 518 
Q 5773 -454 4864 -448 
z
M 1165 2029 
L 1165 640 
L 2432 640 
L 2432 2029 
L 1165 2029 
z
M 1165 3802 
L 1165 2445 
L 2432 2445 
L 2432 3802 
L 1165 3802 
z
M 4320 1280 
Q 3872 1971 3411 2490 
L 3808 2707 
Q 4198 2304 4659 1606 
L 4320 1280 
z
" transform="scale(0.015625)"/>
      <path id="NotoSansSC-6761" d="M 557 2022 
Q 442 2285 269 2451 
Q 1779 2650 2746 3104 
Q 2278 3411 1850 3821 
Q 1485 3418 1088 3117 
Q 902 3302 659 3405 
Q 1798 4230 2394 5382 
L 2810 5158 
Q 2707 4960 2573 4755 
L 4954 4755 
L 4954 4384 
Q 4448 3616 3686 3110 
Q 4634 2682 6138 2534 
Q 5926 2336 5850 2074 
Q 4224 2310 3219 2829 
Q 2195 2298 557 2022 
z
M 934 1414 
L 934 1843 
L 2982 1843 
L 2982 2387 
L 3482 2387 
L 3482 1843 
L 5446 1843 
L 5446 1414 
L 3482 1414 
L 3482 205 
Q 3469 -454 2778 -467 
Q 2579 -467 2310 -442 
Q 2291 -186 2182 38 
Q 2515 0 2694 0 
Q 2989 -6 2982 294 
L 2982 1414 
L 934 1414 
z
M 2278 4333 
Q 2259 4307 2227 4262 
Q 2208 4237 2131 4147 
Q 2643 3674 3206 3354 
Q 3859 3744 4339 4333 
L 2278 4333 
z
M 864 -294 
Q 704 -102 448 19 
Q 1376 486 2003 1178 
L 2381 909 
Q 1728 192 864 -294 
z
M 5638 -256 
Q 4915 314 4006 851 
L 4320 1178 
Q 5133 698 5824 179 
L 5638 -256 
z
" transform="scale(0.015625)"/>
      <path id="NotoSansSC-4ef6" d="M 2029 1568 
L 2029 2016 
L 3974 2016 
L 3974 3475 
L 3014 3475 
Q 2835 2995 2566 2547 
Q 2336 2656 2067 2656 
Q 2694 3584 2912 4851 
L 3360 4704 
Q 3283 4294 3162 3910 
L 3974 3910 
L 3974 5306 
L 4467 5306 
L 4467 3910 
L 5830 3910 
L 5830 3475 
L 4467 3475 
L 4467 2016 
L 6144 2016 
L 6144 1568 
L 4467 1568 
L 4467 -512 
L 3974 -512 
L 3974 1568 
L 2029 1568 
z
M 1139 -506 
L 1139 3053 
Q 819 2579 538 2298 
Q 358 2490 109 2579 
Q 1171 3699 1658 5350 
L 2125 5114 
Q 1946 4525 1619 3885 
L 1619 -506 
L 1139 -506 
z
" transform="scale(0.015625)"/>
     </defs>
     <use xlink:href="#NotoSansSC-5bfb"/>
     <use xlink:href="#NotoSansSC-627e" x="99.999985"/>
     <use xlink:href="#NotoSansSC-4f1a" x="199.999969"/>
     <use xlink:href="#NotoSansSC-6539" x="299.999954"/>
     <use xlink:href="#NotoSansSC-53d8" x="399.999939"/>
     <use xlink:href="#NotoSansSC-8def" x="499.999924"/>
     <use xlink:href="#NotoSansSC-5f84" x="599.999908"/>
     <use xlink:href="#NotoSansSC-7684" x="699.999893"/>
     <use xlink:href="#NotoSansSC-6761" x="799.999878"/>
     <use xlink:href="#NotoSansSC-4ef6" x="899.999863"/>
    </g>
   </g>
  </g>
 </g>
 <defs>
  <clipPath id="p457bd88407">
   <rect x="7.488" y="6.048" width="359.424" height="160.704"/>
  </clipPath>
 </defs>
</svg>
