<?xml version='1.0' encoding='utf-8'?>
<svg xmlns="http://www.w3.org/2000/svg" xmlns:dc="http://purl.org/dc/elements/1.1/" xmlns:ns2="http://creativecommons.org/ns#" xmlns:ns4="http://www.w3.org/1999/xlink" xmlns:rdf="http://www.w3.org/1999/02/22-rdf-syntax-ns#" width="504pt" height="230.4pt" viewBox="0 0 504 230.4" version="1.1">
 <metadata>
  <rdf:RDF>
   <ns2:Work>
    <dc:type rdf:resource="http://purl.org/dc/dcmitype/StillImage" />
    <dc:date>2026-09-11T10:56:21.696718</dc:date>
    <dc:format>image/svg+xml</dc:format>
    <dc:creator>
     <ns2:Agent>
      <dc:title>Matplotlib v3.9.4, https://matplotlib.org/</dc:title>
     </ns2:Agent>
    </dc:creator>
   </ns2:Work>
  </rdf:RDF>
 </metadata>
 <defs>
  <style type="text/css">*{stroke-linejoin: round; stroke-linecap: round}</style>
 </defs>
 <g id="figure_1">
  <g id="patch_1">
   <path d="M 0 230.4  L 504 230.4  L 504 0  L 0 0  z " style="fill: #ffffff" />
  </g>
  <g id="axes_1">
   <g id="patch_2">
    <path d="M 115.92 177.408  L 473.76 177.408  L 473.76 34.56  L 115.92 34.56  z " style="fill: #ffffff" />
   </g>
   <g id="patch_3">
    <path d="M 115.92 57.663323  L 204.275556 57.663323  L 204.275556 41.053091  L 115.92 41.053091  z " clip-path="url(#pd9af7d1f66)" style="fill: #58615c" />
   </g>
   <g id="patch_4">
    <path d="M 204.275556 95.413852  L 336.808889 95.413852  L 336.808889 78.803619  L 204.275556 78.803619  z " clip-path="url(#pd9af7d1f66)" style="fill: #24564b" />
   </g>
   <g id="patch_5">
    <path d="M 336.808889 133.164381  L 469.342222 133.164381  L 469.342222 116.554148  L 336.808889 116.554148  z " clip-path="url(#pd9af7d1f66)" style="fill: #252c29" />
   </g>
   <g id="patch_6">
    <path d="M 115.92 170.914909  L 469.342222 170.914909  L 469.342222 154.304677  L 115.92 154.304677  z " clip-path="url(#pd9af7d1f66)" style="fill: #98522e" />
   </g>
   <g id="matplotlib.axis_1">
    <g id="xtick_1">
     <g id="line2d_1" />
     <g id="text_1">
      <!-- 开始 -->
      <g transform="translate(105.130773 188.892028) scale(0.107892 -0.107892)">
       <defs>
        <path id="NotoSansSC-5f00" d="M 800 4442  L 800 4915  L 5606 4915  L 5606 4442  L 4544 4442  L 4544 2790  L 6106 2790  L 6106 2317  L 4544 2317  L 4544 -493  L 4026 -493  L 4026 2317  L 2502 2317  Q 2438 486 1024 -550  Q 826 -352 525 -256  Q 1939 717 1990 2317  L 301 2317  L 301 2790  L 1997 2790  L 1997 4442  L 800 4442  z M 2509 4442  L 2509 2790  L 4026 2790  L 4026 4442  L 2509 4442  z " transform="scale(0.015625)" />
        <path id="NotoSansSC-59cb" d="M 2534 -26  Q 2214 314 1792 698  Q 1414 77 787 -454  Q 570 -294 288 -224  Q 1043 371 1434 1030  Q 934 1472 589 1734  Q 800 2374 1018 3610  L 346 3610  L 346 4032  L 1088 4032  Q 1190 4698 1254 5306  L 1728 5216  Q 1683 4723 1568 4032  L 2554 4032  L 2554 3654  Q 2502 2131 2029 1139  Q 2451 762 2816 410  L 2534 -26  z M 3008 -499  L 3008 2157  L 5683 2157  L 5683 -499  L 5210 -499  L 5210 -77  L 3494 -77  L 3494 -499  L 3008 -499  z M 5837 2515  Q 5786 2586 5664 2758  Q 5619 2822 5594 2861  L 3296 2746  Q 3002 2726 2778 2650  L 2573 3059  Q 2797 3130 2957 3366  Q 3622 4326 4070 5299  L 4531 5094  Q 4019 4064 3398 3174  L 5306 3258  Q 4864 3846 4544 4218  L 4934 4435  Q 5542 3757 6170 2848  L 5837 2515  z M 3494 1728  L 3494 352  L 5210 352  L 5210 1728  L 3494 1728  z M 2099 3610  L 1498 3610  Q 1312 2528 1126 1901  Q 1152 1882 1210 1830  Q 1491 1606 1658 1459  Q 2035 2310 2099 3610  z " transform="scale(0.015625)" />
       </defs>
       <use ns4:href="#NotoSansSC-5f00" />
       <use ns4:href="#NotoSansSC-59cb" x="99.999985" />
      </g>
     </g>
    </g>
    <g id="xtick_2">
     <g id="line2d_2" />
     <g id="text_2">
      <!-- 第2周 -->
      <g transform="translate(190.578294 188.892028) scale(0.107892 -0.107892)">
       <defs>
        <path id="NotoSansSC-7b2c" d="M 678 -454  Q 550 -250 320 -122  Q 1773 371 2746 1171  L 928 1171  L 1062 2496  L 3008 2496  L 3008 3040  L 858 3040  L 858 3437  L 5491 3437  L 5491 2106  L 3514 2106  L 3514 1568  L 5830 1568  L 5766 557  Q 5722 -122 5024 -128  Q 4858 -128 4525 -96  Q 4506 147 4410 358  Q 4710 301 4909 301  Q 5280 294 5293 659  L 5325 1171  L 3514 1171  L 3514 -512  L 3008 -512  L 3008 877  Q 2067 26 678 -454  z M 691 3379  Q 486 3526 224 3584  Q 1146 4416 1491 5376  L 1939 5222  Q 1869 5030 1779 4838  L 3315 4838  L 3315 4448  L 1568 4448  Q 1210 3853 691 3379  z M 3482 3482  Q 3296 3610 3021 3667  Q 3718 4365 4051 5357  L 4499 5197  Q 4442 5018 4365 4838  L 6035 4838  L 6035 4448  L 4173 4448  Q 3866 3872 3482 3482  z M 1517 2106  L 1459 1568  L 3008 1568  L 3008 2106  L 1517 2106  z M 5005 3040  L 3514 3040  L 3514 2496  L 5005 2496  L 5005 3040  z M 4941 3526  Q 4653 3840 4237 4192  L 4614 4390  Q 5018 4064 5280 3770  L 4941 3526  z M 2349 3552  Q 2074 3840 1645 4198  L 2035 4403  Q 2438 4064 2669 3802  L 2349 3552  z " transform="scale(0.015625)" />
        <path id="NotoSansSC-32" d="M 3002 0  L 301 0  L 301 454  L 1606 1766  Q 2106 2266 2320 2598  Q 2534 2931 2534 3309  Q 2534 3699 2313 3910  Q 2093 4122 1683 4122  Q 1082 4122 531 3610  L 531 4147  Q 1056 4557 1754 4557  Q 2355 4557 2697 4230  Q 3040 3904 3040 3360  Q 3040 2931 2803 2518  Q 2566 2106 1952 1498  L 915 474  L 915 461  L 3002 461  L 3002 0  z " transform="scale(0.015625)" />
        <path id="NotoSansSC-5468" d="M 755 -518  Q 538 -339 282 -269  Q 659 269 800 832  Q 947 1382 947 2298  L 947 4992  L 5523 4992  L 5523 378  Q 5517 -442 4704 -448  Q 4461 -448 4186 -416  Q 4179 -154 4064 64  Q 4358 19 4595 19  Q 5043 13 5037 448  L 5037 4550  L 1427 4550  L 1427 2323  Q 1459 416 755 -518  z M 2061 518  L 2061 2067  L 4397 2067  L 4397 518  L 2061 518  z M 1843 3488  L 1843 3872  L 2995 3872  L 2995 4397  L 3430 4397  L 3430 3872  L 4595 3872  L 4595 3488  L 3430 3488  L 3430 2944  L 4774 2944  L 4774 2560  L 1670 2560  L 1670 2944  L 2995 2944  L 2995 3488  L 1843 3488  z M 2509 896  L 3949 896  L 3949 1690  L 2509 1690  L 2509 896  z " transform="scale(0.015625)" />
       </defs>
       <use ns4:href="#NotoSansSC-7b2c" />
       <use ns4:href="#NotoSansSC-32" x="99.999985" />
       <use ns4:href="#NotoSansSC-5468" x="153.899979" />
      </g>
     </g>
    </g>
    <g id="xtick_3">
     <g id="line2d_3" />
     <g id="text_3">
      <!-- 第4周 -->
      <g transform="translate(278.93385 188.892028) scale(0.107892 -0.107892)">
       <defs>
        <path id="NotoSansSC-34" d="M 3232 1190  L 2656 1190  L 2656 0  L 2150 0  L 2150 1190  L 45 1190  L 45 1523  L 2035 4480  L 2656 4480  L 2656 1606  L 3232 1606  L 3232 1190  z M 2150 1606  L 2150 3546  Q 2150 3750 2163 4006  L 2150 4006  Q 2106 3891 1978 3661  L 602 1606  L 2150 1606  z " transform="scale(0.015625)" />
       </defs>
       <use ns4:href="#NotoSansSC-7b2c" />
       <use ns4:href="#NotoSansSC-34" x="99.999985" />
       <use ns4:href="#NotoSansSC-5468" x="153.899979" />
      </g>
     </g>
    </g>
    <g id="xtick_4">
     <g id="line2d_4" />
     <g id="text_4">
      <!-- 第6周 -->
      <g transform="translate(367.289405 188.892028) scale(0.107892 -0.107892)">
       <defs>
        <path id="NotoSansSC-36" d="M 2918 4429  L 2918 3942  Q 2573 4122 2189 4122  Q 1594 4122 1235 3590  Q 877 3059 877 2170  L 890 2170  Q 1203 2803 1914 2803  Q 2502 2803 2848 2425  Q 3194 2048 3194 1421  Q 3194 762 2797 342  Q 2400 -77 1786 -77  Q 1114 -77 730 460  Q 346 998 346 1971  Q 346 3149 848 3853  Q 1350 4557 2176 4557  Q 2643 4557 2918 4429  z M 1798 2368  Q 1402 2368 1155 2099  Q 909 1830 909 1466  Q 909 1005 1155 681  Q 1402 358 1805 358  Q 2195 358 2432 640  Q 2669 922 2669 1357  Q 2669 1830 2441 2099  Q 2214 2368 1798 2368  z " transform="scale(0.015625)" />
       </defs>
       <use ns4:href="#NotoSansSC-7b2c" />
       <use ns4:href="#NotoSansSC-36" x="99.999985" />
       <use ns4:href="#NotoSansSC-5468" x="153.899979" />
      </g>
     </g>
    </g>
    <g id="xtick_5">
     <g id="line2d_5" />
     <g id="text_5">
      <!-- 第8周 -->
      <g transform="translate(455.644961 188.892028) scale(0.107892 -0.107892)">
       <defs>
        <path id="NotoSansSC-38" d="M 1280 2349  L 1280 2362  Q 474 2739 474 3450  Q 474 3936 842 4246  Q 1210 4557 1792 4557  Q 2317 4557 2656 4265  Q 2995 3974 2995 3520  Q 2995 2778 2163 2362  L 2163 2349  Q 3142 2003 3142 1139  Q 3142 582 2742 252  Q 2342 -77 1632 -77  Q 1056 -77 685 249  Q 314 576 314 1094  Q 314 1958 1280 2349  z M 2470 3456  Q 2470 3763 2275 3942  Q 2080 4122 1747 4122  Q 1434 4122 1216 3936  Q 998 3750 998 3462  Q 998 2880 1728 2579  Q 2470 2886 2470 3456  z M 1696 2106  Q 838 1766 838 1120  Q 838 787 1084 572  Q 1331 358 1741 358  Q 2131 358 2374 569  Q 2618 781 2618 1101  Q 2618 1773 1696 2106  z " transform="scale(0.015625)" />
       </defs>
       <use ns4:href="#NotoSansSC-7b2c" />
       <use ns4:href="#NotoSansSC-38" x="99.999985" />
       <use ns4:href="#NotoSansSC-5468" x="153.899979" />
      </g>
     </g>
    </g>
   </g>
   <g id="matplotlib.axis_2">
    <g id="ytick_1">
     <g id="line2d_6" />
     <g id="text_6">
      <!-- 基线与样本 -->
      <g transform="translate(57.42 53.428207) scale(0.11 -0.11)">
       <defs>
        <path id="NotoSansSC-57fa" d="M 749 4314  L 749 4717  L 1702 4717  L 1702 5312  L 2195 5312  L 2195 4717  L 4218 4717  L 4218 5312  L 4710 5312  L 4710 4717  L 5626 4717  L 5626 4314  L 4710 4314  L 4710 2266  L 5971 2266  L 5971 1869  L 4435 1869  Q 5222 1242 6285 979  Q 6067 838 5926 589  Q 4640 1030 3808 1869  L 2586 1869  Q 1811 1037 499 512  Q 339 730 109 838  Q 1222 1229 1978 1869  L 403 1869  L 403 2266  L 1702 2266  L 1702 4314  L 749 4314  z M 1702 678  L 1702 1069  L 2957 1069  L 2957 1562  L 3424 1562  L 3424 1069  L 4678 1069  L 4678 678  L 3424 678  L 3424 90  L 5472 90  L 5472 -314  L 934 -314  L 934 90  L 2957 90  L 2957 678  L 1702 678  z M 2195 2720  L 2195 2266  L 4218 2266  L 4218 2720  L 2195 2720  z M 2195 3514  L 2195 3078  L 4218 3078  L 4218 3514  L 2195 3514  z M 2195 4314  L 2195 3878  L 4218 3878  L 4218 4314  L 2195 4314  z " transform="scale(0.015625)" />
        <path id="NotoSansSC-7ebf" d="M 2739 3232  L 2656 3661  L 3648 3814  Q 3603 4499 3590 5293  L 4064 5325  Q 4064 4557 4115 3885  L 5715 4134  L 5805 3706  L 4154 3450  Q 4192 3027 4250 2662  L 5894 2963  L 5978 2534  L 4320 2227  Q 4422 1683 4557 1261  Q 5120 1638 5536 2099  L 5830 1760  Q 5338 1229 4710 826  Q 4813 589 4928 416  Q 5158 70 5344 90  Q 5510 77 5626 390  Q 5702 582 5779 928  Q 5946 704 6157 608  Q 6106 397 6010 128  Q 5786 -416 5382 -422  Q 4922 -429 4582 96  Q 4442 307 4314 589  Q 3603 198 2810 -26  Q 2650 237 2470 365  Q 3386 595 4147 1011  Q 3974 1504 3853 2144  L 2739 1939  L 2624 2362  L 3782 2573  Q 3750 2778 3706 3200  Q 3693 3315 3686 3379  L 2739 3232  z M 640 1293  L 435 1715  Q 672 1792 896 2086  Q 1152 2419 1478 2886  L 819 2848  Q 608 2835 448 2778  L 243 3174  Q 474 3270 602 3475  Q 1190 4320 1600 5248  L 2042 5069  Q 1587 4122 979 3264  L 1760 3309  Q 2010 3712 2214 4090  L 2611 3885  Q 1958 2726 1280 1862  L 2285 1997  L 2381 1581  L 1088 1408  Q 858 1370 640 1293  z M 550 -160  L 288 250  L 2381 979  L 2592 640  L 550 -160  z M 5133 4134  Q 4794 4582 4416 4909  L 4800 5120  Q 5190 4762 5459 4422  L 5133 4134  z " transform="scale(0.015625)" />
        <path id="NotoSansSC-4e0e" d="M 4448 -461  Q 4179 -461 3782 -410  Q 3750 -96 3654 102  Q 4090 26 4390 26  Q 4992 13 5011 653  L 5107 2451  L 1370 2451  L 1613 5306  L 2125 5274  L 2054 4448  L 5779 4448  L 5779 4000  L 2016 4000  L 1920 2906  L 5645 2906  L 5517 582  Q 5459 -461 4448 -461  z M 416 979  L 416 1434  L 4538 1434  L 4538 979  L 416 979  z " transform="scale(0.015625)" />
        <path id="NotoSansSC-6837" d="M 2752 3667  L 2752 4096  L 3731 4096  Q 3450 4525 2957 5120  L 3373 5293  Q 3686 4941 4090 4365  L 3744 4096  L 4429 4096  Q 4954 4762 5216 5312  L 5651 5133  Q 5453 4742 4947 4096  L 5914 4096  L 5914 3667  L 4570 3667  L 4570 2771  L 5702 2771  L 5702 2336  L 4570 2336  L 4570 1376  L 6144 1376  L 6144 947  L 4570 947  L 4570 -512  L 4096 -512  L 4096 947  L 2528 947  L 2528 1376  L 4096 1376  L 4096 2336  L 2970 2336  L 2970 2771  L 4096 2771  L 4096 3667  L 2752 3667  z M 384 3462  L 384 3891  L 1363 3891  L 1363 5299  L 1830 5299  L 1830 3891  L 2592 3891  L 2592 3462  L 1830 3462  L 1830 2822  L 2016 2906  Q 2451 2362 2701 1952  L 2394 1658  Q 2138 2067 1830 2490  L 1830 -512  L 1363 -512  L 1363 2470  Q 1024 1517 582 998  Q 390 1184 166 1248  Q 1005 2182 1312 3462  L 384 3462  z " transform="scale(0.015625)" />
        <path id="NotoSansSC-672c" d="M 582 3674  L 582 4134  L 2938 4134  L 2938 5312  L 3443 5312  L 3443 4134  L 5811 4134  L 5811 3674  L 3706 3674  Q 4486 1734 6176 826  Q 5901 678 5696 448  Q 4134 1446 3424 3405  L 3443 3264  L 3443 1114  L 4698 1114  L 4698 672  L 3443 672  L 3443 -512  L 2938 -512  L 2938 672  L 1664 672  L 1664 1114  L 2938 1114  L 2938 3264  L 2950 3373  Q 2182 1421 646 410  Q 493 582 198 717  Q 1843 1760 2682 3674  L 582 3674  z " transform="scale(0.015625)" />
       </defs>
       <use ns4:href="#NotoSansSC-57fa" />
       <use ns4:href="#NotoSansSC-7ebf" x="99.999985" />
       <use ns4:href="#NotoSansSC-4e0e" x="199.999969" />
       <use ns4:href="#NotoSansSC-6837" x="299.999954" />
       <use ns4:href="#NotoSansSC-672c" x="399.999939" />
      </g>
     </g>
    </g>
    <g id="ytick_2">
     <g id="line2d_7" />
     <g id="text_7">
      <!-- 接口与测试 -->
      <g transform="translate(57.42 91.178736) scale(0.11 -0.11)">
       <defs>
        <path id="NotoSansSC-63a5" d="M 2285 1568  L 2285 1984  L 3386 1984  Q 3616 2394 3744 2694  L 4166 2515  Q 4051 2253 3898 1984  L 6106 1984  L 6106 1568  L 5331 1568  Q 5133 928 4736 493  Q 5402 205 5875 -38  L 5754 -499  Q 5005 -115 4365 173  Q 3680 -320 2387 -518  Q 2278 -262 2093 -102  Q 3206 26 3859 390  Q 3213 672 2662 877  Q 2918 1197 3142 1568  L 2285 1568  z M 339 3622  L 339 4032  L 1139 4032  L 1139 5306  L 1594 5306  L 1594 4032  L 2272 4032  L 2272 3622  L 1594 3622  L 1594 2502  L 2163 2797  L 2374 2477  L 1594 2029  L 1594 243  Q 1606 -442 915 -429  Q 742 -429 474 -403  Q 467 -179 352 64  Q 646 26 826 26  Q 1146 19 1139 320  L 1139 1766  L 474 1389  L 173 1766  L 1139 2266  L 1139 3622  L 339 3622  z M 2368 2765  L 2368 3187  L 3533 3187  Q 3264 3565 2938 3930  L 3360 4102  Q 3706 3731 3923 3398  L 3654 3187  L 4314 3187  Q 4755 3731 5011 4179  L 5427 3987  Q 5190 3597 4870 3187  L 6003 3187  L 6003 2765  L 2368 2765  z M 2490 4198  L 2490 4614  L 4051 4614  Q 3827 4947 3603 5216  L 4070 5338  Q 4346 5005 4570 4614  L 5856 4614  L 5856 4198  L 2490 4198  z M 3328 1056  Q 3910 845 4269 691  Q 4646 1037 4851 1568  L 3661 1568  Q 3475 1267 3328 1056  z " transform="scale(0.015625)" />
        <path id="NotoSansSC-53e3" d="M 922 -205  L 922 4691  L 5440 4691  L 5440 -205  L 4922 -205  L 4922 384  L 1434 384  L 1434 -205  L 922 -205  z M 1434 4224  L 1434 851  L 4922 851  L 4922 4224  L 1434 4224  z " transform="scale(0.015625)" />
        <path id="NotoSansSC-6d4b" d="M 1562 4070  Q 998 4570 550 4870  L 896 5197  Q 1382 4870 1805 4474  L 1562 4070  z M 1306 2470  Q 794 2899 256 3206  L 595 3552  Q 1056 3277 1530 2893  L 1306 2470  z M 890 -397  L 442 -96  Q 870 742 1267 2035  L 1651 1779  Q 1331 608 890 -397  z M 3949 -141  Q 3565 294 3008 800  L 3360 1011  Q 3782 672 4205 198  L 3949 -141  z M 1882 -442  Q 1702 -250 1485 -147  Q 2842 563 2778 2048  L 2778 3917  L 3162 3917  L 3162 1984  Q 3200 358 1882 -442  z M 5075 -435  Q 4896 -435 4602 -397  Q 4582 -166 4480 77  Q 4832 26 5024 26  Q 5402 6 5382 429  L 5382 5261  L 5843 5261  L 5843 378  Q 5856 -448 5075 -435  z M 4486 941  L 4486 4506  L 4896 4506  L 4896 941  L 4486 941  z M 1946 1050  L 1946 4896  L 3981 4896  L 3981 1158  L 3565 1158  L 3565 4480  L 2368 4480  L 2368 1050  L 1946 1050  z " transform="scale(0.015625)" />
        <path id="NotoSansSC-8bd5" d="M 2003 3526  L 2003 3949  L 4230 3949  Q 4218 4806 4230 5299  L 4704 5325  Q 4672 4666 4691 3949  L 6003 3949  L 6003 3526  L 4710 3526  Q 4781 1824 5005 979  Q 5229 90 5523 83  Q 5626 70 5722 384  Q 5766 512 5837 826  Q 5990 640 6202 538  Q 6150 314 6080 109  Q 5894 -429 5530 -429  Q 4941 -403 4608 704  Q 4326 1645 4243 3526  L 2003 3526  z M 2150 2234  L 2150 2643  L 4019 2643  L 4019 2234  L 3341 2234  L 3341 557  L 4070 742  L 4243 390  L 2150 -205  L 1926 198  L 2886 442  L 2886 2234  L 2150 2234  z M 1120 -186  L 806 154  Q 1030 384 1018 736  L 1018 2829  L 256 2829  L 256 3245  L 1485 3245  L 1485 755  L 2074 1274  L 2355 947  L 1389 109  Q 1242 -19 1120 -186  z M 1421 3846  Q 992 4390 512 4845  L 928 5069  Q 1338 4698 1754 4173  L 1421 3846  z M 5466 4038  Q 5190 4512 4915 4845  L 5293 5005  Q 5568 4672 5805 4275  L 5466 4038  z " transform="scale(0.015625)" />
       </defs>
       <use ns4:href="#NotoSansSC-63a5" />
       <use ns4:href="#NotoSansSC-53e3" x="99.999985" />
       <use ns4:href="#NotoSansSC-4e0e" x="199.999969" />
       <use ns4:href="#NotoSansSC-6d4b" x="299.999954" />
       <use ns4:href="#NotoSansSC-8bd5" x="399.999939" />
      </g>
     </g>
    </g>
    <g id="ytick_3">
     <g id="line2d_8" />
     <g id="text_8">
      <!-- 受控试运行 -->
      <g transform="translate(57.42 128.929264) scale(0.11 -0.11)">
       <defs>
        <path id="NotoSansSC-53d7" d="M 5715 -493  Q 4237 -294 3238 282  Q 2227 -301 755 -544  Q 614 -275 397 -109  Q 1850 109 2778 582  Q 2099 1069 1613 1805  L 1869 1926  L 1235 1926  L 1235 2355  L 4922 2355  L 4922 1971  Q 4454 1126 3674 563  Q 4614 90 6042 -45  Q 5856 -198 5715 -493  z M 550 2208  L 550 3482  L 1792 3482  Q 1504 3891 1126 4282  L 1574 4448  Q 1862 4179 2202 3699  L 1824 3482  L 3872 3482  Q 4467 4122 4838 4685  L 5261 4435  Q 4902 3942 4474 3482  L 5843 3482  L 5843 2208  L 5357 2208  L 5357 3040  L 1037 3040  L 1037 2208  L 550 2208  z M 986 4550  Q 941 4800 787 4998  Q 3328 4973 5254 5299  L 5562 4877  Q 3603 4563 986 4550  z M 4294 1926  L 2080 1926  Q 2573 1261 3213 832  Q 3917 1286 4294 1926  z M 3296 3546  Q 2950 4109 2707 4410  L 3155 4550  Q 3424 4230 3693 3770  L 3296 3546  z " transform="scale(0.015625)" />
        <path id="NotoSansSC-63a7" d="M 365 3578  L 365 3987  L 1146 3987  L 1146 5312  L 1606 5312  L 1606 3987  L 2272 3987  L 2272 3578  L 1606 3578  L 1606 2451  L 2234 2739  L 2432 2419  L 1606 2016  L 1606 243  Q 1594 -422 890 -435  Q 730 -435 493 -403  Q 480 -166 365 51  Q 614 0 832 0  Q 1146 0 1146 301  L 1146 1792  L 467 1459  L 211 1824  L 1146 2246  L 1146 3578  L 365 3578  z M 2835 1568  L 2835 1997  L 5664 1997  L 5664 1568  L 4480 1568  L 4480 141  L 6125 141  L 6125 -294  L 2362 -294  L 2362 141  L 4000 141  L 4000 1568  L 2835 1568  z M 2554 3302  L 2554 4493  L 4173 4493  Q 3821 4922 3565 5146  L 3987 5350  Q 4320 5056 4627 4659  L 4416 4493  L 5946 4493  L 5946 3302  L 5491 3302  L 5491 4077  L 3002 4077  L 3002 3302  L 2554 3302  z M 2810 2112  Q 2630 2266 2374 2336  Q 3053 2835 3565 3603  L 3942 3398  Q 3443 2662 2810 2112  z M 5670 2125  Q 5043 2886 4486 3386  L 4838 3616  Q 5389 3091 5946 2451  L 5670 2125  z " transform="scale(0.015625)" />
        <path id="NotoSansSC-8fd0" d="M 2054 3002  L 2054 3437  L 5907 3437  L 5907 3002  L 3994 3002  Q 3603 2176 3072 1402  L 4858 1542  Q 4582 1965 4288 2381  L 4717 2528  Q 5306 1754 5773 966  L 5395 659  Q 5382 678 5363 710  Q 5280 864 5120 1126  L 2925 934  Q 2707 915 2464 826  L 2221 1242  Q 2470 1318 2662 1600  Q 3085 2240 3469 3002  L 2054 3002  z M 717 -397  L 346 -19  Q 762 448 1178 819  L 1178 2861  L 339 2861  L 339 3309  L 1658 3309  L 1658 826  Q 2202 275 3187 218  Q 4544 96 6157 224  Q 6016 -19 6003 -307  Q 5325 -326 4666 -326  Q 4032 -326 3622 -301  Q 2214 -288 1434 429  Q 1011 26 717 -397  z M 2432 4403  L 2432 4838  L 5434 4838  L 5434 4403  L 2432 4403  z M 1690 3782  Q 1126 4403 646 4800  L 1050 5069  Q 1587 4640 2010 4134  L 1690 3782  z " transform="scale(0.015625)" />
        <path id="NotoSansSC-884c" d="M 2464 2675  L 2464 3117  L 6138 3117  L 6138 2675  L 5101 2675  L 5101 346  Q 5101 -461 4282 -461  Q 4006 -461 3680 -410  Q 3674 -128 3571 83  Q 3968 13 4218 13  Q 4627 0 4614 435  L 4614 2675  L 2464 2675  z M 1370 -512  L 1370 2112  Q 1018 1709 704 1434  Q 531 1606 275 1702  Q 1306 2579 1933 3731  L 2304 3462  Q 2125 3117 1850 2726  L 1850 -512  L 1370 -512  z M 2816 4403  L 2816 4851  L 5734 4851  L 5734 4403  L 2816 4403  z M 909 3443  Q 730 3610 461 3693  Q 1306 4378 1875 5338  L 2259 5050  Q 1728 4154 909 3443  z " transform="scale(0.015625)" />
       </defs>
       <use ns4:href="#NotoSansSC-53d7" />
       <use ns4:href="#NotoSansSC-63a7" x="99.999985" />
       <use ns4:href="#NotoSansSC-8bd5" x="199.999969" />
       <use ns4:href="#NotoSansSC-8fd0" x="299.999954" />
       <use ns4:href="#NotoSansSC-884c" x="399.999939" />
      </g>
     </g>
    </g>
    <g id="ytick_4">
     <g id="line2d_9" />
     <g id="text_9">
      <!-- 业务参与时间 -->
      <g transform="translate(46.42 166.679793) scale(0.11 -0.11)">
       <defs>
        <path id="NotoSansSC-4e1a" d="M 301 -198  L 301 269  L 2208 269  L 2208 5280  L 2714 5280  L 2714 269  L 3674 269  L 3674 5280  L 4179 5280  L 4179 269  L 6093 269  L 6093 -198  L 301 -198  z M 4749 1446  Q 4557 1562 4262 1606  Q 4922 2778 5293 3936  L 5760 3725  Q 5363 2522 4749 1446  z M 1542 1478  Q 1094 2714 557 3789  L 1062 3904  Q 1594 2848 1990 1760  L 1542 1478  z " transform="scale(0.015625)" />
        <path id="NotoSansSC-52a1" d="M 518 1901  Q 403 2138 205 2323  Q 1658 2522 2803 3072  Q 2278 3418 1830 3885  Q 1491 3546 1107 3264  Q 896 3469 691 3539  Q 1811 4314 2362 5382  L 2778 5165  Q 2662 4941 2515 4730  L 5062 4730  L 5062 4371  Q 4557 3635 3699 3072  Q 4723 2605 6195 2445  Q 5997 2240 5888 1978  Q 4301 2240 3251 2803  Q 2067 2170 518 1901  z M 4198 -435  Q 3923 -435 3654 -397  Q 3648 -166 3520 70  Q 3910 13 4128 13  Q 4614 13 4640 486  L 4698 1318  L 3027 1318  Q 2675 -45 922 -550  Q 787 -326 550 -166  Q 2157 250 2528 1318  L 1056 1318  L 1056 1741  L 2637 1741  Q 2688 1984 2694 2419  L 3187 2362  Q 3155 1965 3117 1741  L 5197 1741  L 5114 416  Q 5075 -442 4198 -435  z M 2221 4326  Q 2163 4250 2106 4186  Q 2637 3661 3245 3309  Q 3974 3750 4454 4326  L 2221 4326  z " transform="scale(0.015625)" />
        <path id="NotoSansSC-914d" d="M 358 4512  L 358 4915  L 3264 4915  L 3264 4512  L 2400 4512  L 2400 3763  L 3104 3763  L 3104 -371  L 2688 -371  L 2688 70  L 986 70  L 986 -429  L 563 -429  L 563 3763  L 1280 3763  L 1280 4512  L 358 4512  z M 4371 -314  Q 3552 -346 3584 499  L 3584 2931  L 5267 2931  L 5267 4474  L 3533 4474  L 3533 4915  L 5722 4915  L 5722 2490  L 4051 2490  L 4051 576  Q 4045 128 4429 134  L 5075 134  Q 5504 109 5606 576  Q 5658 794 5709 1094  Q 5875 902 6099 794  Q 6029 429 5978 282  Q 5805 -339 5139 -314  L 4371 -314  z M 2458 1952  Q 1990 1939 2003 2432  L 2003 3373  L 1670 3373  Q 1683 2349 1222 1741  Q 1114 1824 986 1862  L 986 1421  L 2688 1421  L 2688 1952  L 2458 1952  z M 986 1050  L 986 461  L 2688 461  L 2688 1050  L 986 1050  z M 2688 3373  L 2355 3373  L 2355 2496  Q 2349 2304 2547 2310  L 2688 2310  L 2688 3373  z M 986 3373  L 986 2054  Q 1331 2534 1325 3373  L 986 3373  z M 1670 4512  L 1670 3763  L 2003 3763  L 2003 4512  L 1670 4512  z " transform="scale(0.015625)" />
        <path id="NotoSansSC-5408" d="M 1267 -512  L 1267 1984  L 5158 1984  L 5158 -512  L 4659 -512  L 4659 -122  L 1760 -122  L 1760 -512  L 1267 -512  z M 538 2560  Q 390 2771 141 2938  Q 2163 3789 3130 5395  L 3565 5178  Q 3501 5062 3430 4954  Q 4621 3603 6234 3091  Q 6010 2899 5850 2650  Q 4230 3341 3194 4602  Q 2202 3283 538 2560  z M 1760 1549  L 1760 314  L 4659 314  L 4659 1549  L 1760 1549  z M 1683 2707  L 1683 3142  L 4794 3142  L 4794 2707  L 1683 2707  z " transform="scale(0.015625)" />
        <path id="NotoSansSC-7a97" d="M 928 -512  L 928 3098  Q 890 3085 806 3059  Q 723 3027 678 3014  Q 589 3187 378 3334  Q 1606 3680 2349 4218  L 2675 3955  Q 1946 3488 1050 3149  L 2483 3149  Q 2720 3405 2970 3770  L 3398 3622  Q 3213 3360 3027 3149  L 5427 3149  L 5427 -512  L 4941 -512  L 4941 -141  L 1414 -141  L 1414 -512  L 928 -512  z M 1965 1395  Q 1843 1562 1638 1638  Q 2438 2093 2842 2746  L 1414 2746  L 1414 256  L 4941 256  L 4941 2746  L 2886 2746  L 3181 2586  Q 3098 2432 2970 2278  L 4454 2278  L 4454 1984  Q 4230 1536 3827 1178  Q 4032 1094 4442 909  Q 4538 864 4582 845  L 4435 480  Q 3968 723 3488 922  Q 2880 544 2042 378  Q 1978 563 1779 710  Q 2522 838 3046 1107  Q 2682 1248 2310 1382  L 2566 1651  Q 2989 1510 3424 1344  Q 3763 1587 3981 1939  L 2662 1939  Q 2317 1606 1965 1395  z M 557 3706  L 557 4730  L 2982 4730  Q 2714 5018 2490 5203  L 3008 5331  Q 3162 5210 3482 4858  Q 3565 4768 3603 4730  L 5824 4730  L 5824 3725  L 5338 3725  L 5338 4333  L 1050 4333  L 1050 3706  L 557 3706  z M 5818 3027  Q 4813 3520 3744 3878  L 4006 4186  Q 5120 3802 5926 3424  L 5818 3027  z " transform="scale(0.015625)" />
       </defs>
       <path d="M4.70312 -3.09375 L4.70312 4.20312 L34.50000 4.20312 L34.50000 82.50000 L42.40625 82.50000 L42.40625 4.20312 L57.40625 4.20312 L57.40625 82.50000 L65.29688 82.50000 L65.29688 4.20312 L95.20312 4.20312 L95.20312 -3.09375 L4.70312 -3.09375 Z M74.20312 22.59375 Q71.20312 24.40625 66.59375 25.09375 Q76.90625 43.40625 82.70312 61.50000 L90.00000 58.20312 Q83.79688 39.40625 74.20312 22.59375 Z M24.09375 23.09375 Q17.09375 42.40625 8.70312 59.20312 L16.59375 61.00000 Q24.90625 44.50000 31.09375 27.50000 L24.09375 23.09375 Z M108.09375 29.70312 Q106.29688 33.40625 103.20312 36.29688 Q125.90625 39.40625 143.79688 48.00000 Q135.59375 53.40625 128.59375 60.70312 Q123.29688 55.40625 117.29688 51.00000 Q114.00000 54.20312 110.79688 55.29688 Q128.29688 67.40625 136.90625 84.09375 L143.40625 80.70312 Q141.59375 77.20312 139.29688 73.90625 L179.09375 73.90625 L179.09375 68.29688 Q171.20312 56.79688 157.79688 48.00000 Q173.79688 40.70312 196.79688 38.20312 Q193.70312 35.00000 192.00000 30.90625 Q167.20312 35.00000 150.79688 43.79688 Q132.29688 33.90625 108.09375 29.70312 Z M165.59375 -6.79688 Q161.29688 -6.79688 157.09375 -6.20312 Q157.00000 -2.59375 155.00000 1.09375 Q161.09375 0.20312 164.50000 0.20312 Q172.09375 0.20312 172.50000 7.59375 L173.40625 20.59375 L147.29688 20.59375 Q141.79688 -0.70312 114.40625 -8.59375 Q112.29688 -5.09375 108.59375 -2.59375 Q133.70312 3.90625 139.50000 20.59375 L116.50000 20.59375 L116.50000 27.20312 L141.20312 27.20312 Q142.00000 31.00000 142.09375 37.79688 L149.79688 36.90625 Q149.29688 30.70312 148.70312 27.20312 L181.20312 27.20312 L179.90625 6.50000 Q179.29688 -6.90625 165.59375 -6.79688 Z M134.70312 67.59375 Q133.79688 66.40625 132.90625 65.40625 Q141.20312 57.20312 150.70312 51.70312 Q162.09375 58.59375 169.59375 67.59375 L134.70312 67.59375 Z M221.40625 57.70312 L218.20312 63.79688 Q222.29688 64.70312 225.70312 67.70312 Q235.29688 75.29688 242.79688 84.09375 L249.70312 81.00000 Q240.79688 71.40625 232.59375 65.00000 L267.29688 66.20312 Q260.90625 71.90625 256.90625 74.79688 L262.40625 78.59375 Q272.29688 71.40625 283.20312 60.59375 L279.09375 55.09375 Q277.79688 56.40625 274.29688 59.79688 Q276.79688 57.40625 273.59375 60.40625 L250.29688 59.50000 Q248.79688 55.29688 246.59375 51.50000 L292.20312 51.50000 L292.20312 45.09375 L265.50000 45.09375 Q277.00000 33.59375 297.59375 28.29688 Q294.00000 25.50000 291.70312 21.59375 Q269.50000 29.90625 256.90625 45.09375 L242.59375 45.09375 Q231.50000 29.70312 209.09375 20.40625 Q207.00000 23.09375 202.90625 25.59375 Q222.20312 32.40625 233.50000 45.09375 L206.90625 45.09375 L206.90625 51.50000 L238.40625 51.50000 Q240.70312 55.09375 242.40625 59.20312 L229.79688 58.79688 Q224.79688 58.59375 221.40625 57.70312 Z M221.50000 -8.29688 Q219.40625 -4.70312 216.29688 -2.00000 Q253.70312 1.00000 275.09375 20.59375 L281.70312 16.90625 Q260.00000 -4.09375 221.50000 -8.29688 Z M227.59375 7.29688 Q225.70312 10.00000 222.59375 12.40625 Q248.59375 17.70312 263.40625 30.40625 L269.20312 26.70312 Q252.20312 12.29688 227.59375 7.29688 Z M226.79688 20.79688 Q224.90625 23.59375 222.00000 25.59375 Q242.70312 31.00000 253.20312 40.09375 L258.50000 36.09375 Q246.09375 26.00000 226.79688 20.79688 Z M369.50000 -7.20312 Q365.29688 -7.20312 359.09375 -6.40625 Q358.59375 -1.50000 357.09375 1.59375 Q363.90625 0.40625 368.59375 0.40625 Q378.00000 0.20312 378.29688 10.20312 L379.79688 38.29688 L321.40625 38.29688 L325.20312 82.90625 L333.20312 82.40625 L332.09375 69.50000 L390.29688 69.50000 L390.29688 62.50000 L331.50000 62.50000 L330.00000 45.40625 L388.20312 45.40625 L386.20312 9.09375 Q385.29688 -7.20312 369.50000 -7.20312 Z M306.50000 15.29688 L306.50000 22.40625 L370.90625 22.40625 L370.90625 15.29688 L306.50000 15.29688 Z M409.90625 -1.40625 L409.90625 75.79688 L441.70312 75.79688 L441.70312 0.90625 L434.50000 0.90625 L434.50000 8.00000 L417.09375 8.00000 L417.09375 -1.40625 L409.90625 -1.40625 Z M445.90625 55.20312 L445.90625 62.20312 L475.29688 62.20312 L475.29688 82.70312 L482.90625 82.70312 L482.90625 62.20312 L495.79688 62.20312 L495.79688 55.20312 L482.90625 55.20312 L482.90625 5.79688 Q482.79688 -6.59375 469.70312 -6.70312 Q466.50000 -6.70312 460.90625 -5.90625 Q460.79688 -2.09375 459.00000 1.79688 Q465.40625 0.90625 468.40625 0.90625 Q475.50000 0.59375 475.29688 7.70312 L475.29688 55.20312 L445.90625 55.20312 Z M417.09375 38.79688 L417.09375 14.90625 L434.50000 14.90625 L434.50000 38.79688 L417.09375 38.79688 Z M417.09375 69.09375 L417.09375 45.29688 L434.50000 45.29688 L434.50000 69.09375 L417.09375 69.09375 Z M460.90625 21.09375 Q455.79688 30.70312 448.29688 41.40625 L454.79688 44.00000 Q460.40625 36.40625 466.70312 25.20312 L460.90625 21.09375 Z M532.50000 9.90625 L532.50000 56.20312 L567.29688 56.20312 L567.29688 9.90625 L532.50000 9.90625 Z M576.09375 -7.29688 Q573.29688 -7.29688 568.29688 -6.90625 Q568.00000 -2.50000 566.00000 1.09375 Q572.00000 0.29688 574.79688 0.29688 Q581.59375 0.09375 581.40625 7.00000 L581.40625 69.09375 L539.00000 69.09375 L539.00000 76.00000 L589.09375 76.00000 L589.09375 5.79688 Q589.20312 -7.40625 576.09375 -7.29688 Z M511.09375 -8.00000 L511.09375 65.29688 L518.79688 65.29688 L518.79688 -8.00000 L511.09375 -8.00000 Z M539.50000 49.79688 L539.50000 36.29688 L560.40625 36.29688 L560.40625 49.79688 L539.50000 49.79688 Z M539.50000 16.50000 L560.40625 16.50000 L560.40625 30.00000 L539.50000 30.00000 L539.50000 16.50000 Z M528.70312 63.29688 Q521.70312 72.70312 516.00000 77.90625 L522.90625 81.59375 Q529.50000 75.29688 534.79688 68.00000 L528.70312 63.29688 Z" /></g>
     </g>
    </g>
   </g>
   <g id="line2d_10">
    <path d="M 204.275556 177.408  L 204.275556 34.56  " clip-path="url(#pd9af7d1f66)" style="fill: none; stroke-dasharray: 3.7,1.6; stroke-dashoffset: 0; stroke: #bfc9c0" />
   </g>
   <g id="line2d_11">
    <path d="M 336.808889 177.408  L 336.808889 34.56  " clip-path="url(#pd9af7d1f66)" style="fill: none; stroke-dasharray: 3.7,1.6; stroke-dashoffset: 0; stroke: #bfc9c0" />
   </g>
   <g id="line2d_12">
    <path d="M 469.342222 177.408  L 469.342222 34.56  " clip-path="url(#pd9af7d1f66)" style="fill: none; stroke-dasharray: 3.7,1.6; stroke-dashoffset: 0; stroke: #bfc9c0" />
   </g>
   <g id="patch_7">
    <path d="M 115.92 177.408  L 473.76 177.408  " style="fill: none; stroke: #252c29; stroke-width: 0.8; stroke-linejoin: miter; stroke-linecap: square" />
   </g>
  </g>
  <g id="text_10">
   <!-- 复查点：条件 → 可验证版本 → 是否继续 -->
   <g style="fill: #24443b" transform="translate(115.92 13.824) scale(0.12 -0.12)">
    <defs>
     <path id="NotoSansSC-590d" d="M 5850 -499  Q 4461 -352 3437 38  Q 2336 -378 685 -525  Q 576 -301 378 -128  Q 1850 -19 2861 288  Q 2266 589 1773 1011  Q 1350 685 896 474  Q 781 634 512 762  Q 1549 1210 2163 1971  L 1472 1971  L 1472 3795  Q 1165 3450 826 3168  Q 634 3347 358 3418  Q 1466 4250 1894 5370  L 2342 5165  Q 2253 4954 2144 4749  L 5734 4749  L 5734 4346  L 1901 4346  Q 1754 4141 1600 3949  L 5210 3949  L 5210 1971  L 2682 1971  Q 2573 1805 2374 1568  L 5235 1568  L 5235 1242  Q 4723 659 3994 288  Q 4922 19 6138 -38  Q 5933 -243 5850 -499  z M 1946 3578  L 1946 3117  L 4723 3117  L 4723 3578  L 1946 3578  z M 1946 2349  L 4723 2349  L 4723 2803  L 1946 2803  L 1946 2349  z M 4570 1197  L 2189 1197  Q 2746 755 3418 486  Q 4134 781 4570 1197  z " transform="scale(0.015625)" />
     <path id="NotoSansSC-67e5" d="M 1325 634  L 1325 2816  L 5075 2816  L 5075 634  L 1325 634  z M 710 4237  L 710 4646  L 2944 4646  L 2944 5312  L 3437 5312  L 3437 4646  L 5690 4646  L 5690 4237  L 3750 4237  Q 4646 3373 6195 3066  Q 6016 2912 5869 2643  Q 4301 3085 3437 4051  L 3437 3027  L 2944 3027  L 2944 4045  Q 2061 3085 563 2598  Q 422 2816 186 2950  Q 1702 3398 2611 4237  L 710 4237  z M 525 -282  L 525 122  L 5882 122  L 5882 -282  L 525 -282  z M 1818 1005  L 4589 1005  L 4589 1549  L 1818 1549  L 1818 1005  z M 1818 2438  L 1818 1907  L 4589 1907  L 4589 2438  L 1818 2438  z " transform="scale(0.015625)" />
     <path id="NotoSansSC-70b9" d="M 1178 1344  L 1178 3386  L 2797 3386  L 2797 5312  L 3302 5312  L 3302 4614  L 5638 4614  L 5638 4179  L 3302 4179  L 3302 3386  L 5210 3386  L 5210 1344  L 1178 1344  z M 1670 1786  L 4710 1786  L 4710 2950  L 1670 2950  L 1670 1786  z M 698 -550  L 262 -237  Q 819 352 1152 1050  L 1562 806  Q 1216 38 698 -550  z M 5709 -538  Q 5261 224 4819 826  L 5286 992  Q 5702 429 6093 -230  L 5709 -538  z M 3987 -448  Q 3693 307 3430 806  L 3898 928  Q 4198 403 4435 -218  L 3987 -448  z M 2470 -467  Q 2272 224 2016 800  L 2490 902  Q 2765 294 2925 -250  L 2470 -467  z " transform="scale(0.015625)" />
     <path id="NotoSansSC-ff1a" d="M 1267 3238  Q 1120 3373 1120 3584  Q 1120 3802 1267 3936  Q 1402 4070 1600 4070  Q 1798 4070 1939 3936  Q 2086 3795 2086 3584  Q 2086 3373 1939 3238  Q 1798 3110 1600 3110  Q 1402 3110 1267 3238  z M 1267 109  Q 1120 243 1120 454  Q 1120 666 1267 806  Q 1402 934 1600 934  Q 1798 934 1939 806  Q 2086 666 2086 454  Q 2086 243 1939 109  Q 1798 -26 1600 -26  Q 1402 -26 1267 109  z " transform="scale(0.015625)" />
     <path id="NotoSansSC-6761" d="M 557 2022  Q 442 2285 269 2451  Q 1779 2650 2746 3104  Q 2278 3411 1850 3821  Q 1485 3418 1088 3117  Q 902 3302 659 3405  Q 1798 4230 2394 5382  L 2810 5158  Q 2707 4960 2573 4755  L 4954 4755  L 4954 4384  Q 4448 3616 3686 3110  Q 4634 2682 6138 2534  Q 5926 2336 5850 2074  Q 4224 2310 3219 2829  Q 2195 2298 557 2022  z M 934 1414  L 934 1843  L 2982 1843  L 2982 2387  L 3482 2387  L 3482 1843  L 5446 1843  L 5446 1414  L 3482 1414  L 3482 205  Q 3469 -454 2778 -467  Q 2579 -467 2310 -442  Q 2291 -186 2182 38  Q 2515 0 2694 0  Q 2989 -6 2982 294  L 2982 1414  L 934 1414  z M 2278 4333  Q 2259 4307 2227 4262  Q 2208 4237 2131 4147  Q 2643 3674 3206 3354  Q 3859 3744 4339 4333  L 2278 4333  z M 864 -294  Q 704 -102 448 19  Q 1376 486 2003 1178  L 2381 909  Q 1728 192 864 -294  z M 5638 -256  Q 4915 314 4006 851  L 4320 1178  Q 5133 698 5824 179  L 5638 -256  z " transform="scale(0.015625)" />
     <path id="NotoSansSC-4ef6" d="M 2029 1568  L 2029 2016  L 3974 2016  L 3974 3475  L 3014 3475  Q 2835 2995 2566 2547  Q 2336 2656 2067 2656  Q 2694 3584 2912 4851  L 3360 4704  Q 3283 4294 3162 3910  L 3974 3910  L 3974 5306  L 4467 5306  L 4467 3910  L 5830 3910  L 5830 3475  L 4467 3475  L 4467 2016  L 6144 2016  L 6144 1568  L 4467 1568  L 4467 -512  L 3974 -512  L 3974 1568  L 2029 1568  z M 1139 -506  L 1139 3053  Q 819 2579 538 2298  Q 358 2490 109 2579  Q 1171 3699 1658 5350  L 2125 5114  Q 1946 4525 1619 3885  L 1619 -506  L 1139 -506  z " transform="scale(0.015625)" />
     <path id="NotoSansSC-20" transform="scale(0.015625)" />
     <path id="NotoSansSC-2192" d="M 256 2650  L 5190 2650  Q 4570 3123 4154 3699  L 4538 3923  Q 5197 3059 6176 2432  Q 5197 1805 4538 941  L 4154 1165  Q 4570 1741 5190 2214  L 256 2214  L 256 2650  z " transform="scale(0.015625)" />
     <path id="NotoSansSC-53ef" d="M 1178 1133  L 1178 3552  L 3622 3552  L 3622 1133  L 1178 1133  z M 333 4410  L 333 4870  L 6067 4870  L 6067 4410  L 5050 4410  L 5050 429  Q 5069 -474 4128 -454  Q 3776 -448 3475 -410  Q 3450 -96 3347 109  Q 3802 38 4083 38  Q 4570 13 4544 518  L 4544 4410  L 333 4410  z M 1670 1574  L 3123 1574  L 3123 3104  L 1670 3104  L 1670 1574  z " transform="scale(0.015625)" />
     <path id="NotoSansSC-9a8c" d="M 1606 -448  Q 1414 -448 1190 -429  Q 1178 -192 1062 26  Q 1344 -19 1562 -19  Q 1939 -38 1952 416  L 2035 2029  L 608 2029  L 794 4230  L 1222 4198  L 1069 2432  L 1702 2432  L 1875 4538  L 461 4538  L 461 4947  L 2349 4947  L 2189 3123  Q 3514 4013 4070 5363  L 4499 5158  Q 4486 5120 4448 5043  Q 4416 4966 4397 4928  Q 5178 3750 6330 3264  Q 6080 3104 5926 2861  Q 4787 3526 4173 4518  Q 3539 3488 2554 2790  Q 2432 2938 2182 3059  L 2131 2432  L 2483 2432  L 2381 346  Q 2355 -461 1606 -448  z M 2605 -262  L 2605 166  L 4435 166  Q 4870 1120 5203 2355  L 5645 2157  Q 5280 1005 4902 166  L 5926 166  L 5926 -262  L 2605 -262  z M 3085 2752  L 3085 3162  L 5318 3162  L 5318 2752  L 3085 2752  z M 365 646  L 147 1069  L 1766 1446  L 1926 1082  L 365 646  z M 3354 512  Q 3098 1357 2784 2074  L 3200 2163  Q 3514 1459 3757 698  L 3354 512  z M 4198 909  Q 4032 1619 3789 2278  L 4205 2336  Q 4435 1747 4595 1069  L 4198 909  z " transform="scale(0.015625)" />
     <path id="NotoSansSC-8bc1" d="M 2432 4346  L 2432 4787  L 6035 4787  L 6035 4346  L 4602 4346  L 4602 2643  L 5805 2643  L 5805 2208  L 4602 2208  L 4602 179  L 6138 179  L 6138 -262  L 2061 -262  L 2061 179  L 2803 179  L 2803 3187  L 3277 3187  L 3277 179  L 4115 179  L 4115 4346  L 2432 4346  z M 1158 -237  L 864 154  Q 1094 346 1082 672  L 1082 2925  L 256 2925  L 256 3366  L 1555 3366  L 1555 698  L 2150 1216  L 2419 896  L 1421 32  Q 1261 -109 1158 -237  z M 1664 3814  Q 1165 4429 698 4858  L 1126 5094  Q 1651 4614 2010 4166  L 1664 3814  z " transform="scale(0.015625)" />
     <path id="NotoSansSC-7248" d="M 1837 -435  L 1837 1766  L 1114 1766  Q 1082 346 608 -499  Q 410 -365 166 -307  Q 704 602 672 2067  L 672 4986  L 1120 4986  L 1120 3360  L 1786 3360  L 1786 5235  L 2214 5235  L 2214 3360  L 2656 3360  L 2656 2944  L 1120 2944  L 1120 2182  L 2278 2182  L 2278 166  Q 3027 1133 2995 3027  L 2995 4774  Q 4506 4813 5555 5139  L 5862 4730  Q 4685 4429 3462 4378  L 3462 3296  L 5715 3296  L 5715 2938  Q 5542 1786 4928 909  Q 5459 307 6272 -96  Q 6042 -211 5850 -461  Q 5126 -6 4646 538  Q 4122 -64 3360 -506  Q 3194 -307 2957 -192  Q 3782 243 4352 909  Q 3776 1741 3571 2880  L 3437 2880  Q 3462 845 2598 -211  Q 2432 -77 2278 -19  L 2278 -435  L 1837 -435  z M 5254 2880  L 3974 2880  Q 4179 1952 4634 1286  Q 5133 2054 5254 2880  z " transform="scale(0.015625)" />
     <path id="NotoSansSC-662f" d="M 1376 2854  L 1376 5037  L 4986 5037  L 4986 2854  L 1376 2854  z M 314 1978  L 314 2400  L 6035 2400  L 6035 1978  L 3494 1978  L 3494 1306  L 5370 1306  L 5370 902  L 3494 902  L 3494 205  Q 3590 186 3706 173  Q 4179 115 4826 102  Q 5485 90 6080 134  Q 5933 -102 5894 -371  Q 4685 -384 3808 -294  Q 2349 -173 1760 736  Q 1376 -32 608 -512  Q 448 -339 179 -230  Q 1421 493 1638 1869  L 2099 1734  Q 2022 1370 1946 1178  Q 2368 531 3021 320  L 3021 1978  L 314 1978  z M 1856 3238  L 4506 3238  L 4506 3763  L 1856 3763  L 1856 3238  z M 1856 4653  L 1856 4134  L 4506 4134  L 4506 4653  L 1856 4653  z " transform="scale(0.015625)" />
     <path id="NotoSansSC-5426" d="M 1293 -493  L 1293 2048  L 5139 2048  L 5139 -493  L 4640 -493  L 4640 -13  L 1792 -13  L 1792 -493  L 1293 -493  z M 595 4544  L 595 4979  L 5773 4979  L 5773 4544  L 3693 4544  Q 3501 4262 3258 4013  L 3418 4013  L 3418 2272  L 2912 2272  L 2912 3667  Q 1888 2739 602 2246  Q 422 2483 198 2618  Q 2054 3302 3098 4544  L 595 4544  z M 1792 1626  L 1792 410  L 4640 410  L 4640 1626  L 1792 1626  z M 5875 2240  Q 4717 2970 3590 3501  L 3904 3827  Q 5037 3322 6042 2694  L 5875 2240  z " transform="scale(0.015625)" />
     <path id="NotoSansSC-7ee7" d="M 3386 749  Q 3200 915 3002 979  L 3002 147  L 6074 147  L 6074 -282  L 2541 -282  L 2541 4864  L 3002 4864  L 3002 992  Q 3776 1786 4147 2694  L 3206 2694  L 3206 3098  L 4301 3098  L 4301 5267  L 4749 5267  L 4749 3098  L 5818 3098  L 5818 2694  L 4749 2694  L 4749 2234  L 5082 2349  Q 5581 1734 5978 1094  L 5651 806  Q 5178 1594 4749 2176  L 4749 320  L 4301 320  L 4301 2214  Q 3981 1389 3386 749  z M 608 1267  L 397 1658  Q 614 1741 749 1926  Q 966 2202 1446 2944  L 870 2912  Q 653 2899 454 2842  L 262 3206  Q 461 3283 582 3494  Q 1216 4563 1504 5306  L 1946 5126  Q 1542 4224 992 3334  L 1709 3373  Q 1965 3795 2093 4032  L 2483 3834  Q 1811 2656 1190 1824  L 2182 1952  L 2285 1555  L 1043 1382  Q 806 1357 608 1267  z M 512 -230  L 256 198  L 2202 870  L 2394 499  L 512 -230  z M 5254 3437  Q 5082 3533 4870 3552  Q 5216 4045 5523 4762  L 5894 4582  Q 5555 3872 5254 3437  z M 3802 3424  Q 3584 3904 3162 4589  L 3558 4704  Q 3859 4218 4134 3635  L 3802 3424  z " transform="scale(0.015625)" />
     <path id="NotoSansSC-7eed" d="M 2784 4243  L 2784 4646  L 4019 4646  L 4019 5312  L 4486 5312  L 4486 4646  L 5754 4646  L 5754 4243  L 4486 4243  L 4486 3654  L 5984 3654  L 5984 3277  L 5664 2304  Q 5446 2362 5229 2362  L 5510 3251  L 2554 3251  L 2554 3654  L 4019 3654  L 4019 4243  L 2784 4243  z M 614 1280  L 403 1664  Q 621 1747 755 1939  Q 1018 2266 1466 2950  L 877 2918  Q 653 2906 454 2842  L 262 3213  Q 467 3283 589 3507  Q 1216 4550 1510 5312  L 1958 5139  Q 1542 4205 998 3341  L 1741 3379  Q 2016 3840 2163 4109  L 2554 3904  Q 1862 2694 1203 1830  L 2253 1971  L 2362 1581  L 1050 1389  Q 781 1344 614 1280  z M 2426 998  L 2426 1408  L 4128 1408  Q 4186 1626 4205 1894  Q 4243 2214 4243 3053  L 4704 3034  Q 4704 2253 4666 1843  Q 4646 1613 4602 1408  L 6099 1408  L 6099 998  L 4493 998  Q 4141 -26 2752 -518  Q 2598 -282 2387 -154  Q 3667 282 3987 998  L 2426 998  z M 486 -192  L 243 250  L 2285 845  L 2477 467  L 486 -192  z M 5843 -525  Q 4973 154 4378 486  L 4678 800  Q 5402 397 6042 -83  L 5843 -525  z M 3552 1498  Q 3072 1830 2554 2061  L 2765 2342  Q 3302 2106 3693 1837  L 3552 1498  z M 3859 2176  Q 3347 2528 2931 2726  L 3142 3002  Q 3558 2822 4006 2515  L 3859 2176  z " transform="scale(0.015625)" />
    </defs>
    <use ns4:href="#NotoSansSC-590d" />
    <use ns4:href="#NotoSansSC-67e5" x="99.999985" />
    <use ns4:href="#NotoSansSC-70b9" x="199.999969" />
    <use ns4:href="#NotoSansSC-ff1a" x="299.999954" />
    <use ns4:href="#NotoSansSC-6761" x="399.999939" />
    <use ns4:href="#NotoSansSC-4ef6" x="499.999924" />
    <use ns4:href="#NotoSansSC-20" x="599.999908" />
    <use ns4:href="#NotoSansSC-2192" x="626.499893" />
    <use ns4:href="#NotoSansSC-20" x="726.499878" />
    <use ns4:href="#NotoSansSC-53ef" x="752.999863" />
    <use ns4:href="#NotoSansSC-9a8c" x="852.999847" />
    <use ns4:href="#NotoSansSC-8bc1" x="952.999832" />
    <use ns4:href="#NotoSansSC-7248" x="1052.999817" />
    <use ns4:href="#NotoSansSC-672c" x="1152.999802" />
    <use ns4:href="#NotoSansSC-20" x="1252.999786" />
    <use ns4:href="#NotoSansSC-2192" x="1279.499771" />
    <use ns4:href="#NotoSansSC-20" x="1379.499756" />
    <use ns4:href="#NotoSansSC-662f" x="1405.999741" />
    <use ns4:href="#NotoSansSC-5426" x="1505.999725" />
    <use ns4:href="#NotoSansSC-7ee7" x="1605.99971" />
    <use ns4:href="#NotoSansSC-7eed" x="1705.999695" />
   </g>
  </g>
  <g id="text_11">
   <!-- 作者拟定的计划；须确认人员实际可参与的日期 -->
   <g style="fill: #58675d" transform="translate(15.12 216.576) scale(0.107892 -0.107892)">
    <defs>
     <path id="NotoSansSC-4f5c" d="M 3578 -512  L 3578 3821  L 3475 3821  Q 3014 2957 2502 2400  Q 2323 2534 2022 2611  Q 3104 3757 3565 5357  L 4026 5139  Q 3904 4723 3693 4262  L 6093 4262  L 6093 3821  L 4070 3821  L 4070 2746  L 5779 2746  L 5779 2304  L 4070 2304  L 4070 1229  L 5946 1229  L 5946 787  L 4070 787  L 4070 -512  L 3578 -512  z M 1242 -512  L 1242 3091  Q 954 2650 602 2266  Q 390 2470 154 2573  Q 1261 3802 1773 5338  L 2234 5088  Q 2054 4563 1734 3936  L 1734 -512  L 1242 -512  z " transform="scale(0.015625)" />
     <path id="NotoSansSC-8005" d="M 1075 4192  L 1075 4614  L 2682 4614  L 2682 5312  L 3181 5312  L 3181 4614  L 4646 4614  L 4646 4198  Q 4973 4544 5222 4922  L 5651 4659  Q 5190 4032 4512 3405  L 6099 3405  L 6099 2976  L 4006 2976  Q 3571 2624 3098 2330  L 5152 2330  L 5152 -512  L 4659 -512  L 4659 -205  L 2118 -205  L 2118 -512  L 1626 -512  L 1626 1478  Q 973 1165 499 1011  Q 365 1235 115 1389  Q 806 1613 1626 2016  L 1626 2330  L 2202 2330  Q 2733 2630 3226 2976  L 410 2976  L 410 3405  L 2682 3405  L 2682 4192  L 1075 4192  z M 2118 870  L 2118 198  L 4659 198  L 4659 870  L 2118 870  z M 2317 1926  Q 2221 1869 2118 1811  L 2118 1261  L 4659 1261  L 4659 1926  L 2317 1926  z M 3789 3405  Q 4256 3782 4640 4192  L 3181 4192  L 3181 3405  L 3789 3405  z " transform="scale(0.015625)" />
     <path id="NotoSansSC-62df" d="M 346 3603  L 346 4013  L 1190 4013  L 1190 5306  L 1645 5306  L 1645 4013  L 2368 4013  L 2368 3603  L 1645 3603  L 1645 2586  L 2214 2861  L 2432 2528  L 1645 2118  L 1645 250  Q 1645 -454 973 -454  Q 755 -454 544 -422  Q 525 -186 429 58  Q 723 6 890 6  Q 1197 0 1190 326  L 1190 1888  L 467 1517  L 198 1901  L 1190 2374  L 1190 3603  L 346 3603  z M 5850 -397  Q 5446 282 4973 941  Q 4531 102 3520 -512  Q 3334 -320 3110 -205  Q 4902 762 5024 2829  Q 5062 3264 5082 3923  Q 5101 4563 5094 5171  L 5562 5126  Q 5555 3648 5466 2707  Q 5395 1971 5184 1408  Q 5606 883 6202 -45  L 5850 -397  z M 2694 134  L 2413 525  Q 2598 730 2592 1075  L 2592 4666  L 3059 4666  L 3059 1107  L 3917 1862  L 4230 1555  L 3021 480  Q 2842 320 2694 134  z M 4218 3206  Q 3718 4454 3379 5062  L 3834 5165  Q 4250 4397 4608 3469  L 4218 3206  z " transform="scale(0.015625)" />
     <path id="NotoSansSC-5b9a" d="M 1382 2778  L 1382 3213  L 5082 3213  L 5082 2778  L 3546 2778  L 3546 1805  L 5408 1805  L 5408 1370  L 3546 1370  L 3546 237  Q 3731 211 3930 198  Q 4422 160 5037 160  Q 5651 160 6150 192  Q 6010 -58 5965 -346  Q 4851 -339 4019 -282  Q 2374 -198 1702 781  Q 1331 77 710 -480  Q 486 -294 205 -224  Q 1370 710 1677 2214  L 2150 2042  Q 2054 1613 1914 1248  Q 2349 576 3053 352  L 3053 2778  L 1382 2778  z M 640 3066  L 640 4518  L 3098 4518  Q 2861 4928 2630 5222  L 3168 5370  Q 3507 4870 3706 4518  L 5747 4518  L 5747 3072  L 5248 3072  L 5248 4083  L 1139 4083  L 1139 3066  L 640 3066  z " transform="scale(0.015625)" />
     <path id="NotoSansSC-5de5" d="M 838 4301  L 838 4781  L 5555 4781  L 5555 4301  L 3456 4301  L 3456 339  L 6016 339  L 6016 -141  L 378 -141  L 378 339  L 2931 339  L 2931 4301  L 838 4301  z " transform="scale(0.015625)" />
     <path id="NotoSansSC-ff1b" d="M 1267 3238  Q 1120 3373 1120 3584  Q 1120 3802 1267 3936  Q 1402 4070 1600 4070  Q 1798 4070 1939 3936  Q 2086 3795 2086 3584  Q 2086 3373 1939 3238  Q 1798 3110 1600 3110  Q 1402 3110 1267 3238  z M 934 -698  Q 1722 -339 1747 384  Q 1709 371 1632 371  Q 1427 371 1293 486  Q 1152 608 1152 832  Q 1152 1050 1299 1178  Q 1434 1293 1638 1293  Q 1901 1293 2048 1082  Q 2189 877 2189 512  Q 2189 -608 1082 -1030  L 934 -698  z " transform="scale(0.015625)" />
     <path id="NotoSansSC-4eba" d="M 5786 -384  Q 3955 634 3206 2906  Q 2598 589 659 -448  Q 448 -211 154 -64  Q 2534 1088 2854 3904  Q 2918 4544 2906 5312  L 3456 5267  Q 3443 4531 3386 3866  Q 4198 1011 6285 64  Q 6029 -90 5786 -384  z " transform="scale(0.015625)" />
     <path id="NotoSansSC-5458" d="M 717 -531  Q 602 -256 422 -96  Q 2707 218 2944 1498  Q 3014 1818 3021 2208  L 3507 2144  Q 3501 1760 3418 1395  Q 3098 -179 717 -531  z M 1062 781  L 1062 2950  L 5325 2950  L 5325 806  L 4832 806  L 4832 2509  L 1555 2509  L 1555 781  L 1062 781  z M 5728 -525  Q 4314 205 3264 595  L 3552 966  Q 4614 589 5875 -58  L 5728 -525  z M 1312 3424  L 1312 5024  L 5075 5024  L 5075 3424  L 1312 3424  z M 1798 3846  L 4582 3846  L 4582 4608  L 1798 4608  L 1798 3846  z " transform="scale(0.015625)" />
     <path id="NotoSansSC-65f6" d="M 634 -90  L 634 4851  L 2669 4851  L 2669 58  L 2208 58  L 2208 512  L 1094 512  L 1094 -90  L 634 -90  z M 2938 3533  L 2938 3981  L 4819 3981  L 4819 5293  L 5306 5293  L 5306 3981  L 6131 3981  L 6131 3533  L 5306 3533  L 5306 371  Q 5299 -422 4461 -429  Q 4256 -429 3898 -378  Q 3891 -134 3776 115  Q 4186 58 4378 58  Q 4832 38 4819 493  L 4819 3533  L 2938 3533  z M 1094 2483  L 1094 954  L 2208 954  L 2208 2483  L 1094 2483  z M 1094 4422  L 1094 2899  L 2208 2899  L 2208 4422  L 1094 4422  z M 3898 1350  Q 3571 1965 3091 2650  L 3507 2816  Q 3866 2330 4269 1613  L 3898 1350  z " transform="scale(0.015625)" />
     <path id="NotoSansSC-95f4" d="M 2080 634  L 2080 3597  L 4307 3597  L 4307 634  L 2080 634  z M 4870 -467  Q 4691 -467 4371 -442  Q 4352 -160 4224 70  Q 4608 19 4787 19  Q 5222 6 5210 448  L 5210 4422  L 2496 4422  L 2496 4864  L 5702 4864  L 5702 371  Q 5709 -474 4870 -467  z M 710 -512  L 710 4179  L 1203 4179  L 1203 -512  L 710 -512  z M 2528 3187  L 2528 2323  L 3866 2323  L 3866 3187  L 2528 3187  z M 2528 1056  L 3866 1056  L 3866 1920  L 2528 1920  L 2528 1056  z M 1837 4051  Q 1389 4653 1024 4986  L 1466 5222  Q 1888 4819 2227 4352  L 1837 4051  z " transform="scale(0.015625)" />
     <path id="NotoSansSC-987b" d="M 2605 4602  L 2605 5024  L 6048 5024  L 6048 4602  L 4550 4602  Q 4448 4269 4262 3840  L 5722 3840  L 5722 819  L 5274 819  L 5274 3430  L 3322 3430  L 3322 806  L 2874 806  L 2874 3840  L 3763 3840  Q 3942 4205 4064 4602  L 2605 4602  z M 2522 -512  Q 2368 -282 2138 -128  Q 4134 403 4077 1869  L 4077 3002  L 4518 3002  L 4518 1862  Q 4557 147 2522 -512  z M 589 -307  Q 454 -122 179 26  Q 1402 634 2157 1747  L 2541 1478  Q 1798 346 589 -307  z M 704 1728  Q 550 1920 320 2048  Q 1293 2605 2003 3507  L 2381 3232  Q 1658 2355 704 1728  z M 672 3482  Q 538 3661 282 3789  Q 1306 4403 1914 5254  L 2298 4998  Q 1600 4077 672 3482  z M 5920 -512  Q 5126 160 4301 685  L 4659 954  Q 5446 461 6138 -77  L 5920 -512  z " transform="scale(0.015625)" />
     <path id="NotoSansSC-660e" d="M 2810 -518  Q 2586 -333 2330 -262  Q 2931 320 3123 902  Q 3328 1472 3322 2624  L 3322 5024  L 5690 5024  L 5690 352  Q 5690 -435 4941 -435  Q 4762 -435 4467 -410  Q 4448 -154 4339 96  Q 4666 45 4858 45  Q 5229 32 5216 442  L 5216 1536  L 3744 1536  Q 3642 314 2810 -518  z M 653 314  L 653 4966  L 2650 4966  L 2650 499  L 2189 499  L 2189 896  L 1114 896  L 1114 314  L 653 314  z M 3795 2630  Q 3795 2272 3776 1965  L 5216 1965  L 5216 3066  L 3795 3066  L 3795 2630  z M 3795 4589  L 3795 3494  L 5216 3494  L 5216 4589  L 3795 4589  z M 1114 4538  L 1114 3142  L 2189 3142  L 2189 4538  L 1114 4538  z M 1114 2720  L 1114 1325  L 2189 1325  L 2189 2720  L 1114 2720  z " transform="scale(0.015625)" />
     <path id="NotoSansSC-786e" d="M 4154 -90  L 4154 992  L 3354 992  Q 3296 96 2758 -525  Q 2541 -378 2272 -333  Q 2650 70 2790 518  Q 2931 947 2925 1741  L 2925 3424  Q 2803 3290 2694 3187  Q 2534 3315 2246 3386  Q 3200 4307 3616 5382  L 4045 5210  Q 3968 4986 3840 4755  L 5485 4755  L 5485 4403  L 4928 3674  L 5843 3674  L 5843 224  Q 5850 -461 5229 -448  Q 5037 -448 4845 -429  Q 4838 -179 4736 45  Q 5005 6 5107 6  Q 5408 -6 5395 326  L 5395 992  L 4576 992  L 4576 -90  L 4154 -90  z M 454 4378  L 454 4781  L 2720 4781  L 2720 4378  L 1779 4378  Q 1670 3706 1440 3104  L 2438 3104  L 2438 198  L 2016 198  L 2016 461  L 1408 461  L 1408 19  L 973 19  L 973 2163  Q 762 1837 531 1594  Q 333 1786 128 1856  Q 1024 2746 1325 4378  L 454 4378  z M 1408 2694  L 1408 870  L 2016 870  L 2016 2694  L 1408 2694  z M 3610 4352  Q 3379 3981 3130 3674  L 4384 3674  L 4896 4352  L 3610 4352  z M 4576 2138  L 4576 1395  L 5395 1395  L 5395 2138  L 4576 2138  z M 5395 3264  L 4576 3264  L 4576 2528  L 5395 2528  L 5395 3264  z M 3379 1677  Q 3379 1530 3373 1395  L 4154 1395  L 4154 2138  L 3379 2138  L 3379 1677  z M 3379 3264  L 3379 2528  L 4154 2528  L 4154 3264  L 3379 3264  z " transform="scale(0.015625)" />
     <path id="NotoSansSC-5230" d="M 480 4499  L 480 4922  L 3571 4922  L 3571 4499  L 2182 4499  L 2234 4480  Q 1792 3731 1280 3110  L 2790 3206  Q 2547 3546 2298 3853  L 2707 4019  Q 3117 3533 3622 2771  L 3283 2470  Q 3168 2643 3053 2829  L 1158 2701  Q 877 2682 678 2630  L 493 3034  Q 736 3117 922 3347  Q 1338 3859 1709 4499  L 480 4499  z M 608 1440  L 608 1875  L 1818 1875  L 1818 2547  L 2291 2547  L 2291 1875  L 3450 1875  L 3450 1440  L 2291 1440  L 2291 525  L 3533 749  L 3674 365  L 512 -288  L 320 166  L 1818 435  L 1818 1440  L 608 1440  z M 4966 -435  Q 4710 -435 4422 -403  Q 4410 -134 4294 102  Q 4653 45 4896 45  Q 5293 38 5286 454  L 5286 5312  L 5766 5312  L 5766 378  Q 5760 -429 4966 -435  z M 4032 1088  L 4032 4525  L 4499 4525  L 4499 1088  L 4032 1088  z " transform="scale(0.015625)" />
     <path id="NotoSansSC-5b9e" d="M 390 1114  L 390 1562  L 3334 1562  Q 3526 1984 3597 2528  Q 3680 3136 3712 3853  L 4205 3795  Q 4166 3098 4077 2406  Q 4013 1952 3866 1562  L 6022 1562  L 6022 1114  L 3661 1114  Q 3002 -115 1043 -538  Q 915 -288 698 -122  Q 2438 224 3078 1114  L 390 1114  z M 5235 3136  L 5235 4064  L 1165 4064  L 1165 3149  L 672 3149  L 672 4506  L 3072 4506  Q 2797 4954 2598 5190  L 3123 5344  Q 3430 4934 3667 4506  L 5722 4506  L 5722 3136  L 5235 3136  z M 5587 -538  Q 4582 122 3680 589  L 4019 909  Q 5024 416 5779 -90  L 5587 -538  z M 2707 1709  Q 2048 2144 1338 2509  L 1645 2822  Q 2323 2477 2886 2099  L 2707 1709  z M 3059 2656  Q 2490 3066 1837 3430  L 2125 3750  Q 2765 3405 3232 3053  L 3059 2656  z " transform="scale(0.015625)" />
     <path id="NotoSansSC-9645" d="M 563 -512  L 563 4973  L 2445 4973  L 2445 4582  L 1754 3046  Q 2362 2406 2362 1670  Q 2349 826 1549 813  Q 1434 813 1216 851  Q 1197 1133 1088 1312  Q 1338 1242 1504 1242  Q 1920 1235 1914 1696  Q 1926 2342 1267 2989  L 1971 4550  L 1011 4550  L 1011 -512  L 563 -512  z M 2419 2803  L 2419 3245  L 6016 3245  L 6016 2803  L 4435 2803  L 4435 256  Q 4442 -467 3718 -461  Q 3533 -461 3277 -435  Q 3270 -186 3162 32  Q 3456 -19 3654 -19  Q 3974 -38 3955 326  L 3955 2803  L 2419 2803  z M 2842 4384  L 2842 4826  L 5606 4826  L 5606 4384  L 2842 4384  z M 2528 115  Q 2368 218 2048 262  Q 2714 1037 3040 2074  L 3469 1933  Q 3123 877 2528 115  z M 5754 128  Q 5261 1171 4774 1901  L 5190 2035  Q 5670 1382 6138 397  L 5754 128  z " transform="scale(0.015625)" />
     <path id="NotoSansSC-53c2" d="M 1370 3693  L 1165 4083  Q 1427 4141 1645 4333  Q 2259 4819 2739 5382  L 3181 5184  Q 2611 4570 2086 4160  L 4307 4237  Q 3898 4602 3642 4787  L 3994 5030  Q 4627 4570 5325 3878  L 5062 3526  Q 4979 3610 4755 3827  Q 4915 3674 4710 3866  L 3219 3808  Q 3123 3539 2982 3296  L 5901 3296  L 5901 2886  L 4192 2886  Q 4928 2150 6246 1811  Q 6016 1632 5869 1382  Q 4448 1914 3642 2886  L 2726 2886  Q 2016 1901 582 1306  Q 448 1478 186 1638  Q 1421 2074 2144 2886  L 442 2886  L 442 3296  L 2458 3296  Q 2605 3526 2714 3789  L 1907 3763  Q 1587 3750 1370 3693  z M 1376 -531  Q 1242 -301 1043 -128  Q 3437 64 4806 1318  L 5229 1082  Q 3840 -262 1376 -531  z M 1766 467  Q 1645 640 1446 794  Q 3110 1133 4058 1946  L 4429 1709  Q 3341 787 1766 467  z M 1715 1331  Q 1594 1510 1408 1638  Q 2733 1984 3405 2566  L 3744 2310  Q 2950 1664 1715 1331  z " transform="scale(0.015625)" />
     <path id="NotoSansSC-65e5" d="M 1190 -397  L 1190 4877  L 5197 4877  L 5197 -397  L 4691 -397  L 4691 141  L 1696 141  L 1696 -397  L 1190 -397  z M 1696 2317  L 1696 602  L 4691 602  L 4691 2317  L 1696 2317  z M 1696 4422  L 1696 2765  L 4691 2765  L 4691 4422  L 1696 4422  z " transform="scale(0.015625)" />
     <path id="NotoSansSC-671f" d="M 3443 -525  Q 3200 -365 2963 -314  Q 3443 211 3597 794  Q 3763 1363 3757 2560  L 3757 5024  L 5850 5024  L 5850 378  Q 5843 -416 5114 -422  Q 4915 -422 4659 -397  Q 4653 -160 4538 77  Q 4890 32 5037 32  Q 5395 26 5389 410  L 5389 1530  L 4173 1530  Q 4090 262 3443 -525  z M 506 4179  L 506 4582  L 1011 4582  L 1011 5299  L 1459 5299  L 1459 4582  L 2560 4582  L 2560 5299  L 3008 5299  L 3008 4582  L 3456 4582  L 3456 4179  L 3008 4179  L 3008 1510  L 3507 1510  L 3507 1107  L 282 1107  L 282 1510  L 1011 1510  L 1011 4179  L 506 4179  z M 4211 2522  Q 4211 2214 4198 1952  L 5389 1952  L 5389 3066  L 4211 3066  L 4211 2522  z M 4211 4589  L 4211 3482  L 5389 3482  L 5389 4589  L 4211 4589  z M 1459 2157  L 1459 1510  L 2560 1510  L 2560 2157  L 1459 2157  z M 1459 3168  L 1459 2528  L 2560 2528  L 2560 3168  L 1459 3168  z M 1459 4179  L 1459 3539  L 2560 3539  L 2560 4179  L 1459 4179  z M 742 -358  Q 550 -192 314 -109  Q 998 397 1395 1011  L 1798 794  Q 1382 160 742 -358  z M 3008 13  Q 2611 422 2202 742  L 2534 1005  Q 2893 730 3245 371  L 3008 13  z " transform="scale(0.015625)" />
    </defs>
    <path d="M55.90625 -8.00000 L55.90625 59.70312 L54.29688 59.70312 Q47.09375 46.20312 39.09375 37.50000 Q36.29688 39.59375 31.59375 40.79688 Q48.50000 58.70312 55.70312 83.70312 L62.90625 80.29688 Q61.00000 73.79688 57.70312 66.59375 L95.20312 66.59375 L95.20312 59.70312 L63.59375 59.70312 L63.59375 42.90625 L90.29688 42.90625 L90.29688 36.00000 L63.59375 36.00000 L63.59375 19.20312 L92.90625 19.20312 L92.90625 12.29688 L63.59375 12.29688 L63.59375 -8.00000 L55.90625 -8.00000 Z M19.40625 -8.00000 L19.40625 48.29688 Q14.90625 41.40625 9.40625 35.40625 Q6.09375 38.59375 2.40625 40.20312 Q19.70312 59.40625 27.70312 83.40625 L34.90625 79.50000 Q32.09375 71.29688 27.09375 61.50000 L27.09375 -8.00000 L19.40625 -8.00000 Z M116.79688 65.50000 L116.79688 72.09375 L141.90625 72.09375 L141.90625 83.00000 L149.70312 83.00000 L149.70312 72.09375 L172.59375 72.09375 L172.59375 65.59375 Q177.70312 71.00000 181.59375 76.90625 L188.29688 72.79688 Q181.09375 63.00000 170.50000 53.20312 L195.29688 53.20312 L195.29688 46.50000 L162.59375 46.50000 Q155.79688 41.00000 148.40625 36.40625 L180.50000 36.40625 L180.50000 -8.00000 L172.79688 -8.00000 L172.79688 -3.20312 L133.09375 -3.20312 L133.09375 -8.00000 L125.40625 -8.00000 L125.40625 23.09375 Q115.20312 18.20312 107.79688 15.79688 Q105.70312 19.29688 101.79688 21.70312 Q112.59375 25.20312 125.40625 31.50000 L125.40625 36.40625 L134.40625 36.40625 Q142.70312 41.09375 150.40625 46.50000 L106.40625 46.50000 L106.40625 53.20312 L141.90625 53.20312 L141.90625 65.50000 L116.79688 65.50000 Z M133.09375 13.59375 L133.09375 3.09375 L172.79688 3.09375 L172.79688 13.59375 L133.09375 13.59375 Z M136.20312 30.09375 Q134.70312 29.20312 133.09375 28.29688 L133.09375 19.70312 L172.79688 19.70312 L172.79688 30.09375 L136.20312 30.09375 Z M159.20312 53.20312 Q166.50000 59.09375 172.50000 65.50000 L149.70312 65.50000 L149.70312 53.20312 L159.20312 53.20312 Z M205.40625 56.29688 L205.40625 62.70312 L218.59375 62.70312 L218.59375 82.90625 L225.70312 82.90625 L225.70312 62.70312 L237.00000 62.70312 L237.00000 56.29688 L225.70312 56.29688 L225.70312 40.40625 L234.59375 44.70312 L238.00000 39.50000 L225.70312 33.09375 L225.70312 3.90625 Q225.70312 -7.09375 215.20312 -7.09375 Q211.79688 -7.09375 208.50000 -6.59375 Q208.20312 -2.90625 206.70312 0.90625 Q211.29688 0.09375 213.90625 0.09375 Q218.70312 0.00000 218.59375 5.09375 L218.59375 29.50000 L207.29688 23.70312 L203.09375 29.70312 L218.59375 37.09375 L218.59375 56.29688 L205.40625 56.29688 Z M291.40625 -6.20312 Q285.09375 4.40625 277.70312 14.70312 Q270.79688 1.59375 255.00000 -8.00000 Q252.09375 -5.00000 248.59375 -3.20312 Q276.59375 11.90625 278.50000 44.20312 Q279.09375 51.00000 279.40625 61.29688 Q279.70312 71.29688 279.59375 80.79688 L286.90625 80.09375 Q286.79688 57.00000 285.40625 42.29688 Q284.29688 30.79688 281.00000 22.00000 Q287.59375 13.79688 296.90625 -0.70312 L291.40625 -6.20312 Z M242.09375 2.09375 L237.70312 8.20312 Q240.59375 11.40625 240.50000 16.79688 L240.50000 72.90625 L247.79688 72.90625 L247.79688 17.29688 L261.20312 29.09375 L266.09375 24.29688 L247.20312 7.50000 Q244.40625 5.00000 242.09375 2.09375 Z M265.90625 50.09375 Q258.09375 69.59375 252.79688 79.09375 L259.90625 80.70312 Q266.40625 68.70312 272.00000 54.20312 L265.90625 50.09375 Z M321.59375 43.40625 L321.59375 50.20312 L379.40625 50.20312 L379.40625 43.40625 L355.40625 43.40625 L355.40625 28.20312 L384.50000 28.20312 L384.50000 21.40625 L355.40625 21.40625 L355.40625 3.70312 Q358.29688 3.29688 361.40625 3.09375 Q369.09375 2.50000 378.70312 2.50000 Q388.29688 2.50000 396.09375 3.00000 Q393.90625 -0.90625 393.20312 -5.40625 Q375.79688 -5.29688 362.79688 -4.40625 Q337.09375 -3.09375 326.59375 12.20312 Q320.79688 1.20312 311.09375 -7.50000 Q307.59375 -4.59375 303.20312 -3.50000 Q321.40625 11.09375 326.20312 34.59375 L333.59375 31.90625 Q332.09375 25.20312 329.90625 19.50000 Q336.70312 9.00000 347.70312 5.50000 L347.70312 43.40625 L321.59375 43.40625 Z M310.00000 47.90625 L310.00000 70.59375 L348.40625 70.59375 Q344.70312 77.00000 341.09375 81.59375 L349.50000 83.90625 Q354.79688 76.09375 357.90625 70.59375 L389.79688 70.59375 L389.79688 48.00000 L382.00000 48.00000 L382.00000 63.79688 L317.79688 63.79688 L317.79688 47.90625 L310.00000 47.90625 Z M476.00000 -7.00000 Q472.29688 -7.00000 468.00000 -6.59375 Q467.70312 -2.50000 465.70312 1.20312 Q471.20312 0.20312 474.90625 0.20312 Q482.79688 0.20312 483.09375 9.20312 L484.50000 60.59375 L462.29688 60.59375 Q457.70312 51.29688 452.40625 44.50000 Q449.29688 46.50000 445.20312 47.09375 L445.20312 -4.70312 L438.00000 -4.70312 L438.00000 3.09375 L418.20312 3.09375 L418.20312 -6.70312 L410.90625 -6.70312 L410.90625 66.29688 L421.00000 66.29688 Q426.20312 75.90625 428.29688 83.20312 L435.40625 80.70312 Q432.70312 73.00000 429.20312 66.29688 L445.20312 66.29688 L445.20312 47.20312 Q456.90625 62.00000 463.20312 83.50000 L470.20312 80.59375 Q468.09375 74.00000 465.50000 67.50000 L492.00000 67.50000 L490.50000 8.09375 Q490.20312 -7.09375 476.00000 -7.00000 Z M418.20312 31.70312 L418.20312 10.00000 L438.00000 10.00000 L438.00000 31.70312 L418.20312 31.70312 Z M418.20312 59.40625 L418.20312 38.20312 L438.00000 38.20312 L438.00000 59.40625 L418.20312 59.40625 Z M467.50000 20.00000 Q460.50000 30.79688 453.29688 38.90625 L459.50000 42.29688 Q465.59375 36.00000 472.79688 25.09375 L467.50000 20.00000 Z M537.70312 42.40625 L537.70312 49.70312 L562.70312 49.70312 L562.70312 82.79688 L570.59375 82.79688 L570.59375 49.70312 L595.79688 49.70312 L595.79688 42.40625 L570.59375 42.40625 L570.59375 -8.00000 L562.70312 -8.00000 L562.70312 42.40625 L537.70312 42.40625 Z M520.29688 -5.90625 L515.70312 0.40625 Q518.59375 3.29688 518.40625 9.59375 L518.40625 42.20312 L504.09375 42.20312 L504.09375 49.40625 L526.00000 49.40625 L526.00000 9.09375 L538.00000 19.70312 L542.40625 14.79688 L524.59375 -1.29688 Q522.50000 -3.20312 520.29688 -5.90625 Z M531.20312 58.79688 Q522.79688 67.09375 512.70312 75.00000 L518.79688 79.70312 Q528.09375 72.40625 535.50000 65.09375 L531.20312 58.79688 Z M605.79688 45.59375 L604.20312 52.29688 L621.50000 54.70312 Q620.40625 67.59375 620.40625 82.29688 L627.79688 82.90625 Q627.79688 68.00000 628.79688 55.70312 L654.00000 59.20312 L655.70312 52.40625 L629.50000 48.79688 Q631.00000 35.50000 633.70312 26.00000 Q643.00000 34.40625 647.90625 43.09375 L653.59375 38.40625 Q647.00000 27.50000 636.20312 18.29688 Q636.79688 16.79688 637.40625 15.40625 Q642.50000 2.00000 647.90625 1.70312 Q650.50000 1.70312 651.90625 5.70312 Q653.40625 9.59375 654.50000 15.40625 Q657.40625 11.70312 660.50000 10.20312 Q659.29688 5.20312 657.90625 2.00000 Q655.00000 -6.40625 648.00000 -6.20312 Q639.00000 -6.00000 631.79688 9.70312 Q631.40625 10.40625 630.79688 11.90625 Q630.29688 13.00000 630.09375 13.50000 Q620.90625 6.79688 610.70312 2.40625 Q607.09375 6.59375 604.09375 8.09375 Q616.20312 12.70312 627.50000 21.00000 Q623.79688 33.29688 622.20312 47.79688 L605.79688 45.59375 Z M677.79688 -7.00000 Q674.59375 -7.00000 669.29688 -6.40625 Q669.20312 -2.40625 667.29688 1.40625 Q673.00000 0.50000 676.90625 0.50000 Q683.09375 0.29688 682.90625 6.90625 L682.90625 82.90625 L690.20312 82.90625 L690.20312 5.59375 Q690.20312 -6.90625 677.79688 -7.00000 Z M663.29688 16.40625 L663.29688 71.40625 L670.29688 71.40625 L670.29688 16.40625 L663.29688 16.40625 Z M645.79688 61.09375 Q639.29688 69.59375 632.90625 75.29688 L639.09375 78.59375 Q645.50000 72.70312 651.00000 65.59375 L645.79688 61.09375 Z M719.79688 50.59375 Q717.50000 52.70312 717.50000 56.00000 Q717.50000 59.40625 719.79688 61.50000 Q721.90625 63.59375 725.00000 63.59375 Q728.09375 63.59375 730.29688 61.50000 Q732.59375 59.29688 732.59375 56.00000 Q732.59375 52.70312 730.29688 50.59375 Q728.09375 48.59375 725.00000 48.59375 Q721.90625 48.59375 719.79688 50.59375 Z M714.59375 -10.90625 Q726.90625 -5.29688 727.29688 6.00000 Q726.70312 5.79688 725.50000 5.79688 Q722.29688 5.79688 720.20312 7.59375 Q718.00000 9.50000 718.00000 13.00000 Q718.00000 16.40625 720.29688 18.40625 Q722.40625 20.20312 725.59375 20.20312 Q729.70312 20.20312 732.00000 16.90625 Q734.20312 13.70312 734.20312 8.00000 Q734.20312 -9.50000 716.90625 -16.09375 L714.59375 -10.90625 Z M840.70312 71.90625 L840.70312 78.50000 L894.50000 78.50000 L894.50000 71.90625 L871.09375 71.90625 Q869.50000 66.70312 866.59375 60.00000 L889.40625 60.00000 L889.40625 12.79688 L882.40625 12.79688 L882.40625 53.59375 L851.90625 53.59375 L851.90625 12.59375 L844.90625 12.59375 L844.90625 60.00000 L858.79688 60.00000 Q861.59375 65.70312 863.50000 71.90625 L840.70312 71.90625 Z M839.40625 -8.00000 Q837.00000 -4.40625 833.40625 -2.00000 Q864.59375 6.29688 863.70312 29.20312 L863.70312 46.90625 L870.59375 46.90625 L870.59375 29.09375 Q871.20312 2.29688 839.40625 -8.00000 Z M809.20312 -4.79688 Q807.09375 -1.90625 802.79688 0.40625 Q821.90625 9.90625 833.70312 27.29688 L839.70312 23.09375 Q828.09375 5.40625 809.20312 -4.79688 Z M811.00000 27.00000 Q808.59375 30.00000 805.00000 32.00000 Q820.20312 40.70312 831.29688 54.79688 L837.20312 50.50000 Q825.90625 36.79688 811.00000 27.00000 Z M810.50000 54.40625 Q808.40625 57.20312 804.40625 59.20312 Q820.40625 68.79688 829.90625 82.09375 L835.90625 78.09375 Q825.00000 63.70312 810.50000 54.40625 Z M892.50000 -8.00000 Q880.09375 2.50000 867.20312 10.70312 L872.79688 14.90625 Q885.09375 7.20312 895.90625 -1.20312 L892.50000 -8.00000 Z M964.90625 -1.40625 L964.90625 15.50000 L952.40625 15.50000 Q951.50000 1.50000 943.09375 -8.20312 Q939.70312 -5.90625 935.50000 -5.20312 Q941.40625 1.09375 943.59375 8.09375 Q945.79688 14.79688 945.70312 27.20312 L945.70312 53.50000 Q943.79688 51.40625 942.09375 49.79688 Q939.59375 51.79688 935.09375 52.90625 Q950.00000 67.29688 956.50000 84.09375 L963.20312 81.40625 Q962.00000 77.90625 960.00000 74.29688 L985.70312 74.29688 L985.70312 68.79688 L977.00000 57.40625 L991.29688 57.40625 L991.29688 3.50000 Q991.40625 -7.20312 981.70312 -7.00000 Q978.70312 -7.00000 975.70312 -6.70312 Q975.59375 -2.79688 974.00000 0.70312 Q978.20312 0.09375 979.79688 0.09375 Q984.50000 -0.09375 984.29688 5.09375 L984.29688 15.50000 L971.50000 15.50000 L971.50000 -1.40625 L964.90625 -1.40625 Z M907.09375 68.40625 L907.09375 74.70312 L942.50000 74.70312 L942.50000 68.40625 L927.79688 68.40625 Q926.09375 57.90625 922.50000 48.50000 L938.09375 48.50000 L938.09375 3.09375 L931.50000 3.09375 L931.50000 7.20312 L922.00000 7.20312 L922.00000 0.29688 L915.20312 0.29688 L915.20312 33.79688 Q911.90625 28.70312 908.29688 24.90625 Q905.20312 27.90625 902.00000 29.00000 Q916.00000 42.90625 920.70312 68.40625 L907.09375 68.40625 Z M922.00000 42.09375 L922.00000 13.59375 L931.50000 13.59375 L931.50000 42.09375 L922.00000 42.09375 Z M956.40625 68.00000 Q952.79688 62.20312 948.90625 57.40625 L968.50000 57.40625 L976.50000 68.00000 L956.40625 68.00000 Z M971.50000 33.40625 L971.50000 21.79688 L984.29688 21.79688 L984.29688 33.40625 L971.50000 33.40625 Z M984.29688 51.00000 L971.50000 51.00000 L971.50000 39.50000 L984.29688 39.50000 L984.29688 51.00000 Z M952.79688 26.20312 Q952.79688 23.90625 952.70312 21.79688 L964.90625 21.79688 L964.90625 33.40625 L952.79688 33.40625 L952.79688 26.20312 Z M952.79688 51.00000 L952.79688 39.50000 L964.90625 39.50000 L964.90625 51.00000 L952.79688 51.00000 Z M1091.20312 -6.59375 Q1071.79688 8.70312 1064.09375 38.20312 Q1058.70312 9.00000 1037.40625 -7.40625 Q1034.59375 -4.40625 1030.20312 -2.50000 Q1058.29688 15.79688 1058.90625 60.59375 Q1059.09375 64.50000 1059.09375 69.50000 Q1059.20312 72.00000 1059.20312 75.00000 Q1059.20312 77.70312 1059.20312 83.09375 L1066.90625 82.59375 Q1066.90625 80.20312 1066.79688 75.40625 Q1066.70312 65.70312 1066.59375 61.29688 Q1072.59375 16.20312 1098.00000 -0.79688 Q1094.40625 -2.59375 1091.20312 -6.59375 Z M1020.40625 -2.90625 L1015.50000 3.09375 Q1018.00000 6.09375 1017.79688 12.40625 L1017.79688 46.00000 L1004.29688 46.00000 L1004.29688 52.79688 L1025.29688 52.79688 L1025.29688 12.50000 L1036.90625 23.59375 L1041.79688 18.59375 L1024.29688 1.90625 Q1022.59375 0.40625 1020.40625 -2.90625 Z M1031.20312 58.70312 Q1022.59375 68.09375 1012.40625 76.20312 L1018.79688 80.70312 Q1027.50000 74.00000 1036.09375 65.00000 L1031.20312 58.70312 Z M1190.40625 -6.00000 Q1161.79688 9.90625 1150.09375 45.40625 Q1140.59375 9.20312 1110.29688 -7.00000 Q1107.00000 -3.29688 1102.40625 -1.00000 Q1139.59375 17.00000 1144.59375 61.00000 Q1145.59375 71.00000 1145.40625 83.00000 L1154.00000 82.29688 Q1153.79688 70.79688 1152.90625 60.40625 Q1165.59375 15.79688 1198.20312 1.00000 Q1194.20312 -1.40625 1190.40625 -6.00000 Z M1211.20312 -8.29688 Q1209.40625 -4.00000 1206.59375 -1.50000 Q1242.29688 3.40625 1246.00000 23.40625 Q1247.09375 28.40625 1247.20312 34.50000 L1254.79688 33.50000 Q1254.70312 27.50000 1253.40625 21.79688 Q1248.40625 -2.79688 1211.20312 -8.29688 Z M1216.59375 12.20312 L1216.59375 46.09375 L1283.20312 46.09375 L1283.20312 12.59375 L1275.50000 12.59375 L1275.50000 39.20312 L1224.29688 39.20312 L1224.29688 12.20312 L1216.59375 12.20312 Z M1289.50000 -8.20312 Q1267.40625 3.20312 1251.00000 9.29688 L1255.50000 15.09375 Q1272.09375 9.20312 1291.79688 -0.90625 L1289.50000 -8.20312 Z M1220.50000 53.50000 L1220.50000 78.50000 L1279.29688 78.50000 L1279.29688 53.50000 L1220.50000 53.50000 Z M1228.09375 60.09375 L1271.59375 60.09375 L1271.59375 72.00000 L1228.09375 72.00000 L1228.09375 60.09375 Z M1306.09375 17.40625 L1306.09375 24.40625 L1352.09375 24.40625 Q1355.09375 31.00000 1356.20312 39.50000 Q1357.50000 49.00000 1358.00000 60.20312 L1365.70312 59.29688 Q1365.09375 48.40625 1363.70312 37.59375 Q1362.70312 30.50000 1360.40625 24.40625 L1394.09375 24.40625 L1394.09375 17.40625 L1357.20312 17.40625 Q1346.90625 -1.79688 1316.29688 -8.40625 Q1314.29688 -4.50000 1310.90625 -1.90625 Q1338.09375 3.50000 1348.09375 17.40625 L1306.09375 17.40625 Z M1381.79688 49.00000 L1381.79688 63.50000 L1318.20312 63.50000 L1318.20312 49.20312 L1310.50000 49.20312 L1310.50000 70.40625 L1348.00000 70.40625 Q1343.70312 77.40625 1340.59375 81.09375 L1348.79688 83.50000 Q1353.59375 77.09375 1357.29688 70.40625 L1389.40625 70.40625 L1389.40625 49.00000 L1381.79688 49.00000 Z M1387.29688 -8.40625 Q1371.59375 1.90625 1357.50000 9.20312 L1362.79688 14.20312 Q1378.50000 6.50000 1390.29688 -1.40625 L1387.29688 -8.40625 Z M1342.29688 26.70312 Q1332.00000 33.50000 1320.90625 39.20312 L1325.70312 44.09375 Q1336.29688 38.70312 1345.09375 32.79688 L1342.29688 26.70312 Z M1347.79688 41.50000 Q1338.90625 47.90625 1328.70312 53.59375 L1333.20312 58.59375 Q1343.20312 53.20312 1350.50000 47.70312 L1347.79688 41.50000 Z M1408.79688 -8.00000 L1408.79688 77.70312 L1438.20312 77.70312 L1438.20312 71.59375 L1427.40625 47.59375 Q1436.90625 37.59375 1436.90625 26.09375 Q1436.70312 12.90625 1424.20312 12.70312 Q1422.40625 12.70312 1419.00000 13.29688 Q1418.70312 17.70312 1417.00000 20.50000 Q1420.90625 19.40625 1423.50000 19.40625 Q1430.00000 19.29688 1429.90625 26.50000 Q1430.09375 36.59375 1419.79688 46.70312 L1430.79688 71.09375 L1415.79688 71.09375 L1415.79688 -8.00000 L1408.79688 -8.00000 Z M1437.79688 43.79688 L1437.79688 50.70312 L1494.00000 50.70312 L1494.00000 43.79688 L1469.29688 43.79688 L1469.29688 4.00000 Q1469.40625 -7.29688 1458.09375 -7.20312 Q1455.20312 -7.20312 1451.20312 -6.79688 Q1451.09375 -2.90625 1449.40625 0.50000 Q1454.00000 -0.29688 1457.09375 -0.29688 Q1462.09375 -0.59375 1461.79688 5.09375 L1461.79688 43.79688 L1437.79688 43.79688 Z M1444.40625 68.50000 L1444.40625 75.40625 L1487.59375 75.40625 L1487.59375 68.50000 L1444.40625 68.50000 Z M1439.50000 1.79688 Q1437.00000 3.40625 1432.00000 4.09375 Q1442.40625 16.20312 1447.50000 32.40625 L1454.20312 30.20312 Q1448.79688 13.70312 1439.50000 1.79688 Z M1489.90625 2.00000 Q1482.20312 18.29688 1474.59375 29.70312 L1481.09375 31.79688 Q1488.59375 21.59375 1495.90625 6.20312 L1489.90625 2.00000 Z M1518.40625 17.70312 L1518.40625 55.50000 L1556.59375 55.50000 L1556.59375 17.70312 L1518.40625 17.70312 Z M1505.20312 68.90625 L1505.20312 76.09375 L1594.79688 76.09375 L1594.79688 68.90625 L1578.90625 68.90625 L1578.90625 6.70312 Q1579.20312 -7.40625 1564.50000 -7.09375 Q1559.00000 -7.00000 1554.29688 -6.40625 Q1553.90625 -1.50000 1552.29688 1.70312 Q1559.40625 0.59375 1563.79688 0.59375 Q1571.40625 0.20312 1571.00000 8.09375 L1571.00000 68.90625 L1505.20312 68.90625 Z M1526.09375 24.59375 L1548.79688 24.59375 L1548.79688 48.50000 L1526.09375 48.50000 L1526.09375 24.59375 Z M1621.40625 57.70312 L1618.20312 63.79688 Q1622.29688 64.70312 1625.70312 67.70312 Q1635.29688 75.29688 1642.79688 84.09375 L1649.70312 81.00000 Q1640.79688 71.40625 1632.59375 65.00000 L1667.29688 66.20312 Q1660.90625 71.90625 1656.90625 74.79688 L1662.40625 78.59375 Q1672.29688 71.40625 1683.20312 60.59375 L1679.09375 55.09375 Q1677.79688 56.40625 1674.29688 59.79688 Q1676.79688 57.40625 1673.59375 60.40625 L1650.29688 59.50000 Q1648.79688 55.29688 1646.59375 51.50000 L1692.20312 51.50000 L1692.20312 45.09375 L1665.50000 45.09375 Q1677.00000 33.59375 1697.59375 28.29688 Q1694.00000 25.50000 1691.70312 21.59375 Q1669.50000 29.90625 1656.90625 45.09375 L1642.59375 45.09375 Q1631.50000 29.70312 1609.09375 20.40625 Q1607.00000 23.09375 1602.90625 25.59375 Q1622.20312 32.40625 1633.50000 45.09375 L1606.90625 45.09375 L1606.90625 51.50000 L1638.40625 51.50000 Q1640.70312 55.09375 1642.40625 59.20312 L1629.79688 58.79688 Q1624.79688 58.59375 1621.40625 57.70312 Z M1621.50000 -8.29688 Q1619.40625 -4.70312 1616.29688 -2.00000 Q1653.70312 1.00000 1675.09375 20.59375 L1681.70312 16.90625 Q1660.00000 -4.09375 1621.50000 -8.29688 Z M1627.59375 7.29688 Q1625.70312 10.00000 1622.59375 12.40625 Q1648.59375 17.70312 1663.40625 30.40625 L1669.20312 26.70312 Q1652.20312 12.29688 1627.59375 7.29688 Z M1626.79688 20.79688 Q1624.90625 23.59375 1622.00000 25.59375 Q1642.70312 31.00000 1653.20312 40.09375 L1658.50000 36.09375 Q1646.09375 26.00000 1626.79688 20.79688 Z M1769.50000 -7.20312 Q1765.29688 -7.20312 1759.09375 -6.40625 Q1758.59375 -1.50000 1757.09375 1.59375 Q1763.90625 0.40625 1768.59375 0.40625 Q1778.00000 0.20312 1778.29688 10.20312 L1779.79688 38.29688 L1721.40625 38.29688 L1725.20312 82.90625 L1733.20312 82.40625 L1732.09375 69.50000 L1790.29688 69.50000 L1790.29688 62.50000 L1731.50000 62.50000 L1730.00000 45.40625 L1788.20312 45.40625 L1786.20312 9.09375 Q1785.29688 -7.20312 1769.50000 -7.20312 Z M1706.50000 15.29688 L1706.50000 22.40625 L1770.90625 22.40625 L1770.90625 15.29688 L1706.50000 15.29688 Z M1876.00000 -7.00000 Q1872.29688 -7.00000 1868.00000 -6.59375 Q1867.70312 -2.50000 1865.70312 1.20312 Q1871.20312 0.20312 1874.90625 0.20312 Q1882.79688 0.20312 1883.09375 9.20312 L1884.50000 60.59375 L1862.29688 60.59375 Q1857.70312 51.29688 1852.40625 44.50000 Q1849.29688 46.50000 1845.20312 47.09375 L1845.20312 -4.70312 L1838.00000 -4.70312 L1838.00000 3.09375 L1818.20312 3.09375 L1818.20312 -6.70312 L1810.90625 -6.70312 L1810.90625 66.29688 L1821.00000 66.29688 Q1826.20312 75.90625 1828.29688 83.20312 L1835.40625 80.70312 Q1832.70312 73.00000 1829.20312 66.29688 L1845.20312 66.29688 L1845.20312 47.20312 Q1856.90625 62.00000 1863.20312 83.50000 L1870.20312 80.59375 Q1868.09375 74.00000 1865.50000 67.50000 L1892.00000 67.50000 L1890.50000 8.09375 Q1890.20312 -7.09375 1876.00000 -7.00000 Z M1818.20312 31.70312 L1818.20312 10.00000 L1838.00000 10.00000 L1838.00000 31.70312 L1818.20312 31.70312 Z M1818.20312 59.40625 L1818.20312 38.20312 L1838.00000 38.20312 L1838.00000 59.40625 L1818.20312 59.40625 Z M1867.50000 20.00000 Q1860.50000 30.79688 1853.29688 38.90625 L1859.50000 42.29688 Q1865.59375 36.00000 1872.79688 25.09375 L1867.50000 20.00000 Z M1918.59375 -6.20312 L1918.59375 76.20312 L1981.20312 76.20312 L1981.20312 -6.20312 L1973.29688 -6.20312 L1973.29688 2.20312 L1926.50000 2.20312 L1926.50000 -6.20312 L1918.59375 -6.20312 Z M1926.50000 36.20312 L1926.50000 9.40625 L1973.29688 9.40625 L1973.29688 36.20312 L1926.50000 36.20312 Z M1926.50000 69.09375 L1926.50000 43.20312 L1973.29688 43.20312 L1973.29688 69.09375 L1926.50000 69.09375 Z M2053.79688 -8.20312 Q2050.00000 -5.70312 2046.29688 -4.90625 Q2053.79688 3.29688 2056.20312 12.40625 Q2058.79688 21.29688 2058.70312 40.00000 L2058.70312 78.50000 L2091.40625 78.50000 L2091.40625 5.90625 Q2091.29688 -6.50000 2079.90625 -6.59375 Q2076.79688 -6.59375 2072.79688 -6.20312 Q2072.70312 -2.50000 2070.90625 1.20312 Q2076.40625 0.50000 2078.70312 0.50000 Q2084.29688 0.40625 2084.20312 6.40625 L2084.20312 23.90625 L2065.20312 23.90625 Q2063.90625 4.09375 2053.79688 -8.20312 Z M2007.90625 65.29688 L2007.90625 71.59375 L2015.79688 71.59375 L2015.79688 82.79688 L2022.79688 82.79688 L2022.79688 71.59375 L2040.00000 71.59375 L2040.00000 82.79688 L2047.00000 82.79688 L2047.00000 71.59375 L2054.00000 71.59375 L2054.00000 65.29688 L2047.00000 65.29688 L2047.00000 23.59375 L2054.79688 23.59375 L2054.79688 17.29688 L2004.40625 17.29688 L2004.40625 23.59375 L2015.79688 23.59375 L2015.79688 65.29688 L2007.90625 65.29688 Z M2065.79688 39.40625 Q2065.79688 34.59375 2065.59375 30.50000 L2084.20312 30.50000 L2084.20312 47.90625 L2065.79688 47.90625 L2065.79688 39.40625 Z M2065.79688 71.70312 L2065.79688 54.40625 L2084.20312 54.40625 L2084.20312 71.70312 L2065.79688 71.70312 Z M2022.79688 33.70312 L2022.79688 23.59375 L2040.00000 23.59375 L2040.00000 33.70312 L2022.79688 33.70312 Z M2022.79688 49.50000 L2022.79688 39.50000 L2040.00000 39.50000 L2040.00000 49.50000 L2022.79688 49.50000 Z M2022.79688 65.29688 L2022.79688 55.29688 L2040.00000 55.29688 L2040.00000 65.29688 L2022.79688 65.29688 Z M2011.59375 -5.59375 Q2008.59375 -3.00000 2004.90625 -1.70312 Q2015.59375 6.20312 2021.79688 15.79688 L2028.09375 12.40625 Q2021.59375 2.50000 2011.59375 -5.59375 Z M2047.00000 0.20312 Q2040.79688 6.59375 2034.40625 11.59375 L2039.59375 15.70312 Q2045.20312 11.40625 2050.70312 5.79688 L2047.00000 0.20312 Z" /></g>
  </g>
 </g>
 <defs>
  <clipPath id="pd9af7d1f66">
   <rect x="115.92" y="34.56" width="357.84" height="142.848" />
  </clipPath>
 </defs>
</svg>