<?xml version="1.0" encoding="utf-8" standalone="no"?>
<!DOCTYPE svg PUBLIC "-//W3C//DTD SVG 1.1//EN"
  "http://www.w3.org/Graphics/SVG/1.1/DTD/svg11.dtd">
<svg xmlns:xlink="http://www.w3.org/1999/xlink" width="374.4pt" height="172.8pt" viewBox="0 0 374.4 172.8" xmlns="http://www.w3.org/2000/svg" version="1.1">
 <metadata>
  <rdf:RDF xmlns:dc="http://purl.org/dc/elements/1.1/" xmlns:cc="http://creativecommons.org/ns#" xmlns:rdf="http://www.w3.org/1999/02/22-rdf-syntax-ns#">
   <cc:Work>
    <dc:type rdf:resource="http://purl.org/dc/dcmitype/StillImage"/>
    <dc:date>2026-09-09T17:50:10.650221</dc:date>
    <dc:format>image/svg+xml</dc:format>
    <dc:creator>
     <cc:Agent>
      <dc:title>Matplotlib v3.9.4, https://matplotlib.org/</dc:title>
     </cc:Agent>
    </dc:creator>
   </cc:Work>
  </rdf:RDF>
 </metadata>
 <defs>
  <style type="text/css">*{stroke-linejoin: round; stroke-linecap: round}</style>
 </defs>
 <g id="figure_1">
  <g id="patch_1">
   <path d="M 0 172.8 
L 374.4 172.8 
L 374.4 0 
L 0 0 
z
" style="fill: #ffffff"/>
  </g>
  <g id="axes_1">
   <g id="line2d_1">
    <path d="M 18.27072 38.1888 
L 356.12928 38.1888 
" clip-path="url(#p5d89f2a644)" style="fill: none; stroke: #bfc9c0; stroke-width: 0.7; stroke-linecap: square"/>
   </g>
   <g id="line2d_2">
    <path d="M 25.4592 49.43808 
L 25.4592 144.25344 
" clip-path="url(#p5d89f2a644)" style="fill: none; stroke: #24564b; stroke-width: 0.7; stroke-linecap: square"/>
   </g>
   <g id="patch_2">
    <path d="M 27.457268 63.90144 
Q 36.240132 63.90144 44.016767 63.90144 
" clip-path="url(#p5d89f2a644)" style="fill: none; stroke: #24564b; stroke-width: 0.9; stroke-linecap: round"/>
    <path d="M 40.416767 62.10144 
L 44.016767 63.90144 
L 40.416767 65.70144 
z
" clip-path="url(#p5d89f2a644)" style="fill: #24564b; stroke: #24564b; stroke-width: 0.9; stroke-linecap: round"/>
   </g>
   <g id="patch_3">
    <path d="M 27.457268 104.07744 
Q 36.240132 104.07744 44.016767 104.07744 
" clip-path="url(#p5d89f2a644)" style="fill: none; stroke: #24564b; stroke-width: 0.9; stroke-linecap: round"/>
    <path d="M 40.416767 102.27744 
L 44.016767 104.07744 
L 40.416767 105.87744 
z
" clip-path="url(#p5d89f2a644)" style="fill: #24564b; stroke: #24564b; stroke-width: 0.9; stroke-linecap: round"/>
   </g>
   <g id="patch_4">
    <path d="M 27.457268 144.25344 
Q 36.240132 144.25344 44.016767 144.25344 
" clip-path="url(#p5d89f2a644)" style="fill: none; stroke: #24564b; stroke-width: 0.9; stroke-linecap: round"/>
    <path d="M 40.416767 142.45344 
L 44.016767 144.25344 
L 40.416767 146.05344 
z
" clip-path="url(#p5d89f2a644)" style="fill: #24564b; stroke: #24564b; stroke-width: 0.9; stroke-linecap: round"/>
   </g>
   <g id="text_1">
    <!-- 收到专用请求 -->
    <g style="fill: #24564b" transform="translate(18.27072 23.57136) scale(0.12 -0.12)">
     <defs>
      <path id="NotoSansSC-6536" d="M 2842 -442 
Q 2669 -237 2406 -109 
Q 3462 403 4019 1069 
Q 3482 1798 3206 2771 
Q 3014 2445 2816 2189 
Q 2586 2317 2387 2362 
L 2387 -512 
L 1901 -512 
L 1901 1197 
L 1050 928 
Q 864 864 640 717 
L 448 1120 
Q 627 1286 614 1658 
L 614 4678 
L 1088 4678 
L 1088 1446 
L 1901 1683 
L 1901 5306 
L 2387 5306 
L 2387 2406 
Q 3302 3654 3654 5331 
L 4115 5178 
Q 3981 4576 3802 4083 
L 6003 4083 
L 6003 3642 
L 5370 3642 
Q 5242 2003 4627 1075 
Q 5242 422 6221 32 
Q 5952 -154 5798 -416 
Q 4909 51 4333 685 
Q 3795 70 2842 -442 
z
M 3629 3642 
Q 3603 3571 3539 3437 
Q 3507 3366 3494 3334 
Q 3802 2176 4307 1472 
Q 4813 2272 4909 3642 
L 3629 3642 
z
" transform="scale(0.015625)"/>
      <path id="NotoSansSC-5230" d="M 480 4499 
L 480 4922 
L 3571 4922 
L 3571 4499 
L 2182 4499 
L 2234 4480 
Q 1792 3731 1280 3110 
L 2790 3206 
Q 2547 3546 2298 3853 
L 2707 4019 
Q 3117 3533 3622 2771 
L 3283 2470 
Q 3168 2643 3053 2829 
L 1158 2701 
Q 877 2682 678 2630 
L 493 3034 
Q 736 3117 922 3347 
Q 1338 3859 1709 4499 
L 480 4499 
z
M 608 1440 
L 608 1875 
L 1818 1875 
L 1818 2547 
L 2291 2547 
L 2291 1875 
L 3450 1875 
L 3450 1440 
L 2291 1440 
L 2291 525 
L 3533 749 
L 3674 365 
L 512 -288 
L 320 166 
L 1818 435 
L 1818 1440 
L 608 1440 
z
M 4966 -435 
Q 4710 -435 4422 -403 
Q 4410 -134 4294 102 
Q 4653 45 4896 45 
Q 5293 38 5286 454 
L 5286 5312 
L 5766 5312 
L 5766 378 
Q 5760 -429 4966 -435 
z
M 4032 1088 
L 4032 4525 
L 4499 4525 
L 4499 1088 
L 4032 1088 
z
" transform="scale(0.015625)"/>
      <path id="NotoSansSC-4e13" d="M 858 4026 
L 858 4474 
L 2643 4474 
Q 2790 5037 2854 5376 
L 3373 5242 
Q 3309 4941 3174 4474 
L 5542 4474 
L 5542 4026 
L 3046 4026 
Q 2918 3610 2784 3226 
L 6016 3226 
L 6016 2771 
L 2618 2771 
Q 2419 2272 2298 2022 
L 5133 2022 
L 5133 1645 
Q 4717 909 4070 224 
Q 4474 70 4826 -102 
L 4685 -576 
Q 3187 109 1702 570 
L 1939 979 
Q 2573 800 3578 422 
Q 4147 1024 4499 1587 
L 1722 1587 
L 1722 1978 
Q 1875 2259 2074 2771 
L 365 2771 
L 365 3226 
L 2246 3226 
Q 2381 3610 2509 4026 
L 858 4026 
z
" transform="scale(0.015625)"/>
      <path id="NotoSansSC-7528" d="M 2963 -256 
L 2963 1440 
L 1459 1440 
Q 1395 230 877 -538 
Q 659 -378 371 -314 
Q 723 186 851 723 
Q 979 1248 979 2170 
L 979 4979 
L 5504 4979 
L 5504 333 
Q 5498 -442 4717 -448 
Q 4550 -448 4243 -422 
Q 4224 -166 4102 58 
Q 4115 58 4134 51 
Q 4486 13 4614 13 
Q 5011 0 5005 429 
L 5005 1440 
L 3456 1440 
L 3456 -256 
L 2963 -256 
z
M 3456 3002 
L 3456 1875 
L 5005 1875 
L 5005 3002 
L 3456 3002 
z
M 5005 4544 
L 3456 4544 
L 3456 3424 
L 5005 3424 
L 5005 4544 
z
M 1478 2157 
Q 1478 2010 1472 1875 
L 2963 1875 
L 2963 3002 
L 1478 3002 
L 1478 2157 
z
M 1478 4544 
L 1478 3424 
L 2963 3424 
L 2963 4544 
L 1478 4544 
z
" transform="scale(0.015625)"/>
      <path id="NotoSansSC-8bf7" d="M 2656 -506 
L 2656 2432 
L 5555 2432 
L 5555 192 
Q 5574 -480 4922 -461 
Q 4755 -461 4499 -435 
Q 4493 -230 4397 -26 
Q 4666 -64 4813 -64 
Q 5114 -83 5101 256 
L 5101 448 
L 3117 448 
L 3117 -506 
L 2656 -506 
z
M 2349 4442 
L 2349 4813 
L 3853 4813 
L 3853 5312 
L 4320 5312 
L 4320 4813 
L 5869 4813 
L 5869 4442 
L 4320 4442 
L 4320 4013 
L 5619 4013 
L 5619 3642 
L 4320 3642 
L 4320 3213 
L 6138 3213 
L 6138 2842 
L 2093 2842 
L 2093 3213 
L 3853 3213 
L 3853 3642 
L 2586 3642 
L 2586 4013 
L 3853 4013 
L 3853 4442 
L 2349 4442 
z
M 1222 -314 
L 915 90 
Q 1114 301 1094 685 
L 1094 2893 
L 269 2893 
L 269 3328 
L 1562 3328 
L 1562 653 
L 2131 1222 
L 2426 922 
L 1504 13 
Q 1350 -115 1222 -314 
z
M 3117 2074 
L 3117 1613 
L 5101 1613 
L 5101 2074 
L 3117 2074 
z
M 3117 1261 
L 3117 800 
L 5101 800 
L 5101 1261 
L 3117 1261 
z
M 1728 3859 
Q 1216 4403 653 4864 
L 1062 5133 
Q 1574 4736 2042 4230 
L 1728 3859 
z
" transform="scale(0.015625)"/>
      <path id="NotoSansSC-6c42" d="M 563 3635 
L 563 4090 
L 2976 4090 
L 2976 5312 
L 3475 5312 
L 3475 4090 
L 5818 4090 
L 5818 3635 
L 3475 3635 
L 3475 3354 
Q 3661 2746 3974 2234 
Q 4627 2714 5126 3270 
L 5530 2982 
Q 4960 2387 4224 1875 
Q 4966 915 6144 461 
Q 5837 269 5664 32 
Q 4147 806 3462 2310 
L 3475 2189 
L 3475 314 
Q 3488 -512 2694 -493 
Q 2464 -493 2208 -461 
Q 2176 -179 2054 45 
Q 2387 0 2624 -6 
Q 2989 -26 2976 365 
L 2976 3635 
L 563 3635 
z
M 710 147 
L 301 518 
Q 1504 1133 2650 2054 
L 2957 1754 
Q 2022 934 710 147 
z
M 1997 2074 
Q 1370 2605 832 2950 
L 1222 3232 
Q 1754 2886 2278 2451 
L 1997 2074 
z
M 4787 4122 
Q 4416 4538 3949 4909 
L 4371 5146 
Q 4819 4781 5139 4429 
L 4787 4122 
z
" transform="scale(0.015625)"/>
     </defs>
     <use xlink:href="#NotoSansSC-6536"/>
     <use xlink:href="#NotoSansSC-5230" x="99.999985"/>
     <use xlink:href="#NotoSansSC-4e13" x="199.999969"/>
     <use xlink:href="#NotoSansSC-7528" x="299.999954"/>
     <use xlink:href="#NotoSansSC-8bf7" x="399.999939"/>
     <use xlink:href="#NotoSansSC-6c42" x="499.999924"/>
    </g>
   </g>
   <g id="text_2">
    <!-- 核对业务目的 -->
    <g style="fill: #58615c" transform="translate(302.12928 22.80636) scale(0.09 -0.09)">
     <defs>
      <path id="NotoSansSC-6838" d="M 2560 3974 
L 2560 4397 
L 4371 4397 
Q 3981 4851 3597 5190 
L 4064 5344 
Q 4506 4966 4794 4602 
L 4448 4397 
L 6074 4397 
L 6074 3974 
L 4422 3974 
Q 4006 3328 3488 2778 
L 4634 2803 
Q 4922 3168 5114 3552 
L 5498 3290 
Q 4518 1658 2694 787 
Q 2528 979 2285 1094 
Q 3469 1606 4275 2406 
L 3322 2368 
Q 3110 2355 2880 2310 
L 2694 2726 
Q 2899 2778 3162 3046 
Q 3571 3475 3891 3974 
L 2560 3974 
z
M 371 3526 
L 371 3949 
L 1274 3949 
L 1274 5299 
L 1728 5299 
L 1728 3949 
L 2445 3949 
L 2445 3526 
L 1728 3526 
L 1728 2842 
L 1933 2931 
Q 2349 2419 2605 2003 
L 2298 1715 
Q 2010 2195 1728 2586 
L 1728 -506 
L 1274 -506 
L 1274 2509 
Q 954 1683 525 1120 
Q 314 1299 128 1363 
Q 934 2323 1222 3526 
L 371 3526 
z
M 5869 -506 
Q 5376 32 4678 672 
Q 3834 -58 2682 -531 
Q 2509 -307 2304 -186 
Q 4480 653 5613 2464 
L 5965 2182 
Q 5536 1504 5005 979 
Q 5690 403 6150 -102 
L 5869 -506 
z
" transform="scale(0.015625)"/>
      <path id="NotoSansSC-5bf9" d="M 2765 269 
Q 2310 902 1926 1395 
Q 1440 493 653 -205 
Q 442 -26 173 58 
Q 1062 742 1594 1805 
Q 1043 2496 474 3117 
L 870 3366 
Q 1293 2906 1811 2285 
Q 2163 3187 2234 4192 
L 486 4192 
L 486 4646 
L 2714 4646 
L 2714 4237 
Q 2598 2906 2157 1869 
Q 2650 1254 3072 659 
L 2765 269 
z
M 2912 3526 
L 2912 3981 
L 4819 3981 
L 4819 5293 
L 5312 5293 
L 5312 3981 
L 6144 3981 
L 6144 3526 
L 5312 3526 
L 5312 339 
Q 5299 -454 4480 -461 
Q 4224 -461 3917 -429 
Q 3917 -154 3782 77 
Q 4173 26 4390 19 
Q 4832 6 4819 448 
L 4819 3526 
L 2912 3526 
z
M 3904 1357 
Q 3539 1990 3059 2656 
L 3488 2835 
Q 3891 2310 4275 1645 
L 3904 1357 
z
" transform="scale(0.015625)"/>
      <path id="NotoSansSC-4e1a" d="M 301 -198 
L 301 269 
L 2208 269 
L 2208 5280 
L 2714 5280 
L 2714 269 
L 3674 269 
L 3674 5280 
L 4179 5280 
L 4179 269 
L 6093 269 
L 6093 -198 
L 301 -198 
z
M 4749 1446 
Q 4557 1562 4262 1606 
Q 4922 2778 5293 3936 
L 5760 3725 
Q 5363 2522 4749 1446 
z
M 1542 1478 
Q 1094 2714 557 3789 
L 1062 3904 
Q 1594 2848 1990 1760 
L 1542 1478 
z
" transform="scale(0.015625)"/>
      <path id="NotoSansSC-52a1" d="M 518 1901 
Q 403 2138 205 2323 
Q 1658 2522 2803 3072 
Q 2278 3418 1830 3885 
Q 1491 3546 1107 3264 
Q 896 3469 691 3539 
Q 1811 4314 2362 5382 
L 2778 5165 
Q 2662 4941 2515 4730 
L 5062 4730 
L 5062 4371 
Q 4557 3635 3699 3072 
Q 4723 2605 6195 2445 
Q 5997 2240 5888 1978 
Q 4301 2240 3251 2803 
Q 2067 2170 518 1901 
z
M 4198 -435 
Q 3923 -435 3654 -397 
Q 3648 -166 3520 70 
Q 3910 13 4128 13 
Q 4614 13 4640 486 
L 4698 1318 
L 3027 1318 
Q 2675 -45 922 -550 
Q 787 -326 550 -166 
Q 2157 250 2528 1318 
L 1056 1318 
L 1056 1741 
L 2637 1741 
Q 2688 1984 2694 2419 
L 3187 2362 
Q 3155 1965 3117 1741 
L 5197 1741 
L 5114 416 
Q 5075 -442 4198 -435 
z
M 2221 4326 
Q 2163 4250 2106 4186 
Q 2637 3661 3245 3309 
Q 3974 3750 4454 4326 
L 2221 4326 
z
" transform="scale(0.015625)"/>
      <path id="NotoSansSC-76ee" d="M 1101 -486 
L 1101 4934 
L 5299 4934 
L 5299 -486 
L 4781 -486 
L 4781 51 
L 1619 51 
L 1619 -486 
L 1101 -486 
z
M 1619 1549 
L 1619 499 
L 4781 499 
L 4781 1549 
L 1619 1549 
z
M 1619 3014 
L 1619 1978 
L 4781 1978 
L 4781 3014 
L 1619 3014 
z
M 1619 4480 
L 1619 3450 
L 4781 3450 
L 4781 4480 
L 1619 4480 
z
" transform="scale(0.015625)"/>
      <path id="NotoSansSC-7684" d="M 4864 -448 
Q 4627 -448 4352 -422 
Q 4333 -160 4205 77 
Q 4557 13 4794 13 
Q 5299 13 5318 589 
L 5408 3878 
L 3987 3878 
Q 3693 3283 3354 2848 
Q 3155 2976 2893 3014 
L 2893 -301 
L 2432 -301 
L 2432 198 
L 1165 198 
L 1165 -429 
L 698 -429 
L 698 4243 
L 1344 4243 
Q 1677 4858 1811 5325 
L 2266 5165 
Q 2093 4672 1869 4243 
L 2893 4243 
L 2893 3021 
Q 3642 3968 4045 5344 
L 4493 5158 
Q 4358 4736 4192 4320 
L 5888 4320 
L 5792 518 
Q 5773 -454 4864 -448 
z
M 1165 2029 
L 1165 640 
L 2432 640 
L 2432 2029 
L 1165 2029 
z
M 1165 3802 
L 1165 2445 
L 2432 2445 
L 2432 3802 
L 1165 3802 
z
M 4320 1280 
Q 3872 1971 3411 2490 
L 3808 2707 
Q 4198 2304 4659 1606 
L 4320 1280 
z
" transform="scale(0.015625)"/>
     </defs>
     <use xlink:href="#NotoSansSC-6838"/>
     <use xlink:href="#NotoSansSC-5bf9" x="99.999985"/>
     <use xlink:href="#NotoSansSC-4e1a" x="199.999969"/>
     <use xlink:href="#NotoSansSC-52a1" x="299.999954"/>
     <use xlink:href="#NotoSansSC-76ee" x="399.999939"/>
     <use xlink:href="#NotoSansSC-7684" x="499.999924"/>
    </g>
   </g>
   <g id="text_3">
    <!-- 配置可满足 -->
    <g style="fill: #252c29" transform="translate(57.80736 66.57894) scale(0.105 -0.105)">
     <defs>
      <path id="NotoSansSC-914d" d="M 358 4512 
L 358 4915 
L 3264 4915 
L 3264 4512 
L 2400 4512 
L 2400 3763 
L 3104 3763 
L 3104 -371 
L 2688 -371 
L 2688 70 
L 986 70 
L 986 -429 
L 563 -429 
L 563 3763 
L 1280 3763 
L 1280 4512 
L 358 4512 
z
M 4371 -314 
Q 3552 -346 3584 499 
L 3584 2931 
L 5267 2931 
L 5267 4474 
L 3533 4474 
L 3533 4915 
L 5722 4915 
L 5722 2490 
L 4051 2490 
L 4051 576 
Q 4045 128 4429 134 
L 5075 134 
Q 5504 109 5606 576 
Q 5658 794 5709 1094 
Q 5875 902 6099 794 
Q 6029 429 5978 282 
Q 5805 -339 5139 -314 
L 4371 -314 
z
M 2458 1952 
Q 1990 1939 2003 2432 
L 2003 3373 
L 1670 3373 
Q 1683 2349 1222 1741 
Q 1114 1824 986 1862 
L 986 1421 
L 2688 1421 
L 2688 1952 
L 2458 1952 
z
M 986 1050 
L 986 461 
L 2688 461 
L 2688 1050 
L 986 1050 
z
M 2688 3373 
L 2355 3373 
L 2355 2496 
Q 2349 2304 2547 2310 
L 2688 2310 
L 2688 3373 
z
M 986 3373 
L 986 2054 
Q 1331 2534 1325 3373 
L 986 3373 
z
M 1670 4512 
L 1670 3763 
L 2003 3763 
L 2003 4512 
L 1670 4512 
z
" transform="scale(0.015625)"/>
      <path id="NotoSansSC-7f6e" d="M 870 3795 
L 870 5018 
L 5542 5018 
L 5542 3795 
L 3456 3795 
L 3392 3430 
L 5888 3430 
L 5888 3085 
L 3328 3085 
L 3258 2720 
L 5037 2720 
L 5037 45 
L 6118 45 
L 6118 -320 
L 275 -320 
L 275 45 
L 1293 45 
L 1293 2720 
L 2752 2720 
L 2816 3085 
L 506 3085 
L 506 3430 
L 2880 3430 
L 2950 3795 
L 870 3795 
z
M 1792 403 
L 1792 45 
L 4538 45 
L 4538 403 
L 1792 403 
z
M 1792 2381 
L 1792 2029 
L 4538 2029 
L 4538 2381 
L 1792 2381 
z
M 1792 1062 
L 1792 710 
L 4538 710 
L 4538 1062 
L 1792 1062 
z
M 1792 1722 
L 1792 1370 
L 4538 1370 
L 4538 1722 
L 1792 1722 
z
M 5069 4678 
L 4115 4678 
L 4115 4134 
L 5069 4134 
L 5069 4678 
z
M 1344 4134 
L 2291 4134 
L 2291 4678 
L 1344 4678 
L 1344 4134 
z
M 2733 4678 
L 2733 4134 
L 3680 4134 
L 3680 4678 
L 2733 4678 
z
" transform="scale(0.015625)"/>
      <path id="NotoSansSC-53ef" d="M 1178 1133 
L 1178 3552 
L 3622 3552 
L 3622 1133 
L 1178 1133 
z
M 333 4410 
L 333 4870 
L 6067 4870 
L 6067 4410 
L 5050 4410 
L 5050 429 
Q 5069 -474 4128 -454 
Q 3776 -448 3475 -410 
Q 3450 -96 3347 109 
Q 3802 38 4083 38 
Q 4570 13 4544 518 
L 4544 4410 
L 333 4410 
z
M 1670 1574 
L 3123 1574 
L 3123 3104 
L 1670 3104 
L 1670 1574 
z
" transform="scale(0.015625)"/>
      <path id="NotoSansSC-6ee1" d="M 1779 3187 
L 1779 3578 
L 6080 3578 
L 6080 3187 
L 4717 3187 
L 4717 2579 
L 5811 2579 
L 5811 288 
Q 5837 -467 5094 -442 
Q 4864 -442 4704 -422 
Q 4685 -198 4595 26 
Q 4819 -6 5024 -6 
Q 5376 -26 5357 346 
L 5357 666 
L 5094 435 
Q 4870 806 4550 1248 
Q 4365 518 3904 19 
Q 3731 128 3501 173 
Q 4250 928 4275 2176 
L 3558 2176 
Q 3552 1939 3526 1715 
Q 3840 1370 4038 1069 
L 3802 806 
Q 3782 832 3750 883 
Q 3552 1165 3437 1306 
Q 3283 723 2867 256 
Q 2688 378 2502 416 
L 2502 -506 
L 2042 -506 
L 2042 2579 
L 3123 2579 
L 3123 3187 
L 1779 3187 
z
M 1914 4269 
L 1914 4666 
L 2957 4666 
L 2957 5312 
L 3405 5312 
L 3405 4666 
L 4384 4666 
L 4384 5312 
L 4838 5312 
L 4838 4666 
L 5939 4666 
L 5939 4269 
L 4838 4269 
L 4838 3725 
L 4384 3725 
L 4384 4269 
L 3405 4269 
L 3405 3718 
L 2957 3718 
L 2957 4269 
L 1914 4269 
z
M 883 -403 
L 435 -96 
Q 922 838 1274 2080 
L 1664 1837 
Q 1331 563 883 -403 
z
M 2502 2176 
L 2502 474 
Q 3162 1133 3168 2176 
L 2502 2176 
z
M 5357 2176 
L 4678 2176 
Q 4672 1933 4640 1702 
Q 5043 1203 5357 730 
L 5357 2176 
z
M 1318 2419 
Q 736 2886 211 3200 
L 550 3533 
Q 1114 3181 1562 2810 
L 1318 2419 
z
M 1510 3994 
Q 1056 4429 493 4826 
L 858 5133 
Q 1402 4749 1779 4365 
L 1510 3994 
z
M 3565 3187 
L 3565 2579 
L 4282 2579 
L 4282 3187 
L 3565 3187 
z
" transform="scale(0.015625)"/>
      <path id="NotoSansSC-8db3" d="M 1229 2848 
L 1229 4992 
L 5242 4992 
L 5242 2848 
L 3533 2848 
L 3533 1811 
L 5427 1811 
L 5427 1376 
L 3533 1376 
L 3533 192 
Q 3648 173 3776 166 
Q 4288 122 4922 122 
Q 5562 122 6125 160 
Q 5990 -83 5952 -352 
Q 4947 -358 3936 -307 
Q 2374 -243 1619 915 
Q 1293 38 646 -506 
Q 429 -346 134 -288 
Q 1293 602 1453 2310 
L 1926 2195 
Q 1882 1811 1792 1466 
Q 2285 614 3034 326 
L 3034 2848 
L 1229 2848 
z
M 1722 3290 
L 4749 3290 
L 4749 4550 
L 1722 4550 
L 1722 3290 
z
" transform="scale(0.015625)"/>
     </defs>
     <use xlink:href="#NotoSansSC-914d"/>
     <use xlink:href="#NotoSansSC-7f6e" x="99.999985"/>
     <use xlink:href="#NotoSansSC-53ef" x="199.999969"/>
     <use xlink:href="#NotoSansSC-6ee1" x="299.999954"/>
     <use xlink:href="#NotoSansSC-8db3" x="399.999939"/>
    </g>
   </g>
   <g id="text_4">
    <!-- 先验证配置 -->
    <g style="fill: #58615c" transform="translate(208.76544 66.32394) scale(0.095 -0.095)">
     <defs>
      <path id="NotoSansSC-5148" d="M 1082 2982 
Q 870 3130 563 3174 
Q 1408 3942 1734 5120 
L 2208 4896 
Q 2112 4595 1926 4198 
L 3002 4198 
L 3002 5312 
L 3507 5312 
L 3507 4198 
L 5427 4198 
L 5427 3763 
L 3507 3763 
L 3507 2720 
L 6003 2720 
L 6003 2278 
L 4173 2278 
L 4173 512 
Q 4166 141 4531 147 
L 5056 147 
Q 5427 141 5517 531 
Q 5574 762 5626 1056 
Q 5811 864 6042 781 
Q 6003 582 5939 352 
Q 5773 -333 5114 -326 
L 4486 -326 
Q 3661 -339 3674 429 
L 3674 2278 
L 2656 2278 
Q 2726 134 627 -518 
Q 467 -237 269 -77 
Q 2240 390 2163 2278 
L 384 2278 
L 384 2720 
L 3002 2720 
L 3002 3763 
L 1690 3763 
Q 1414 3322 1082 2982 
z
" transform="scale(0.015625)"/>
      <path id="NotoSansSC-9a8c" d="M 1606 -448 
Q 1414 -448 1190 -429 
Q 1178 -192 1062 26 
Q 1344 -19 1562 -19 
Q 1939 -38 1952 416 
L 2035 2029 
L 608 2029 
L 794 4230 
L 1222 4198 
L 1069 2432 
L 1702 2432 
L 1875 4538 
L 461 4538 
L 461 4947 
L 2349 4947 
L 2189 3123 
Q 3514 4013 4070 5363 
L 4499 5158 
Q 4486 5120 4448 5043 
Q 4416 4966 4397 4928 
Q 5178 3750 6330 3264 
Q 6080 3104 5926 2861 
Q 4787 3526 4173 4518 
Q 3539 3488 2554 2790 
Q 2432 2938 2182 3059 
L 2131 2432 
L 2483 2432 
L 2381 346 
Q 2355 -461 1606 -448 
z
M 2605 -262 
L 2605 166 
L 4435 166 
Q 4870 1120 5203 2355 
L 5645 2157 
Q 5280 1005 4902 166 
L 5926 166 
L 5926 -262 
L 2605 -262 
z
M 3085 2752 
L 3085 3162 
L 5318 3162 
L 5318 2752 
L 3085 2752 
z
M 365 646 
L 147 1069 
L 1766 1446 
L 1926 1082 
L 365 646 
z
M 3354 512 
Q 3098 1357 2784 2074 
L 3200 2163 
Q 3514 1459 3757 698 
L 3354 512 
z
M 4198 909 
Q 4032 1619 3789 2278 
L 4205 2336 
Q 4435 1747 4595 1069 
L 4198 909 
z
" transform="scale(0.015625)"/>
      <path id="NotoSansSC-8bc1" d="M 2432 4346 
L 2432 4787 
L 6035 4787 
L 6035 4346 
L 4602 4346 
L 4602 2643 
L 5805 2643 
L 5805 2208 
L 4602 2208 
L 4602 179 
L 6138 179 
L 6138 -262 
L 2061 -262 
L 2061 179 
L 2803 179 
L 2803 3187 
L 3277 3187 
L 3277 179 
L 4115 179 
L 4115 4346 
L 2432 4346 
z
M 1158 -237 
L 864 154 
Q 1094 346 1082 672 
L 1082 2925 
L 256 2925 
L 256 3366 
L 1555 3366 
L 1555 698 
L 2150 1216 
L 2419 896 
L 1421 32 
Q 1261 -109 1158 -237 
z
M 1664 3814 
Q 1165 4429 698 4858 
L 1126 5094 
Q 1651 4614 2010 4166 
L 1664 3814 
z
" transform="scale(0.015625)"/>
     </defs>
     <use xlink:href="#NotoSansSC-5148"/>
     <use xlink:href="#NotoSansSC-9a8c" x="99.999985"/>
     <use xlink:href="#NotoSansSC-8bc1" x="199.999969"/>
     <use xlink:href="#NotoSansSC-914d" x="299.999954"/>
     <use xlink:href="#NotoSansSC-7f6e" x="399.999939"/>
    </g>
   </g>
   <g id="text_5">
    <!-- 需要共性能力 -->
    <g style="fill: #252c29" transform="translate(57.80736 106.75494) scale(0.105 -0.105)">
     <defs>
      <path id="NotoSansSC-9700" d="M 467 1946 
L 467 2310 
L 5920 2310 
L 5920 1946 
L 3245 1946 
Q 3085 1613 2970 1440 
L 5542 1440 
L 5542 166 
Q 5549 -493 4896 -486 
Q 4717 -486 4518 -461 
Q 4518 -224 4416 -26 
Q 4672 -64 4826 -64 
Q 5088 -77 5075 224 
L 5075 1082 
L 4090 1082 
L 4090 -307 
L 3635 -307 
L 3635 1082 
L 2701 1082 
L 2701 -307 
L 2259 -307 
L 2259 1082 
L 1318 1082 
L 1318 -506 
L 851 -506 
L 851 1440 
L 2445 1440 
Q 2618 1683 2746 1946 
L 467 1946 
z
M 2957 2598 
L 2957 3923 
L 1037 3923 
L 1037 2925 
L 576 2925 
L 576 4275 
L 2957 4275 
L 2957 4672 
L 973 4672 
L 973 5030 
L 5421 5030 
L 5421 4672 
L 3430 4672 
L 3430 4275 
L 5818 4275 
L 5818 2938 
L 5350 2938 
L 5350 3923 
L 3430 3923 
L 3430 2598 
L 2957 2598 
z
M 3757 3302 
L 3757 3578 
L 5024 3578 
L 5024 3302 
L 3757 3302 
z
M 1363 3302 
L 1363 3578 
L 2630 3578 
L 2630 3302 
L 1363 3302 
z
M 1363 2694 
L 1363 2957 
L 2630 2957 
L 2630 2694 
L 1363 2694 
z
M 3757 2694 
L 3757 2957 
L 5024 2957 
L 5024 2694 
L 3757 2694 
z
" transform="scale(0.015625)"/>
      <path id="NotoSansSC-8981" d="M 576 4608 
L 576 5030 
L 5811 5030 
L 5811 4608 
L 4083 4608 
L 4083 3968 
L 5414 3968 
L 5414 2374 
L 2842 2374 
L 3098 2240 
Q 3072 2202 3027 2125 
Q 2976 2029 2842 1811 
L 6061 1811 
L 6061 1389 
L 4736 1389 
Q 4435 845 3955 461 
Q 5011 166 5728 -77 
L 5638 -550 
Q 4730 -218 3482 160 
Q 2522 -378 838 -538 
Q 717 -301 518 -128 
Q 1958 -6 2835 346 
Q 1971 582 1434 717 
Q 1747 1082 1978 1389 
L 320 1389 
L 320 1811 
L 2278 1811 
Q 2490 2112 2637 2374 
L 973 2374 
L 973 3968 
L 2291 3968 
L 2291 4608 
L 576 4608 
z
M 3386 621 
Q 3885 941 4186 1389 
L 2560 1389 
Q 2381 1139 2202 928 
Q 2829 768 3386 621 
z
M 4954 3571 
L 4083 3571 
L 4083 2778 
L 4954 2778 
L 4954 3571 
z
M 1427 2778 
L 2291 2778 
L 2291 3571 
L 1427 3571 
L 1427 2778 
z
M 2758 3571 
L 2758 2778 
L 3622 2778 
L 3622 3571 
L 2758 3571 
z
M 2758 4608 
L 2758 3968 
L 3622 3968 
L 3622 4608 
L 2758 4608 
z
" transform="scale(0.015625)"/>
      <path id="NotoSansSC-5171" d="M 691 3494 
L 691 3930 
L 1779 3930 
L 1779 5293 
L 2285 5293 
L 2285 3930 
L 4109 3930 
L 4109 5293 
L 4608 5293 
L 4608 3930 
L 5702 3930 
L 5702 3494 
L 4608 3494 
L 4608 2010 
L 6080 2010 
L 6080 1562 
L 314 1562 
L 314 2010 
L 1779 2010 
L 1779 3494 
L 691 3494 
z
M 2285 3494 
L 2285 2010 
L 4109 2010 
L 4109 3494 
L 2285 3494 
z
M 960 -512 
Q 749 -294 512 -186 
Q 1581 410 2240 1280 
L 2656 986 
Q 1914 83 960 -512 
z
M 5542 -493 
Q 4698 320 3763 986 
L 4141 1280 
Q 5126 582 5818 -70 
L 5542 -493 
z
" transform="scale(0.015625)"/>
      <path id="NotoSansSC-6027" d="M 2637 2317 
Q 2394 2419 2170 2438 
Q 2765 3456 2982 4890 
L 3418 4742 
Q 3347 4288 3219 3834 
L 4064 3834 
L 4064 5306 
L 4550 5306 
L 4550 3834 
L 5926 3834 
L 5926 3405 
L 4550 3405 
L 4550 2093 
L 5709 2093 
L 5709 1658 
L 4550 1658 
L 4550 173 
L 6125 173 
L 6125 -262 
L 2278 -262 
L 2278 173 
L 4064 173 
L 4064 1658 
L 2797 1658 
L 2797 2093 
L 4064 2093 
L 4064 3405 
L 3091 3405 
Q 2893 2778 2637 2317 
z
M 1203 -512 
L 1203 5306 
L 1683 5306 
L 1683 -512 
L 1203 -512 
z
M 640 2099 
L 218 2310 
Q 480 2918 582 3962 
L 979 3834 
Q 909 2880 640 2099 
z
M 2112 2989 
Q 1920 3565 1702 4006 
L 2074 4102 
Q 2272 3725 2464 3206 
L 2112 2989 
z
" transform="scale(0.015625)"/>
      <path id="NotoSansSC-80fd" d="M 768 -512 
L 768 2944 
L 3072 2944 
L 3072 211 
Q 3091 -493 2419 -474 
Q 2291 -474 2074 -461 
Q 2054 -224 1946 -19 
Q 2138 -38 2330 -38 
Q 2618 -45 2611 269 
L 2611 685 
L 1229 685 
L 1229 -512 
L 768 -512 
z
M 4384 -346 
Q 3654 -365 3674 365 
L 3674 2413 
L 4141 2413 
L 4141 1363 
Q 5005 1696 5555 2086 
L 5882 1741 
Q 5197 1325 4141 928 
L 4141 403 
Q 4141 90 4448 83 
L 5190 83 
Q 5510 70 5606 435 
Q 5658 602 5702 838 
Q 5894 614 6099 538 
Q 6074 422 6022 230 
Q 6016 211 6016 198 
Q 5856 -365 5248 -346 
L 4384 -346 
z
M 4403 2643 
Q 3642 2611 3674 3347 
L 3674 5299 
L 4141 5299 
L 4141 4218 
Q 4992 4557 5581 4979 
L 5894 4634 
Q 5094 4128 4141 3776 
L 4141 3386 
Q 4147 3078 4454 3072 
L 5152 3072 
Q 5446 3046 5542 3418 
Q 5606 3616 5645 3795 
Q 5818 3578 6042 3494 
Q 6010 3347 5952 3174 
Q 5792 2618 5216 2643 
L 4403 2643 
z
M 3130 3194 
Q 3072 3296 2995 3411 
L 992 3328 
Q 774 3315 480 3258 
L 307 3693 
Q 563 3750 800 4019 
Q 1312 4589 1773 5370 
L 2208 5158 
Q 1696 4352 1094 3731 
L 2726 3795 
Q 2419 4205 2182 4474 
L 2566 4666 
Q 3136 4026 3501 3443 
L 3130 3194 
z
M 1229 2554 
L 1229 1984 
L 2611 1984 
L 2611 2554 
L 1229 2554 
z
M 1229 1619 
L 1229 1050 
L 2611 1050 
L 2611 1619 
L 1229 1619 
z
" transform="scale(0.015625)"/>
      <path id="NotoSansSC-529b" d="M 4314 -326 
Q 3968 -326 3680 -288 
Q 3661 26 3526 256 
Q 3949 186 4269 186 
Q 4909 186 4928 826 
L 5043 3552 
L 3219 3552 
Q 3008 736 941 -486 
Q 749 -294 435 -173 
Q 2541 998 2707 3552 
L 806 3552 
L 806 4026 
L 2739 4026 
Q 2752 4282 2752 4589 
Q 2758 4890 2752 5318 
L 3283 5293 
Q 3283 4698 3251 4026 
L 5562 4026 
L 5434 736 
Q 5395 -326 4314 -326 
z
" transform="scale(0.015625)"/>
     </defs>
     <use xlink:href="#NotoSansSC-9700"/>
     <use xlink:href="#NotoSansSC-8981" x="99.999985"/>
     <use xlink:href="#NotoSansSC-5171" x="199.999969"/>
     <use xlink:href="#NotoSansSC-6027" x="299.999954"/>
     <use xlink:href="#NotoSansSC-80fd" x="399.999939"/>
     <use xlink:href="#NotoSansSC-529b" x="499.999924"/>
    </g>
   </g>
   <g id="text_6">
    <!-- 进入产品评估 -->
    <g style="fill: #58615c" transform="translate(208.76544 106.49994) scale(0.095 -0.095)">
     <defs>
      <path id="NotoSansSC-8fdb" d="M 2150 3763 
L 2150 4198 
L 2982 4198 
L 2982 5293 
L 3462 5293 
L 3462 4198 
L 4474 4198 
L 4474 5293 
L 4947 5293 
L 4947 4198 
L 5779 4198 
L 5779 3763 
L 4947 3763 
L 4947 2586 
L 5894 2586 
L 5894 2144 
L 4947 2144 
L 4947 493 
L 4474 493 
L 4474 2144 
L 3418 2144 
Q 3334 1197 2688 531 
Q 2496 672 2208 749 
Q 2854 1357 2931 2144 
L 2010 2144 
L 2010 2586 
L 2970 2586 
Q 2982 2822 2982 3110 
L 2982 3763 
L 2150 3763 
z
M 710 -397 
L 320 -51 
Q 768 454 1165 800 
L 1165 2778 
L 320 2778 
L 320 3226 
L 1638 3226 
L 1638 813 
Q 2266 294 3117 224 
Q 4346 102 6163 230 
Q 6010 -51 5984 -314 
Q 5261 -333 4589 -333 
Q 3923 -326 3469 -294 
Q 2202 -262 1414 410 
Q 1024 51 710 -397 
z
M 3462 3110 
Q 3462 2822 3450 2586 
L 4474 2586 
L 4474 3763 
L 3462 3763 
L 3462 3110 
z
M 1555 3770 
Q 1082 4365 589 4826 
L 1024 5075 
Q 1485 4659 1914 4102 
L 1555 3770 
z
" transform="scale(0.015625)"/>
      <path id="NotoSansSC-5165" d="M 5734 -333 
Q 4166 730 3264 3066 
Q 2477 774 678 -384 
Q 403 -141 160 -58 
Q 2310 1242 2995 3859 
Q 2822 4467 1894 4742 
L 2234 5146 
Q 3206 4864 3437 4058 
Q 4410 1088 6272 70 
Q 5971 -58 5734 -333 
z
" transform="scale(0.015625)"/>
      <path id="NotoSansSC-4ea7" d="M 666 -544 
Q 454 -365 179 -275 
Q 653 275 781 883 
Q 922 1478 864 2816 
L 3616 2816 
Q 4134 3450 4397 4019 
L 4890 3846 
Q 4608 3315 4218 2816 
L 5971 2816 
L 5971 2362 
L 1395 2362 
Q 1485 339 666 -544 
z
M 531 4109 
L 531 4563 
L 3130 4563 
Q 2950 4800 2598 5178 
L 3136 5344 
Q 3514 4966 3789 4563 
L 5946 4563 
L 5946 4109 
L 531 4109 
z
M 2445 2822 
Q 2138 3373 1766 3808 
L 2240 3974 
Q 2624 3526 2874 3066 
L 2445 2822 
z
" transform="scale(0.015625)"/>
      <path id="NotoSansSC-54c1" d="M 1478 2912 
L 1478 4954 
L 4928 4954 
L 4928 2912 
L 1478 2912 
z
M 3475 -461 
L 3475 2285 
L 5741 2285 
L 5741 -461 
L 5274 -461 
L 5274 -45 
L 3942 -45 
L 3942 -461 
L 3475 -461 
z
M 672 -461 
L 672 2285 
L 2893 2285 
L 2893 -461 
L 2426 -461 
L 2426 -45 
L 1133 -45 
L 1133 -461 
L 672 -461 
z
M 1971 3354 
L 4435 3354 
L 4435 4518 
L 1971 4518 
L 1971 3354 
z
M 3942 1856 
L 3942 384 
L 5274 384 
L 5274 1856 
L 3942 1856 
z
M 1133 1856 
L 1133 384 
L 2426 384 
L 2426 1856 
L 1133 1856 
z
" transform="scale(0.015625)"/>
      <path id="NotoSansSC-8bc4" d="M 2464 4480 
L 2464 4915 
L 5818 4915 
L 5818 4480 
L 4371 4480 
L 4371 2080 
L 6131 2080 
L 6131 1645 
L 4371 1645 
L 4371 -512 
L 3872 -512 
L 3872 1645 
L 2157 1645 
L 2157 2080 
L 3872 2080 
L 3872 4480 
L 2464 4480 
z
M 1222 -282 
L 909 83 
Q 1114 301 1101 666 
L 1101 2957 
L 269 2957 
L 269 3405 
L 1574 3405 
L 1574 685 
L 2246 1306 
L 2560 1005 
L 1542 70 
Q 1357 -109 1222 -282 
z
M 5101 2464 
Q 4941 2592 4659 2624 
Q 5120 3251 5427 3949 
L 5856 3770 
Q 5517 3053 5101 2464 
z
M 3123 2483 
Q 2816 3194 2426 3802 
L 2867 3923 
Q 3232 3392 3533 2714 
L 3123 2483 
z
M 1594 3891 
Q 1030 4512 563 4902 
L 992 5146 
Q 1434 4781 1920 4243 
L 1594 3891 
z
" transform="scale(0.015625)"/>
      <path id="NotoSansSC-4f30" d="M 2208 3558 
L 2208 4000 
L 3898 4000 
L 3898 5312 
L 4384 5312 
L 4384 4000 
L 6093 4000 
L 6093 3558 
L 4384 3558 
L 4384 2374 
L 5645 2374 
L 5645 -512 
L 5158 -512 
L 5158 -32 
L 3130 -32 
L 3130 -512 
L 2643 -512 
L 2643 2374 
L 3898 2374 
L 3898 3558 
L 2208 3558 
z
M 1197 -506 
L 1197 3040 
Q 864 2541 538 2234 
Q 339 2458 109 2573 
Q 1235 3680 1734 5325 
L 2189 5082 
Q 1997 4493 1677 3866 
L 1677 -506 
L 1197 -506 
z
M 3130 1939 
L 3130 403 
L 5158 403 
L 5158 1939 
L 3130 1939 
z
" transform="scale(0.015625)"/>
     </defs>
     <use xlink:href="#NotoSansSC-8fdb"/>
     <use xlink:href="#NotoSansSC-5165" x="99.999985"/>
     <use xlink:href="#NotoSansSC-4ea7" x="199.999969"/>
     <use xlink:href="#NotoSansSC-54c1" x="299.999954"/>
     <use xlink:href="#NotoSansSC-8bc4" x="399.999939"/>
     <use xlink:href="#NotoSansSC-4f30" x="499.999924"/>
    </g>
   </g>
   <g id="text_7">
    <!-- 只服务本客户 -->
    <g style="fill: #252c29" transform="translate(57.80736 146.93094) scale(0.105 -0.105)">
     <defs>
      <path id="NotoSansSC-53ea" d="M 1184 1933 
L 1184 4915 
L 5210 4915 
L 5210 1933 
L 1184 1933 
z
M 1696 2387 
L 4698 2387 
L 4698 4461 
L 1696 4461 
L 1696 2387 
z
M 806 -486 
Q 621 -282 346 -154 
Q 1504 576 2182 1510 
L 2618 1242 
Q 1869 218 806 -486 
z
M 5690 -486 
Q 4774 422 3808 1203 
L 4218 1504 
Q 5082 838 5984 -32 
L 5690 -486 
z
" transform="scale(0.015625)"/>
      <path id="NotoSansSC-670d" d="M 3827 -454 
Q 3706 -301 3552 -205 
L 3552 -512 
L 3085 -512 
L 3085 5005 
L 5690 5005 
L 5638 3955 
Q 5613 3213 4838 3219 
Q 4563 3219 4288 3251 
Q 4288 3482 4179 3686 
Q 4544 3629 4800 3629 
Q 5178 3603 5184 4019 
L 5210 4576 
L 3552 4576 
L 3552 2784 
L 5760 2784 
L 5760 2387 
Q 5549 1363 5050 678 
Q 5498 243 6208 -83 
Q 5990 -218 5869 -461 
Q 5229 -122 4768 320 
Q 4384 -102 3827 -454 
z
M 640 -448 
Q 429 -326 160 -314 
Q 730 525 723 1965 
L 723 5005 
L 2522 5005 
L 2522 397 
Q 2541 -410 1837 -384 
Q 1670 -384 1466 -365 
Q 1434 -83 1312 109 
Q 1331 109 1363 102 
Q 1664 64 1779 64 
Q 2093 38 2074 422 
L 2074 1664 
L 1171 1664 
Q 1133 371 640 -448 
z
M 3552 -64 
Q 4090 262 4454 666 
Q 3942 1293 3693 2202 
L 3987 2355 
L 3552 2355 
L 3552 -64 
z
M 1178 4582 
L 1178 3539 
L 2074 3539 
L 2074 4582 
L 1178 4582 
z
M 1178 3123 
L 1178 2080 
L 2074 2080 
L 2074 3123 
L 1178 3123 
z
M 5286 2355 
L 4102 2355 
Q 4320 1568 4736 1024 
Q 5152 1613 5286 2355 
z
" transform="scale(0.015625)"/>
      <path id="NotoSansSC-672c" d="M 582 3674 
L 582 4134 
L 2938 4134 
L 2938 5312 
L 3443 5312 
L 3443 4134 
L 5811 4134 
L 5811 3674 
L 3706 3674 
Q 4486 1734 6176 826 
Q 5901 678 5696 448 
Q 4134 1446 3424 3405 
L 3443 3264 
L 3443 1114 
L 4698 1114 
L 4698 672 
L 3443 672 
L 3443 -512 
L 2938 -512 
L 2938 672 
L 1664 672 
L 1664 1114 
L 2938 1114 
L 2938 3264 
L 2950 3373 
Q 2182 1421 646 410 
Q 493 582 198 717 
Q 1843 1760 2682 3674 
L 582 3674 
z
" transform="scale(0.015625)"/>
      <path id="NotoSansSC-5ba2" d="M 1402 -499 
L 1402 1498 
Q 979 1376 531 1280 
Q 397 1530 211 1677 
Q 1638 1946 2714 2426 
Q 2259 2688 1894 3002 
Q 1536 2694 1133 2464 
Q 966 2643 749 2733 
Q 1862 3373 2419 4262 
L 2810 4032 
Q 2733 3917 2650 3802 
L 4864 3802 
L 4864 3456 
Q 4390 2886 3667 2438 
Q 4755 2003 6182 1875 
Q 5997 1664 5914 1402 
Q 4346 1638 3194 2176 
Q 2406 1779 1440 1510 
L 4986 1510 
L 4986 -499 
L 4493 -499 
L 4493 -186 
L 1894 -186 
L 1894 -499 
L 1402 -499 
z
M 5242 3469 
L 5242 4314 
L 1139 4314 
L 1139 3475 
L 659 3475 
L 659 4730 
L 3008 4730 
Q 2854 5005 2675 5254 
L 3181 5395 
Q 3379 5107 3578 4730 
L 5722 4730 
L 5722 3469 
L 5242 3469 
z
M 1894 1101 
L 1894 218 
L 4493 218 
L 4493 1101 
L 1894 1101 
z
M 4230 3411 
L 2323 3411 
Q 2266 3347 2202 3283 
Q 2643 2938 3181 2662 
Q 3802 2989 4230 3411 
z
" transform="scale(0.015625)"/>
      <path id="NotoSansSC-6237" d="M 717 -518 
Q 525 -365 224 -282 
Q 1203 749 1165 2368 
L 1165 4275 
L 5568 4275 
L 5568 1594 
L 5082 1594 
L 5082 2054 
L 1664 2054 
Q 1638 480 717 -518 
z
M 1670 3814 
L 1670 2509 
L 5082 2509 
L 5082 3814 
L 1670 3814 
z
M 3443 4288 
Q 3072 4710 2534 5152 
L 3040 5331 
Q 3558 4922 3898 4538 
L 3443 4288 
z
" transform="scale(0.015625)"/>
     </defs>
     <use xlink:href="#NotoSansSC-53ea"/>
     <use xlink:href="#NotoSansSC-670d" x="99.999985"/>
     <use xlink:href="#NotoSansSC-52a1" x="199.999969"/>
     <use xlink:href="#NotoSansSC-672c" x="299.999954"/>
     <use xlink:href="#NotoSansSC-5ba2" x="399.999939"/>
     <use xlink:href="#NotoSansSC-6237" x="499.999924"/>
    </g>
   </g>
   <g id="text_8">
    <!-- 写清维护承诺 -->
    <g style="fill: #58615c" transform="translate(208.76544 146.67594) scale(0.095 -0.095)">
     <defs>
      <path id="NotoSansSC-5199" d="M 4442 -467 
Q 4141 -467 3757 -422 
Q 3750 -173 3635 70 
Q 4115 0 4378 0 
Q 4922 -6 4954 506 
L 5037 1933 
L 1690 1933 
L 1888 4269 
L 2381 4250 
L 2330 3648 
L 5094 3648 
L 5094 3219 
L 2291 3219 
L 2221 2362 
L 5555 2362 
L 5440 435 
Q 5382 -467 4442 -467 
z
M 653 3520 
L 653 4986 
L 5754 4986 
L 5754 3571 
L 5254 3571 
L 5254 4557 
L 1146 4557 
L 1146 3520 
L 653 3520 
z
M 486 787 
L 486 1216 
L 4614 1216 
L 4614 787 
L 486 787 
z
" transform="scale(0.015625)"/>
      <path id="NotoSansSC-6e05" d="M 2483 -512 
L 2483 2438 
L 5466 2438 
L 5466 186 
Q 5478 -480 4832 -467 
Q 4659 -467 4416 -442 
Q 4410 -224 4314 -26 
Q 4570 -64 4723 -64 
Q 5030 -83 5011 256 
L 5011 442 
L 2938 442 
L 2938 -512 
L 2483 -512 
z
M 2202 4435 
L 2202 4813 
L 3718 4813 
L 3718 5312 
L 4198 5312 
L 4198 4813 
L 5734 4813 
L 5734 4435 
L 4198 4435 
L 4198 4013 
L 5510 4013 
L 5510 3642 
L 4198 3642 
L 4198 3213 
L 6093 3213 
L 6093 2835 
L 1894 2835 
L 1894 3213 
L 3718 3213 
L 3718 3642 
L 2438 3642 
L 2438 4013 
L 3718 4013 
L 3718 4435 
L 2202 4435 
z
M 998 -390 
L 557 -83 
Q 1088 800 1466 2029 
L 1843 1754 
Q 1536 659 998 -390 
z
M 2938 1254 
L 2938 794 
L 5011 794 
L 5011 1254 
L 2938 1254 
z
M 2938 2067 
L 2938 1613 
L 5011 1613 
L 5011 2067 
L 2938 2067 
z
M 1395 2400 
Q 902 2829 262 3219 
L 602 3552 
Q 1197 3200 1638 2829 
L 1395 2400 
z
M 1722 3987 
Q 1203 4467 646 4851 
L 998 5158 
Q 1536 4806 1984 4378 
L 1722 3987 
z
" transform="scale(0.015625)"/>
      <path id="NotoSansSC-7ef4" d="M 2867 -512 
L 2867 3046 
Q 2656 2720 2432 2445 
Q 2266 2618 2010 2701 
Q 2950 3776 3386 5318 
L 3827 5126 
Q 3680 4653 3456 4141 
L 6010 4141 
L 6010 3725 
L 4864 3725 
L 4864 2886 
L 5875 2886 
L 5875 2483 
L 4864 2483 
L 4864 1638 
L 5882 1638 
L 5882 1235 
L 4864 1235 
L 4864 358 
L 6125 358 
L 6125 -51 
L 3341 -51 
L 3341 -512 
L 2867 -512 
z
M 582 1350 
L 371 1728 
Q 563 1811 710 2003 
Q 1005 2368 1370 2944 
L 845 2906 
Q 646 2893 448 2829 
L 243 3194 
Q 448 3290 557 3482 
Q 1082 4314 1478 5280 
L 1901 5120 
Q 1402 4032 947 3322 
L 1632 3360 
Q 1862 3750 2035 4096 
L 2432 3910 
Q 1875 2829 1158 1901 
L 2227 2074 
L 2336 1683 
L 1018 1466 
Q 742 1427 582 1350 
z
M 3341 1235 
L 3341 358 
L 4403 358 
L 4403 1235 
L 3341 1235 
z
M 499 -83 
L 256 352 
L 2285 941 
L 2470 582 
L 499 -83 
z
M 3341 2483 
L 3341 1638 
L 4403 1638 
L 4403 2483 
L 3341 2483 
z
M 3341 3725 
L 3341 2886 
L 4403 2886 
L 4403 3725 
L 3341 3725 
z
M 4800 4218 
Q 4480 4640 4090 5018 
L 4499 5216 
Q 4934 4781 5139 4506 
L 4800 4218 
z
" transform="scale(0.015625)"/>
      <path id="NotoSansSC-62a4" d="M 2362 -480 
Q 2189 -320 1882 -237 
Q 2899 704 2867 2214 
L 2867 4275 
L 5882 4275 
L 5882 1760 
L 5402 1760 
L 5402 2125 
L 3334 2125 
Q 3328 486 2362 -480 
z
M 371 3558 
L 371 3987 
L 1286 3987 
L 1286 5312 
L 1747 5312 
L 1747 3987 
L 2515 3987 
L 2515 3558 
L 1747 3558 
L 1747 2413 
L 2400 2694 
L 2592 2349 
L 1747 1952 
L 1747 282 
Q 1741 -422 1101 -429 
Q 890 -429 634 -384 
Q 608 -141 499 70 
Q 819 13 998 13 
Q 1293 6 1286 326 
L 1286 1734 
L 454 1350 
L 179 1747 
L 1286 2221 
L 1286 3558 
L 371 3558 
z
M 3334 3840 
L 3334 2566 
L 5402 2566 
L 5402 3840 
L 3334 3840 
z
M 4422 4288 
Q 4083 4698 3578 5152 
L 4032 5331 
Q 4531 4902 4826 4538 
L 4422 4288 
z
" transform="scale(0.015625)"/>
      <path id="NotoSansSC-627f" d="M 2349 2944 
L 2349 3334 
L 2995 3334 
L 2995 3859 
Q 3789 4224 4294 4582 
L 1158 4582 
L 1158 5005 
L 5082 5005 
L 5082 4627 
Q 4371 4058 3469 3629 
L 3469 3334 
L 4000 3334 
L 4000 2944 
L 3469 2944 
L 3469 2342 
L 4019 2342 
L 4019 1958 
L 3469 1958 
L 3469 1344 
L 4378 1344 
L 4378 947 
L 3469 947 
L 3469 262 
Q 3462 -480 2714 -486 
Q 2534 -486 2189 -448 
Q 2182 -211 2074 13 
Q 2432 -45 2630 -45 
Q 2995 -51 2995 314 
L 2995 947 
L 2003 947 
L 2003 1344 
L 2995 1344 
L 2995 1958 
L 2349 1958 
L 2349 2342 
L 2995 2342 
L 2995 2944 
L 2349 2944 
z
M 5734 19 
Q 4429 1184 4186 3571 
L 4595 3661 
Q 4634 3213 4730 2810 
Q 5318 3264 5658 3718 
L 6022 3437 
Q 5523 2867 4838 2406 
Q 5280 966 6272 307 
Q 5952 218 5734 19 
z
M 646 -19 
Q 467 128 173 211 
Q 1459 1242 1690 3168 
L 461 3168 
L 461 3584 
L 2150 3584 
L 2150 3219 
Q 1926 1082 646 -19 
z
" transform="scale(0.015625)"/>
      <path id="NotoSansSC-8bfa" d="M 2739 -512 
L 2739 1459 
Q 2445 1242 2112 1056 
Q 1946 1254 1734 1350 
Q 2714 1862 3238 2586 
L 1914 2586 
L 1914 3002 
L 3501 3002 
Q 3686 3354 3782 3738 
L 4211 3597 
Q 4115 3283 3981 3002 
L 6138 3002 
L 6138 2586 
L 3763 2586 
Q 3526 2202 3213 1882 
L 5594 1882 
L 5594 -512 
L 5120 -512 
L 5120 -102 
L 3206 -102 
L 3206 -512 
L 2739 -512 
z
M 2118 4115 
L 2118 4531 
L 2912 4531 
L 2912 5306 
L 3373 5306 
L 3373 4531 
L 4640 4531 
L 4640 5306 
L 5101 5306 
L 5101 4531 
L 5933 4531 
L 5933 4115 
L 5101 4115 
L 5101 3366 
L 4640 3366 
L 4640 4115 
L 3373 4115 
L 3373 3354 
L 2912 3354 
L 2912 4115 
L 2118 4115 
z
M 1158 -410 
L 864 -19 
Q 1088 179 1075 499 
L 1075 2854 
L 269 2854 
L 269 3283 
L 1549 3283 
L 1549 518 
L 2080 941 
L 2355 640 
L 1408 -154 
Q 1248 -301 1158 -410 
z
M 3206 1466 
L 3206 320 
L 5120 320 
L 5120 1466 
L 3206 1466 
z
M 1562 3834 
Q 1005 4461 550 4883 
L 986 5114 
Q 1466 4685 1894 4192 
L 1562 3834 
z
" transform="scale(0.015625)"/>
     </defs>
     <use xlink:href="#NotoSansSC-5199"/>
     <use xlink:href="#NotoSansSC-6e05" x="99.999985"/>
     <use xlink:href="#NotoSansSC-7ef4" x="199.999969"/>
     <use xlink:href="#NotoSansSC-62a4" x="299.999954"/>
     <use xlink:href="#NotoSansSC-627f" x="399.999939"/>
     <use xlink:href="#NotoSansSC-8bfa" x="499.999924"/>
    </g>
   </g>
  </g>
 </g>
 <defs>
  <clipPath id="p5d89f2a644">
   <rect x="7.488" y="6.048" width="359.424" height="160.704"/>
  </clipPath>
 </defs>
</svg>
